SplineFontDB: 3.0
FontName: OCRABold
FullName: OCRABold
FamilyName: OCRABold
Weight: Bold
Copyright: Copyright of NoOne Inc.
Version: 1.0
ItalicAngle: 0
UnderlinePosition: -125
UnderlineWidth: 50
Ascent: 3276
Descent: 820
InvalidEm: 0
sfntRevision: 0x00010000
LayerCount: 2
Layer: 0 1 "Back" 1
Layer: 1 1 "Fore" 0
XUID: [1021 313 -592764570 5217218]
StyleMap: 0x0040
FSType: 0
OS2Version: 0
OS2_WeightWidthSlopeOnly: 0
OS2_UseTypoMetrics: 0
CreationTime: -2082844800
ModificationTime: 1523633211
PfmFamily: 17
TTFWeight: 400
TTFWidth: 5
LineGap: 0
VLineGap: 0
Panose: 2 11 114 0 0 0 0 0 0 0
OS2TypoAscent: 3187
OS2TypoAOffset: 0
OS2TypoDescent: -836
OS2TypoDOffset: 0
OS2TypoLinegap: 0
OS2WinAscent: 3330
OS2WinAOffset: 0
OS2WinDescent: 979
OS2WinDOffset: 0
HheadAscent: 3187
HheadAOffset: 0
HheadDescent: -856
HheadDOffset: 0
OS2SubXSize: 819
OS2SubYSize: 737
OS2SubXOff: 0
OS2SubYOff: -836
OS2SupXSize: 819
OS2SupYSize: 737
OS2SupXOff: 0
OS2SupYOff: 2697
OS2StrikeYSize: 204
OS2StrikeYPos: 1060
OS2UnicodeRanges: 00000000.00000000.00000000.00000000
MarkAttachClasses: 1
DEI: 91125
TtTable: prep
NPUSHB
 16
 8
 21
 1
 21
 36
 16
 13
 15
 36
 1
 36
 36
 24
 13
 48
 0
SCANTYPE
PUSHW_1
 828
SCANCTRL
SCVTCI
CALL
CALL
EndTTInstrs
TtTable: fpgm
NPUSHB
 22
 21
 20
 19
 18
 17
 16
 15
 14
 13
 12
 11
 10
 9
 8
 7
 6
 5
 4
 3
 2
 1
 0
FDEF
PUSHB_3
 0
 128
 0
RS
DUP
ROLL
DIV
ROLL
SWAP
WS
FLOOR
ODD
ENDF
FDEF
PUSHB_3
 42
 0
 0
RS
EQ
JROT
PUSHB_1
 0
CALL
IF
SLOOP
IP
EIF
PUSHB_1
 0
CALL
IF
SLOOP
ALIGNRP
EIF
PUSHB_1
 0
CALL
IF
PUSHB_1
 10
LOOPCALL
EIF
PUSHB_1
 1
RS
SRP0
PUSHB_1
 0
CALL
IF
SLOOP
ALIGNRP
EIF
PUSHB_1
 0
CALL
IF
PUSHB_1
 10
LOOPCALL
EIF
ENDF
FDEF
CALL
ENDF
FDEF
CALL
PUSHB_1
 2
LOOPCALL
ENDF
FDEF
PUSHB_1
 2
LOOPCALL
ENDF
FDEF
PUSHB_1
 1
DIV
PUSHB_1
 0
SWAP
WS
PUSHB_2
 1
 3
CINDEX
WS
DUP
GC[cur]
DUP
ROUND[Grey]
SUB
ABS
PUSHB_1
 3
CINDEX
GC[cur]
DUP
ROUND[Grey]
DUP
PUSHB_1
 4
RS
SWAP
SUB
DUP
ABS
PUSHB_2
 64
 64
ROLL
EQ
IF
POP
POP
POP
POP
PUSHB_2
 0
 33
JMPR
EIF
LT
IF
POP
POP
PUSHB_2
 0

StartChar: .notdef
Encoding: 65536 -1 0
Width: 3072
Flags: W
LayerCount: 2
Fore
SplineSet
402.5 0 m 1
 402.5 2560 l 1
 402.5 2669.5 l 1
 512 2669.5 l 1
 2560 2669.5 l 1
 2669.5 2669.5 l 1
 2669.5 2560 l 1
 2669.5 0 l 1
 2669.5 -109.5 l 1
 2560 -109.5 l 1
 512 -109.5 l 1
 402.5 -109.5 l 1
 402.5 0 l 1
2384.5 175.5 m 1
 2384.5 2384.5 l 1
 687.5 2384.5 l 1
 687.5 175.5 l 1
 2384.5 175.5 l 1
EndSplineSet
EndChar

StartChar: exclam
Encoding: 33 33 4
Width: 2949
Flags: W
LayerCount: 2
Fore
SplineSet
1368 3296.5 m 2
 1577 3296.5 l 2
 1721.79529634 3296.5 1721.79529634 3296.5 1791.54208613 3218.93675962 c 0
 1812.74395497 3195.35881928 1812.74395497 3195.35881928 1825.44391288 3166.10355908 c 0
 1840.63115732 3131.11865671 1840.63115732 3131.11865671 1849.00672551 3086.43924249 c 0
 1857.38229369 3041.75982828 1857.38229369 3041.75982828 1859.94114684 2996.29770403 c 0
 1862.5 2950.83557979 1862.5 2950.83557979 1862.5 2884 c 2
 1862.5 2881.11836716 l 1
 1862.34843724 2878.24072288 l 1
 1788.34014938 1473.08336561 l 2
 1779.73637763 1318.21547396 1779.73637763 1318.21547396 1720.74103406 1225.99286792 c 0
 1681.34740307 1164.41201949 1681.34740307 1164.41201949 1614.96982924 1135.95600974 c 0
 1548.59225541 1107.5 1548.59225541 1107.5 1470 1107.5 c 0
 1392.3055517 1107.5 1392.3055517 1107.5 1326.41330797 1136.01981344 c 0
 1260.52106425 1164.53962688 1260.52106425 1164.53962688 1221.06706779 1225.51398504 c 0
 1189.0069784 1275.06139593 1189.0069784 1275.06139593 1172.9309171 1336.31733403 c 0
 1156.85485581 1397.57327213 1156.85485581 1397.57327213 1152.65985062 1473.08336561 c 2
 1078.65156276 2878.24072288 l 1
 1078.5 2881.11836716 l 1
 1078.5 2884 l 2
 1078.5 2896.22861701 1078.5 2896.22861701 1076.75947904 2921.46617097 c 0
 1074.5 2954.22861701 1074.5 2954.22861701 1074.5 2970 c 0
 1074.5 3121.15730012 1074.5 3121.15730012 1136.61368243 3202.14096202 c 0
 1145.46712745 3213.68406122 1145.46712745 3213.68406122 1155.8606086 3223.94119936 c 0
 1196.38808173 3263.93702794 1196.38808173 3263.93702794 1250.22513542 3280.21851397 c 0
 1304.06218912 3296.5 1304.06218912 3296.5 1368 3296.5 c 2
1417 682.5 m 2
 1524 682.5 l 2
 1677.76638933 682.5 1677.76638933 682.5 1770.13319466 588.510769824 c 0
 1862.5 494.521539649 1862.5 494.521539649 1862.5 340 c 2
 1862.5 233 l 2
 1862.5 78.4786368026 1862.5 78.4786368026 1770.13331592 -15.5106815987 c 0
 1677.76663185 -109.5 1677.76663185 -109.5 1524 -109.5 c 2
 1417 -109.5 l 2
 1263.23361067 -109.5 1263.23361067 -109.5 1170.86680534 -15.5107698243 c 0
 1078.5 78.4784603515 1078.5 78.4784603515 1078.5 233 c 2
 1078.5 340 l 2
 1078.5 494.521363197 1078.5 494.521363197 1170.86668408 588.510681599 c 0
 1263.23336815 682.5 1263.23336815 682.5 1417 682.5 c 2
EndSplineSet
EndChar

StartChar: quotedbl
Encoding: 34 34 5
Width: 2949
Flags: W
LayerCount: 2
Fore
SplineSet
2595.5 3187 m 1
 2595.5 2982 l 1
 2595.5 2971.07213159 l 1
 2593.34035295 2960.35979139 l 1
 2417.30978316 2087.20815828 l 2
 2385.73495817 1932.84234721 2385.73495817 1932.84234721 2333.24319028 1857.75918555 c 0
 2327.59702964 1849.68303172 2327.59702964 1849.68303172 2321.17303217 1842.16228196 c 0
 2314.74903471 1834.6415322 2314.74903471 1834.6415322 2307.67909646 1827.79751094 c 0
 2264.87668884 1786.36283674 2264.87668884 1786.36283674 2208.17111979 1770.43141837 c 0
 2151.46555073 1754.5 2151.46555073 1754.5 2081 1754.5 c 0
 1966.16022286 1754.5 1966.16022286 1754.5 1898.34739064 1816.84839 c 0
 1874.22634384 1839.02573289 1874.22634384 1839.02573289 1857.82656039 1867.84959471 c 0
 1816.72766656 1940.08401417 1816.72766656 1940.08401417 1784.95170249 2081.94099664 c 2
 1663.83161102 2667.5 l 1
 1285.16838898 2667.5 l 1
 1164.31460251 2083.22845675 l 2
 1136.61965751 1945.44384518 1136.61965751 1945.44384518 1092.78204989 1869.66740915 c 0
 1085.61508837 1857.27880424 1085.61508837 1857.27880424 1076.87127289 1845.83242999 c 0
 1068.12745741 1834.38605574 1068.12745741 1834.38605574 1058.01260111 1824.25999731 c 0
 1021.11430824 1787.32083989 1021.11430824 1787.32083989 972.022736479 1770.91041994 c 0
 922.93116472 1754.5 922.93116472 1754.5 868 1754.5 c 0
 720.126534388 1754.5 720.126534388 1754.5 645.615333309 1823.30600027 c 0
 629.524107197 1838.16514751 629.524107197 1838.16514751 617.178116304 1855.87189761 c 0
 587.976245347 1897.75352832 587.976245347 1897.75352832 568.816286918 1951.72220702 c 0
 549.656328489 2005.69088571 549.656328489 2005.69088571 531.856299695 2086.38434958 c 2
 355.659647051 2960.35979139 l 1
 353.5 2971.07213159 l 1
 353.5 2982 l 1
 353.5 3187 l 1
 353.5 3296.5 l 1
 463 3296.5 l 1
 2486 3296.5 l 1
 2595.5 3296.5 l 1
 2595.5 3187 l 1
EndSplineSet
EndChar

StartChar: numbersign
Encoding: 35 35 6
Width: 2949
Flags: W
LayerCount: 2
Fore
SplineSet
1391.5 2427.5 m 1
 1557.5 2427.5 l 1
 1557.5 2716 l 2
 1557.5 2867.64248467 1557.5 2867.64248467 1607.24016807 2963.80680962 c 0
 1642.97389681 3032.89201851 1642.97389681 3032.89201851 1711.94108764 3064.19600926 c 0
 1780.90827846 3095.5 1780.90827846 3095.5 1864 3095.5 c 0
 1946.28266341 3095.5 1946.28266341 3095.5 2014.6830661 3064.16548705 c 0
 2083.08346879 3032.83097409 2083.08346879 3032.83097409 2118.98545823 2964.33375741 c 0
 2145.86897642 2913.04283454 2145.86897642 2913.04283454 2157.68448821 2851.5355601 c 0
 2169.5 2790.02828566 2169.5 2790.02828566 2169.5 2716 c 2
 2169.5 2427.5 l 1
 2183 2427.5 l 2
 2259.23089004 2427.5 2259.23089004 2427.5 2321.99911536 2414.78098982 c 0
 2384.76734068 2402.06197965 2384.76734068 2402.06197965 2436.46806488 2372.77695405 c 0
 2470.07699889 2353.7397257 2470.07699889 2353.7397257 2495.16707293 2325.53006529 c 0
 2520.25714698 2297.32040487 2520.25714698 2297.32040487 2534.85931811 2263.99416782 c 0
 2549.46148923 2230.66793076 2549.46148923 2230.66793076 2556.48074461 2195.29813443 c 0
 2563.5 2159.92833809 2563.5 2159.92833809 2563.5 2122 c 0
 2563.5 2092.00838994 2563.5 2092.00838994 2559.22591366 2063.6285332 c 0
 2554.95182733 2035.24867645 2554.95182733 2035.24867645 2545.34383097 2007.11445625 c 0
 2535.73583461 1978.98023604 2535.73583461 1978.98023604 2521.32478015 1954.66681534 c 0
 2506.91372568 1930.35339464 2506.91372568 1930.35339464 2485.54244761 1908.82442615 c 0
 2464.17116954 1887.29545765 2464.17116954 1887.29545765 2437.46786159 1871.79633485 c 0
 2385.62308718 1841.70461264 2385.62308718 1841.70461264 2322.52785977 1828.60230632 c 0
 2259.43263237 1815.5 2259.43263237 1815.5 2183 1815.5 c 2
 2169.5 1815.5 l 1
 2169.5 1579.5 l 1
 2183 1579.5 l 2
 2339.85824302 1579.5 2339.85824302 1579.5 2436.46806488 1524.77695405 c 0
 2470.07699889 1505.7397257 2470.07699889 1505.7397257 2495.16707293 1477.53006529 c 0
 2520.25714698 1449.32040487 2520.25714698 1449.32040487 2534.85931811 1415.99416782 c 0
 2549.46148923 1382.66793076 2549.46148923 1382.66793076 2556.48074461 1347.29813443 c 0
 2563.5 1311.92833809 2563.5 1311.92833809 2563.5 1274 c 0
 2563.5 1259.21372664 2563.5 1259.21372664 2562.42528158 1244.73389384 c 0
 2561.35056316 1230.25406103 2561.35056316 1230.25406103 2559.1623542 1215.66563707 c 0
 2556.97414524 1201.07721311 2556.97414524 1201.07721311 2553.5139082 1186.98476232 c 0
 2550.05367116 1172.89231152 2550.05367116 1172.89231152 2545.42658374 1159.10759086 c 0
 2540.79949632 1145.3228702 2540.79949632 1145.3228702 2534.69347452 1132.20853606 c 0
 2528.58745271 1119.09420193 2528.58745271 1119.09420193 2521.26122068 1106.70391922 c 0
 2513.93498865 1094.31363651 2513.93498865 1094.31363651 2504.92291592 1082.76815369 c 0
 2495.91084319 1071.22267087 2495.91084319 1071.22267087 2485.62520038 1060.81756076 c 0
 2475.33955758 1050.41245065 2475.33955758 1050.41245065 2463.16116778 1041.0265538 c 0
 2450.98277797 1031.64065695 2450.98277797 1031.64065695 2437.46786159 1023.79633485 c 0
 2385.62308718 993.704612641 2385.62308718 993.704612641 2322.52785977 980.602306321 c 0
 2259.43263237 967.5 2259.43263237 967.5 2183 967.5 c 2
 2169.5 967.5 l 1
 2169.5 680 l 2
 2169.5 665.742244201 2169.5 665.742244201 2169.09123745 652.154613256 c 0
 2168.6824749 638.56698231 2168.6824749 638.56698231 2167.83161365 624.993069421 c 0
 2166.9807524 611.419156532 2166.9807524 611.419156532 2165.64088441 598.425524425 c 0
 2164.30101641 585.431892319 2164.30101641 585.431892319 2162.47008825 572.574619532 c 0
 2160.63916008 559.717346744 2160.63916008 559.717346744 2158.23689547 547.336344981 c 0
 2155.83463086 534.955343217 2155.83463086 534.955343217 2152.8923446 522.833342035 c 0
 2149.95005835 510.711340853 2149.95005835 510.711340853 2146.35410594 498.961600935 c 0
 2142.75815353 487.211861018 2142.75815353 487.211861018 2138.573218 475.843762945 c 0
 2134.38828248 464.475664872 2134.38828248 464.475664872 2129.46735109 453.375818303 c 0
 2124.54641971 442.275971735 2124.54641971 442.275971735 2118.98545823 431.666242585 c 0
 2094.58667688 385.115936077 2094.58667688 385.115936077 2051.97539621 354.746792455 c 0
 2009.36411554 324.377648833 2009.36411554 324.377648833 1963.06072049 312.438824417 c 0
 1916.75732545 300.5 1916.75732545 300.5 1864 300.5 c 0
 1810.63149419 300.5 1810.63149419 300.5 1764.15635408 312.244060343 c 0
 1717.68121397 323.988120686 1717.68121397 323.988120686 1674.66005383 354.505220772 c 0
 1631.63889369 385.022320859 1631.63889369 385.022320859 1607.24016807 432.193190383 c 0
 1580.75671933 483.394524631 1580.75671933 483.394524631 1569.12835966 544.737334241 c 0
 1557.5 606.080143851 1557.5 606.080143851 1557.5 680 c 2
 1557.5 967.5 l 1
 1391.5 967.5 l 1
 1391.5 680 l 2
 1391.5 631.369353691 1391.5 631.369353691 1386.83749503 589.684827079 c 0
 1382.17499006 548.000300467 1382.17499006 548.000300467 1370.93321787 507.43063872 c 0
 1359.69144568 466.860976973 1359.69144568 466.860976973 1341.75983193 432.193190383 c 0
 1306.02610319 363.107981485 1306.02610319 363.107981485 1237.05891236 331.803990743 c 0
 1168.09172154 300.5 1168.09172154 300.5 1085 300.5 c 0
 1002.21425382 300.5 1002.21425382 300.5 933.576519965 331.837931091 c 0
 864.93878611 363.175862182 864.93878611 363.175862182 829.240168074 432.193190383 c 0
 779.5 528.357515327 779.5 528.357515327 779.5 680 c 2
 779.5 967.5 l 1
 766 967.5 l 2
 610.701887931 967.5 610.701887931 967.5 513.318418315 1023.63074985 c 0
 448.417299752 1061.03903346 448.417299752 1061.03903346 417.458649876 1127.94006066 c 0
 386.5 1194.84108785 386.5 1194.84108785 386.5 1274 c 0
 386.5 1353.64128795 386.5 1353.64128795 417.29259668 1420.67350533 c 0
 448.08519336 1487.7057227 448.08519336 1487.7057227 513.531935119 1524.77695405 c 0
 565.144266319 1554.01191088 565.144266319 1554.01191088 627.71378936 1566.75595544 c 0
 690.283312401 1579.5 690.283312401 1579.5 766 1579.5 c 2
 779.5 1579.5 l 1
 779.5 1815.5 l 1
 766 1815.5 l 2
 610.701887931 1815.5 610.701887931 1815.5 513.318418315 1871.63074985 c 0
 469.337733305 1896.98072801 469.337733305 1896.98072801 440.113067113 1938.37984123 c 0
 410.88840092 1979.77895444 410.88840092 1979.77895444 398.69420046 2025.31643204 c 0
 386.5 2070.85390964 386.5 2070.85390964 386.5 2122 c 0
 386.5 2201.64128795 386.5 2201.64128795 417.29259668 2268.67350533 c 0
 448.08519336 2335.7057227 448.08519336 2335.7057227 513.531935119 2372.77695405 c 0
 548.510779415 2392.59014557 548.510779415 2392.59014557 589.929640786 2404.97701039 c 0
 631.348502156 2417.36387521 631.348502156 2417.36387521 673.799609361 2422.43193761 c 0
 716.250716566 2427.5 716.250716566 2427.5 766 2427.5 c 2
 779.5 2427.5 l 1
 779.5 2716 l 2
 779.5 2739.91536979 779.5 2739.91536979 780.6417485 2762.02331749 c 0
 781.783497 2784.1312652 781.783497 2784.1312652 784.214797098 2806.02452774 c 0
 786.646097196 2827.91779028 786.646097196 2827.91779028 790.593221862 2848.45402451 c 0
 794.540346528 2868.99025875 794.540346528 2868.99025875 799.993473253 2888.72120721 c 0
 805.446599977 2908.45215568 805.446599977 2908.45215568 812.800135712 2927.34586924 c 0
 820.153671447 2946.2395828 820.153671447 2946.2395828 829.240168074 2963.80680962 c 0
 864.878435936 3032.70746081 864.878435936 3032.70746081 933.609013175 3064.10373041 c 0
 1002.33959041 3095.5 1002.33959041 3095.5 1085 3095.5 c 0
 1124.29517497 3095.5 1124.29517497 3095.5 1160.45090258 3088.61536465 c 0
 1196.60663018 3081.73072931 1196.60663018 3081.73072931 1231.19396298 3066.96447148 c 0
 1265.78129577 3052.19821366 1265.78129577 3052.19821366 1294.51511315 3025.89638299 c 0
 1323.24893053 2999.59455231 1323.24893053 2999.59455231 1341.75983193 2963.80680962 c 0
 1359.69135069 2929.13920667 1359.69135069 2929.13920667 1370.93313331 2888.56944655 c 0
 1382.17491593 2847.99968642 1382.17491593 2847.99968642 1386.83745797 2806.3150298 c 0
 1391.5 2764.63037318 1391.5 2764.63037318 1391.5 2716 c 2
 1391.5 2427.5 l 1
1557.5 1815.5 m 1
 1391.5 1815.5 l 1
 1391.5 1579.5 l 1
 1557.5 1579.5 l 1
 1557.5 1815.5 l 1
EndSplineSet
EndChar

StartChar: dollar
Encoding: 36 36 7
Width: 2949
Flags: W
LayerCount: 2
Fore
SplineSet
1160.5 2599.5 m 1
 1160.5 2982 l 2
 1160.5 3075.12695162 1160.5 3075.12695162 1199.66293581 3146.63530205 c 0
 1238.82587163 3218.14365249 1238.82587163 3218.14365249 1310.33848617 3257.32182625 c 0
 1381.85110072 3296.5 1381.85110072 3296.5 1475 3296.5 c 0
 1615.82490398 3296.5 1615.82490398 3296.5 1702.16245199 3209.74713601 c 0
 1788.5 3122.99427203 1788.5 3122.99427203 1788.5 2982 c 2
 1788.5 2599.5 l 1
 2281 2599.5 l 2
 2410.37393192 2599.5 2410.37393192 2599.5 2499.0840997 2523.79046026 c 0
 2595.5 2441.50447638 2595.5 2441.50447638 2595.5 2286 c 0
 2595.5 2215.07847955 2595.5 2215.07847955 2572.38533953 2153.4889264 c 0
 2549.27067906 2091.89937325 2549.27067906 2091.89937325 2499.90443168 2048.91669233 c 0
 2455.46342272 2010.22236557 2455.46342272 2010.22236557 2399.1133837 1990.86118279 c 0
 2342.76334467 1971.5 2342.76334467 1971.5 2281 1971.5 c 2
 981.5 1971.5 l 1
 981.5 1907.5 l 1
 2281 1907.5 l 2
 2411.35638508 1907.5 2411.35638508 1907.5 2503.42819254 1815.42819254 c 0
 2595.5 1723.35638508 2595.5 1723.35638508 2595.5 1593 c 2
 2595.5 901 l 2
 2595.5 838.653625554 2595.5 838.653625554 2571.24557657 781.394196808 c 0
 2546.99115314 724.134768062 2546.99115314 724.134768062 2502.42819254 679.57180746 c 0
 2457.86521344 635.008828359 2457.86521344 635.008828359 2400.60585528 610.75441418 c 0
 2343.34649713 586.5 2343.34649713 586.5 2281 586.5 c 2
 1788.5 586.5 l 1
 1788.5 205 l 2
 1788.5 64.0263382247 1788.5 64.0263382247 1702.17340904 -22.7368308876 c 0
 1615.84681808 -109.5 1615.84681808 -109.5 1475 -109.5 c 0
 1333.84963945 -109.5 1333.84963945 -109.5 1247.17481973 -22.8374053088 c 0
 1160.5 63.8251893824 1160.5 63.8251893824 1160.5 205 c 2
 1160.5 586.5 l 1
 668 586.5 l 2
 627.728687286 586.5 627.728687286 586.5 589.644782316 594.935204751 c 0
 551.560877347 603.370409502 551.560877347 603.370409502 515.875658415 620.885980581 c 0
 480.190439483 638.40155166 480.190439483 638.40155166 450.392075311 664.159459673 c 0
 400.7152582 707.100437176 400.7152582 707.100437176 377.1076291 768.729406429 c 0
 353.5 830.358375683 353.5 830.358375683 353.5 901 c 0
 353.5 1053.52687352 353.5 1053.52687352 448.693211756 1137.23124938 c 0
 537.704732074 1215.5 537.704732074 1215.5 668 1215.5 c 2
 1967.5 1215.5 l 1
 1967.5 1279.5 l 1
 668 1279.5 l 2
 539.64361492 1279.5 539.64361492 1279.5 446.57180746 1372.57180746 c 0
 353.5 1465.64361492 353.5 1465.64361492 353.5 1593 c 2
 353.5 2286 l 2
 353.5 2412.82718738 353.5 2412.82718738 444.934570984 2505.78566788 c 0
 489.289683176 2550.88003195 489.289683176 2550.88003195 547.076209379 2575.19001597 c 0
 604.862735581 2599.5 604.862735581 2599.5 668 2599.5 c 2
 1160.5 2599.5 l 1
EndSplineSet
EndChar

StartChar: percent
Encoding: 37 37 8
Width: 2949
Flags: W
LayerCount: 2
Fore
SplineSet
2511.94580914 2868.91057594 m 0
 2591.5 2782.86216542 2591.5 2782.86216542 2591.5 2650 c 0
 2591.5 2625.89850915 2591.5 2625.89850915 2588.8131158 2602.84025156 c 0
 2586.1262316 2579.78199396 2586.1262316 2579.78199396 2580.39528791 2556.96089093 c 0
 2574.66434423 2534.13978789 2574.66434423 2534.13978789 2566.04658566 2513.01125102 c 0
 2557.4288271 2491.88271415 2557.4288271 2491.88271415 2545.2196657 2471.64945323 c 0
 2533.01050431 2451.4161923 2533.01050431 2451.4161923 2517.71459735 2433.52483046 c 2
 893.917034382 314.399105605 l 1
 891.382506657 311.091437812 l 1
 888.603923831 307.985962888 l 2
 859.980655549 275.995251278 859.980655549 275.995251278 821.960288346 254.670569527 c 0
 783.939921144 233.345887776 783.939921144 233.345887776 743.558242067 223.922943888 c 0
 703.17656299 214.5 703.17656299 214.5 659 214.5 c 0
 527.64361492 214.5 527.64361492 214.5 438.57180746 303.57180746 c 2
 436.340157321 305.803457599 l 1
 434.240747167 308.159938385 l 2
 357.5 394.297511735 357.5 394.297511735 357.5 524 c 0
 357.5 655.153369576 357.5 655.153369576 431.292403816 741.482952204 c 1
 2055.29117227 2859.87248965 l 2
 2095.62168548 2911.85404001 2095.62168548 2911.85404001 2156.00876708 2936.17702 c 0
 2216.39584868 2960.5 2216.39584868 2960.5 2286 2960.5 c 0
 2328.1392519 2960.5 2328.1392519 2960.5 2368.3703479 2950.23066506 c 0
 2408.6014439 2939.96133011 2408.6014439 2939.96133011 2445.40285049 2919.30672906 c 0
 2482.20425707 2898.65212801 2482.20425707 2898.65212801 2511.94580914 2868.91057594 c 0
2228 -109.5 m 2
 1933 -109.5 l 2
 1883.54485164 -109.5 1883.54485164 -109.5 1845.21501501 -105.674456402 c 0
 1806.88517838 -101.848912804 1806.88517838 -101.848912804 1773.4180365 -92.2868722667 c 0
 1691.56210717 -68.1139882621 1691.56210717 -68.1139882621 1631.73624183 13.1939827973 c 0
 1595.76968663 61.9486465211 1595.76968663 61.9486465211 1580.63484331 124.001535662 c 0
 1565.5 186.054424804 1565.5 186.054424804 1565.5 262 c 2
 1565.5 492 l 2
 1565.5 649.549537326 1565.5 649.549537326 1631.69397665 740.750127372 c 0
 1694.69463796 825.801020149 1694.69463796 825.801020149 1775.99030628 847.723447559 c 0
 1798.24656488 853.725135274 1798.24656488 853.725135274 1823.76332931 857.286199134 c 0
 1849.28009374 860.847262993 1849.28009374 860.847262993 1874.93071866 862.173631497 c 0
 1900.58134357 863.5 1900.58134357 863.5 1933 863.5 c 2
 2228 863.5 l 2
 2326.34928231 863.5 2326.34928231 863.5 2385.21406024 847.802725886 c 0
 2467.92089797 825.747569156 2467.92089797 825.747569156 2529.693995 740.215588665 c 0
 2595.5 649.549537326 2595.5 649.549537326 2595.5 492 c 2
 2595.5 262 l 2
 2595.5 186.528719431 2595.5 186.528719431 2580.28561378 124.378858145 c 0
 2565.07122757 62.2289968599 2565.07122757 62.2289968599 2529.73789439 13.8399570205 c 0
 2470.20087987 -69.0798222196 2470.20087987 -69.0798222196 2387.77929207 -92.3728796402 c 0
 2327.17563541 -109.5 2327.17563541 -109.5 2228 -109.5 c 2
1016 2323.5 m 2
 721 2323.5 l 2
 621.500243712 2323.5 621.500243712 2323.5 561.609408016 2340.80179698 c 0
 481.393549611 2363.97526718 481.393549611 2363.97526718 420.139977688 2445.64669642 c 0
 353.5 2535.98088839 353.5 2535.98088839 353.5 2695 c 2
 353.5 2925 l 2
 353.5 3082.54953733 353.5 3082.54953733 419.693976646 3173.75012737 c 0
 482.694637962 3258.80102015 482.694637962 3258.80102015 563.990306276 3280.72344756 c 0
 596.64054041 3289.52800508 596.64054041 3289.52800508 634.216884276 3293.01400254 c 0
 671.793228141 3296.5 671.793228141 3296.5 721 3296.5 c 2
 1016 3296.5 l 2
 1114.50497842 3296.5 1114.50497842 3296.5 1173.00969372 3280.72344756 c 0
 1217.10444647 3268.83272772 1217.10444647 3268.83272772 1252.48822155 3241.15939558 c 0
 1287.87199663 3213.48606345 1287.87199663 3213.48606345 1317.30602335 3173.75012737 c 0
 1383.5 3082.54953733 1383.5 3082.54953733 1383.5 2925 c 2
 1383.5 2695 l 2
 1383.5 2535.98088839 1383.5 2535.98088839 1316.86002231 2445.64669642 c 0
 1255.60645039 2363.97526718 1255.60645039 2363.97526718 1175.39059198 2340.80179698 c 0
 1141.99181531 2331.15326149 1141.99181531 2331.15326149 1103.78359636 2327.32663075 c 0
 1065.5753774 2323.5 1065.5753774 2323.5 1016 2323.5 c 2
EndSplineSet
EndChar

StartChar: ampersand
Encoding: 38 38 9
Width: 2949
Flags: W
LayerCount: 2
Fore
SplineSet
2451.58304424 634.133231157 m 2
 2374.15671451 566.149136763 l 1
 2384.27992206 555.576008879 l 2
 2436.06160921 503.715252876 2436.06160921 503.715252876 2469.59881246 465.647822747 c 0
 2503.1360157 427.580392617 2503.1360157 427.580392617 2534.44199361 382.614994705 c 0
 2565.74797152 337.649596793 2565.74797152 337.649596793 2580.62398576 293.88147274 c 0
 2595.5 250.113348688 2595.5 250.113348688 2595.5 205 c 0
 2595.5 72.3369338641 2595.5 72.3369338641 2510.4558117 -17.3460283395 c 0
 2467.82116606 -62.3062001082 2467.82116606 -62.3062001082 2410.46219835 -85.9031000541 c 0
 2353.10323064 -109.5 2353.10323064 -109.5 2290 -109.5 c 0
 2153.6232157 -109.5 2153.6232157 -109.5 2038.35158357 14.8491897344 c 2
 1901.14307362 157.309700057 l 1
 1721.34827448 6.08694263549 l 2
 1675.94020032 -31.8567905653 1675.94020032 -31.8567905653 1646.34225816 -52.6652717659 c 0
 1616.74431601 -73.4737529665 1616.74431601 -73.4737529665 1584.91006589 -86.6622280149 c 0
 1566.27901161 -94.3808076477 1566.27901161 -94.3808076477 1547.13034632 -99.1671102239 c 0
 1527.98168104 -103.9534128 1527.98168104 -103.9534128 1505.70622391 -106.1077889 c 0
 1483.43076678 -108.262165001 1483.43076678 -108.262165001 1464.77243629 -108.8810825 c 0
 1446.11410581 -109.5 1446.11410581 -109.5 1417 -109.5 c 2
 1044 -109.5 l 2
 738.133435519 -109.5 738.133435519 -109.5 560.414331477 54.8293085327 c 0
 353.5 248.510746717 353.5 248.510746717 353.5 573 c 2
 353.5 831 l 2
 353.5 902.965742086 353.5 902.965742086 357.719431013 944.064089945 c 0
 361.938862026 985.162437803 361.938862026 985.162437803 378.284290595 1023.47203601 c 0
 395.457240509 1063.72113737 395.457240509 1063.72113737 423.70104928 1094.6652894 c 0
 451.944858051 1125.60944142 451.944858051 1125.60944142 506.043607083 1172.53847673 c 2
 752.001309988 1388.03011976 l 1
 443.814321696 1719.43119288 l 1
 442.001109155 1721.38098507 l 1
 440.284805656 1723.41660085 l 2
 381.71413542 1792.88413996 381.71413542 1792.88413996 366.358361574 1849.18864407 c 0
 360.974516706 1868.92940858 360.974516706 1868.92940858 358.060657764 1891.58657436 c 0
 355.146798822 1914.24374013 355.146798822 1914.24374013 354.323399411 1935.16984991 c 0
 353.5 1956.0959597 353.5 1956.0959597 353.5 1987 c 2
 353.5 2273 l 2
 353.5 2573.97042317 353.5 2573.97042317 544.815067143 2761.66438494 c 0
 735.255227833 2948.5 735.255227833 2948.5 1036 2948.5 c 2
 1491 2948.5 l 2
 1797.92516699 2948.5 1797.92516699 2948.5 1992.41483153 2768.32859297 c 0
 2190.5 2584.82638169 2190.5 2584.82638169 2190.5 2273 c 2
 2190.5 1987 l 2
 2190.5 1941.23836766 2190.5 1941.23836766 2187.24562202 1907.06085267 c 0
 2183.99124403 1872.88333768 2183.99124403 1872.88333768 2175.28687227 1842.4180365 c 0
 2156.95749936 1778.26523133 2156.95749936 1778.26523133 2113.64960495 1732.35886325 c 0
 2084.65581608 1701.62544706 2084.65581608 1701.62544706 2008.09833955 1636.72052319 c 2
 1657.51088291 1334.95917352 l 1
 1945.75214653 1030.92386805 l 1
 1987.51264342 1067.63883048 1987.51264342 1067.63883048 2030.93816815 1104.23337379 c 0
 2043.83996902 1115.10567789 2043.83996902 1115.10567789 2056.69442798 1125.04822031 c 0
 2069.54888694 1134.99076273 2069.54888694 1134.99076273 2082.62588613 1144.19503684 c 0
 2095.70288533 1153.39931094 2095.70288533 1153.39931094 2108.99293222 1161.78152925 c 0
 2122.28297911 1170.16374756 2122.28297911 1170.16374756 2135.63340556 1177.61514837 c 0
 2203.5104314 1215.5 2203.5104314 1215.5 2277 1215.5 c 0
 2302.65362494 1215.5 2302.65362494 1215.5 2327.79969591 1211.41583471 c 0
 2352.94576687 1207.33166943 2352.94576687 1207.33166943 2376.73226425 1199.34520878 c 0
 2400.51876162 1191.35874812 2400.51876162 1191.35874812 2422.78966272 1179.73881712 c 0
 2445.06056382 1168.11888611 2445.06056382 1168.11888611 2465.43718961 1152.86333048 c 0
 2485.8138154 1137.60777484 2485.8138154 1137.60777484 2503.66680261 1119.16944379 c 0
 2595.5 1024.32532189 2595.5 1024.32532189 2595.5 893 c 0
 2595.5 842.688660684 2595.5 842.688660684 2575.44878451 794.253962117 c 0
 2555.39756901 745.81926355 2555.39756901 745.81926355 2524.91637122 708.247204489 c 0
 2494.43517342 670.675145428 2494.43517342 670.675145428 2451.58304424 634.133231157 c 2
1230.67836063 1794.56715469 m 1
 1561.5 2078.33860535 l 1
 1561.5 2171 l 1
 1561.5 2261 l 2
 1561.5 2293.93963054 1561.5 2293.93963054 1556.81266069 2314.11427829 c 1
 1532.55969836 2319.5 1532.55969836 2319.5 1491 2319.5 c 2
 1036 2319.5 l 2
 1019.96449115 2319.5 1019.96449115 2319.5 1006.88299519 2318.33255005 c 0
 993.801499233 2317.1651001 993.801499233 2317.1651001 985.650611813 2315.46314466 c 1
 983.801334211 2307.51920485 983.801334211 2307.51920485 982.650667105 2295.78988701 c 0
 981.5 2284.06056916 981.5 2284.06056916 981.5 2269 c 2
 981.5 2171 l 1
 981.5 2070.16270541 l 1
 1230.67836063 1794.56715469 l 1
1472.08053158 614.96862938 m 1
 1180.37708365 928.45084153 l 1
 981.5 753.48935655 l 1
 981.5 573 l 2
 981.5 544.297617073 981.5 544.297617073 985.03811129 525.535158354 c 1
 1015.49248155 519.5 1015.49248155 519.5 1069 519.5 c 2
 1360.53810236 519.5 l 1
 1472.08053158 614.96862938 l 1
EndSplineSet
EndChar

StartChar: quotesingle
Encoding: 39 39 10
Width: 2949
Flags: W
LayerCount: 2
Fore
SplineSet
992.5 1839 m 2
 992.5 2982 l 2
 992.5 3081.54431261 992.5 3081.54431261 1040.81069718 3153.84073876 c 0
 1089.12139437 3226.13716491 1089.12139437 3226.13716491 1169.44614154 3261.31858245 c 0
 1249.77088871 3296.5 1249.77088871 3296.5 1352 3296.5 c 2
 1597 3296.5 l 2
 1647.43912752 3296.5 1647.43912752 3296.5 1693.54907389 3287.35700127 c 0
 1739.65902027 3278.21400254 1739.65902027 3278.21400254 1779.6767291 3260.63028379 c 0
 1819.69443794 3243.04656504 1819.69443794 3243.04656504 1852.2621625 3216.07251684 c 0
 1884.82988706 3189.09846864 1884.82988706 3189.09846864 1908.02757582 3154.78197188 c 0
 1931.22526459 3120.46547512 1931.22526459 3120.46547512 1943.8626323 3076.42161138 c 0
 1956.5 3032.37774765 1956.5 3032.37774765 1956.5 2982 c 0
 1956.5 2970.39843818 1956.5 2970.39843818 1955.53230567 2958.59670745 c 0
 1954.56461134 2946.79497671 1954.56461134 2946.79497671 1951.80060094 2931.33877732 c 0
 1949.03659054 2915.88257792 1949.03659054 2915.88257792 1946.60860424 2903.88959529 c 0
 1944.18061794 2891.89661266 1944.18061794 2891.89661266 1938.6255674 2869.79636612 c 0
 1933.07051686 2847.69611957 1933.07051686 2847.69611957 1929.33083996 2833.39688754 c 0
 1925.59116306 2819.0976555 1925.59116306 2819.0976555 1917.39367375 2788.2383643 c 0
 1909.19618444 2757.37907309 1909.19618444 2757.37907309 1904.1177872 2737.98418208 c 2
 1667.19468837 1779.29535604 l 2
 1628.36312451 1627.49924277 1628.36312451 1627.49924277 1570.1018581 1553.34854006 c 0
 1541.61079506 1517.0871871 1541.61079506 1517.0871871 1500.21062712 1494.49211516 c 0
 1458.81045918 1471.89704322 1458.81045918 1471.89704322 1417.25377866 1463.69852161 c 0
 1375.69709815 1455.5 1375.69709815 1455.5 1327 1455.5 c 0
 1141.8872716 1455.5 1141.8872716 1455.5 1060.70314913 1571.83601055 c 0
 992.5 1669.57042013 992.5 1669.57042013 992.5 1839 c 2
EndSplineSet
EndChar

StartChar: parenleft
Encoding: 40 40 11
Width: 2949
Flags: W
LayerCount: 2
Fore
SplineSet
1107.1576562 2625.22462526 m 2
 1499.88048468 3107.88397936 l 2
 1536.49773763 3153.37814211 1536.49773763 3153.37814211 1565.76847568 3185.01397987 c 0
 1595.03921372 3216.64981763 1595.03921372 3216.64981763 1622.33181185 3238.88823091 c 0
 1660.00540235 3269.58523058 1660.00540235 3269.58523058 1706.73621466 3283.04261529 c 0
 1753.46702698 3296.5 1753.46702698 3296.5 1806 3296.5 c 0
 1867.97922771 3296.5 1867.97922771 3296.5 1924.01193167 3270.06339954 c 0
 1980.04463563 3243.62679908 1980.04463563 3243.62679908 2021.66430993 3196.38284447 c 0
 2104.5 3102.35314223 2104.5 3102.35314223 2104.5 2982 c 0
 2104.5 2921.19866174 2104.5 2921.19866174 2077.93050184 2864.48672931 c 0
 2051.36100367 2807.77479688 2051.36100367 2807.77479688 2000.31782787 2739.92472173 c 2
 1556.94605271 2157.43629477 l 2
 1535.41632127 2129.47560459 1535.41632127 2129.47560459 1517.31187381 2102.5862007 c 0
 1499.20742635 2075.69679681 1499.20742635 2075.69679681 1491.45311281 2062.38965915 c 0
 1483.69879928 2049.08252149 1483.69879928 2049.08252149 1482.49495096 2045.71612147 c 0
 1481.34383245 2041.98121732 1481.34383245 2041.98121732 1479.39299717 2025.57097526 c 0
 1477.44216189 2009.1607332 1477.44216189 2009.1607332 1475.47108095 1975.39296019 c 0
 1473.5 1941.62518717 1473.5 1941.62518717 1473.5 1905 c 2
 1473.5 1282 l 2
 1473.5 1172.89394968 1473.5 1172.89394968 1481.99715681 1142.78827449 c 0
 1483.55924576 1138.67359256 1483.55924576 1138.67359256 1491.77617045 1124.73080183 c 0
 1499.99309514 1110.78801111 1499.99309514 1110.78801111 1518.03729812 1083.9527103 c 0
 1536.0815011 1057.11740949 1536.0815011 1057.11740949 1557.31793606 1029.07442486 c 2
 1989.16770519 457.950600256 l 2
 2013.92562053 423.447548027 2013.92562053 423.447548027 2027.33950547 403.854588003 c 0
 2040.75339041 384.261627979 2040.75339041 384.261627979 2057.98235361 355.466850373 c 0
 2075.21131681 326.672072767 2075.21131681 326.672072767 2083.68087123 305.417753858 c 0
 2092.15042564 284.163434949 2092.15042564 284.163434949 2098.32521282 257.718681569 c 0
 2104.5 231.27392819 2104.5 231.27392819 2104.5 205 c 0
 2104.5 73.7455227321 2104.5 73.7455227321 2016.75145721 -17.0819162918 c 0
 1995.30700357 -39.2788069096 1995.30700357 -39.2788069096 1969.93602229 -56.6126295817 c 0
 1944.56504101 -73.9464522537 1944.56504101 -73.9464522537 1916.80331797 -85.6325792607 c 0
 1889.04159494 -97.3187062678 1889.04159494 -97.3187062678 1858.96283029 -103.409353134 c 0
 1828.88406563 -109.5 1828.88406563 -109.5 1798 -109.5 c 0
 1693.98571082 -109.5 1693.98571082 -109.5 1626.1489504 -55.9446628259 c 0
 1608.29784177 -41.8516823306 1608.29784177 -41.8516823306 1589.74404374 -23.8862823583 c 0
 1571.19024571 -5.92088238606 1571.19024571 -5.92088238606 1553.03528202 14.2517624033 c 0
 1534.88031832 34.4244071926 1534.88031832 34.4244071926 1512.34373557 61.5447016922 c 2
 1106.89168666 562.102793961 l 2
 959.711209269 743.913971911 959.711209269 743.913971911 902.471955056 896.551983146 c 0
 887.405024921 936.730463506 887.405024921 936.730463506 876.345604187 981.190250393 c 0
 865.286183453 1025.65003728 865.286183453 1025.65003728 858.275472536 1073.96390125 c 0
 851.264761619 1122.27776521 851.264761619 1122.27776521 847.88238081 1173.81847698 c 0
 844.5 1225.35918875 844.5 1225.35918875 844.5 1282 c 2
 844.5 1905 l 2
 844.5 2133.69940329 844.5 2133.69940329 902.865760893 2290.66363404 c 0
 960.715261985 2446.23947678 960.715261985 2446.23947678 1107.1576562 2625.22462526 c 2
EndSplineSet
EndChar

StartChar: parenright
Encoding: 41 41 12
Width: 2949
Flags: W
LayerCount: 2
Fore
SplineSet
1449.11951532 3107.88397936 m 2
 1841.79732125 2625.27995832 l 2
 1915.27126274 2535.71683257 1915.27126274 2535.71683257 1966.58595671 2452.80428943 c 0
 2017.90065068 2369.89174629 2017.90065068 2369.89174629 2047.15158632 2291.11694933 c 0
 2076.66774757 2211.62788141 2076.66774757 2211.62788141 2090.58387378 2115.66748843 c 0
 2104.5 2019.70709545 2104.5 2019.70709545 2104.5 1905 c 2
 2104.5 1282 l 2
 2104.5 1048.16707684 2104.5 1048.16707684 2047.54381956 896.094075071 c 0
 2028.0205551 843.966958953 2028.0205551 843.966958953 1998.05044816 788.93836314 c 0
 1968.08034121 733.909767328 1968.08034121 733.909767328 1929.60430095 678.199647046 c 0
 1891.12826069 622.489526765 1891.12826069 622.489526765 1842.05180561 562.033024137 c 2
 1436.65626443 61.5447016922 l 2
 1369.8718625 -18.8229684313 1369.8718625 -18.8229684313 1322.8510496 -55.9446628259 c 0
 1255.01428918 -109.5 1255.01428918 -109.5 1151 -109.5 c 0
 1088.72082191 -109.5 1088.72082191 -109.5 1031.82681591 -85.3198536686 c 0
 974.932809914 -61.1397073372 974.932809914 -61.1397073372 931.928462328 -16.2492041559 c 0
 844.5 75.0138398536 844.5 75.0138398536 844.5 205 c 0
 844.5 277.270303972 844.5 277.270303972 878.104840972 335.636606713 c 0
 883.275285315 344.61685215 883.275285315 344.61685215 889.535582654 354.6121194 c 0
 895.795879992 364.607386649 895.795879992 364.607386649 902.960333702 375.407965047 c 0
 910.124787412 386.208543444 910.124787412 386.208543444 919.23841597 399.357150472 c 0
 928.352044527 412.5057575 928.352044527 412.5057575 938.259434256 426.448494468 c 0
 948.166823985 440.391231436 948.166823985 440.391231436 960.882710412 458.015003853 c 2
 1391.74180433 1029.15380276 l 2
 1400.18211992 1040.23171699 1400.18211992 1040.23171699 1408.21957774 1051.22123163 c 0
 1416.25703555 1062.21074627 1416.25703555 1062.21074627 1422.81558289 1071.58038831 c 0
 1429.37413023 1080.95003034 1429.37413023 1080.95003034 1435.34268541 1089.77674363 c 0
 1441.3112406 1098.60345693 1441.3112406 1098.60345693 1445.95431228 1105.83398055 c 0
 1450.59738397 1113.06450416 1450.59738397 1113.06450416 1454.44062504 1119.26568907 c 0
 1458.28386611 1125.46687398 1458.28386611 1125.46687398 1460.95505066 1130.09555215 c 0
 1463.6262352 1134.72423031 1463.6262352 1134.72423031 1465.28775067 1137.8371598 c 0
 1466.94926615 1140.95008929 1466.94926615 1140.95008929 1467.56944798 1142.48231416 c 0
 1468.88447449 1147.57455107 1468.88447449 1147.57455107 1470.61253746 1164.44870331 c 0
 1472.34060044 1181.32285555 1472.34060044 1181.32285555 1473.92030022 1213.85015722 c 0
 1475.5 1246.37745889 1475.5 1246.37745889 1475.5 1282 c 2
 1475.5 1905 l 2
 1475.5 2014.62803884 1475.5 2014.62803884 1467.17885718 2045.20201921 c 0
 1466.45083035 2047.08616616 1466.45083035 2047.08616616 1463.84668921 2051.81857545 c 0
 1461.24254807 2056.55098474 1461.24254807 2056.55098474 1456.89452364 2063.85343602 c 0
 1452.54649921 2071.1558873 1452.54649921 2071.1558873 1445.98352123 2081.2904075 c 0
 1439.42054325 2091.42492769 1439.42054325 2091.42492769 1431.64842192 2102.87567416 c 0
 1423.87630059 2114.32642063 1423.87630059 2114.32642063 1413.49214788 2128.67555075 c 0
 1403.10799516 2143.02468087 1403.10799516 2143.02468087 1391.99120043 2157.5187297 c 2
 948.682172131 2739.92472173 l 2
 897.638595117 2807.7753302 897.638595117 2807.7753302 871.069297558 2864.48680965 c 0
 844.5 2921.19828909 844.5 2921.19828909 844.5 2982 c 0
 844.5 3099.8656958 844.5 3099.8656958 926.77337377 3194.73949618 c 0
 968.323517198 3242.65317509 968.323517198 3242.65317509 1024.47260815 3269.57658755 c 0
 1080.62169911 3296.5 1080.62169911 3296.5 1143 3296.5 c 0
 1195.53500518 3296.5 1195.53500518 3296.5 1242.26411936 3283.04317104 c 0
 1288.99323354 3269.58634208 1288.99323354 3269.58634208 1326.66818815 3238.88823091 c 0
 1338.01094556 3229.64598413 1338.01094556 3229.64598413 1349.68082048 3218.77285248 c 0
 1361.35069539 3207.89972083 1361.35069539 3207.89972083 1372.85459357 3196.0148506 c 0
 1384.35849176 3184.12998037 1384.35849176 3184.12998037 1396.99606415 3169.91265911 c 0
 1409.63363655 3155.69533785 1409.63363655 3155.69533785 1422.1488525 3140.76955742 c 0
 1434.66406844 3125.84377699 1434.66406844 3125.84377699 1449.11951532 3107.88397936 c 2
EndSplineSet
EndChar

StartChar: asterisk
Encoding: 42 42 13
Width: 2949
Flags: W
LayerCount: 2
Fore
SplineSet
556.962278921 1214.18672122 m 1
 994.533093599 1588.89754946 l 1
 502.090192656 2009.56063772 l 2
 353.5 2135.18689151 353.5 2135.18689151 353.5 2269 c 0
 353.5 2331.89637934 353.5 2331.89637934 375.611916165 2390.0342569 c 0
 397.723832329 2448.17213447 397.723832329 2448.17213447 439.577913867 2494.71675962 c 0
 483.28320792 2543.32006077 483.28320792 2543.32006077 542.742014839 2569.41003038 c 0
 602.200821758 2595.5 602.200821758 2595.5 668 2595.5 c 0
 731.369311981 2595.5 731.369311981 2595.5 789.818784731 2567.59753112 c 0
 848.26825748 2539.69506224 848.26825748 2539.69506224 903.400359142 2490.16331743 c 2
 1160.5 2269.95952481 l 1
 1160.5 2630 l 2
 1160.5 2770.82490398 1160.5 2770.82490398 1247.25286399 2857.16245199 c 0
 1334.00572797 2943.5 1334.00572797 2943.5 1475 2943.5 c 0
 1615.64766125 2943.5 1615.64766125 2943.5 1702.07383062 2857.0829951 c 0
 1788.5 2770.66599019 1788.5 2770.66599019 1788.5 2630 c 2
 1788.5 2269.95952481 l 1
 2045.59964086 2490.16331743 l 2
 2162.84632204 2595.5 2162.84632204 2595.5 2281 2595.5 c 0
 2299.53321091 2595.5 2299.53321091 2595.5 2317.82114392 2593.3533658 c 0
 2336.10907694 2591.20673159 2336.10907694 2591.20673159 2353.76406661 2586.96323794 c 0
 2371.41905629 2582.71974429 2371.41905629 2582.71974429 2388.42291212 2576.49096133 c 0
 2405.42676794 2570.26217836 2405.42676794 2570.26217836 2421.56823206 2562.00820902 c 0
 2437.70969618 2553.75423969 2437.70969618 2553.75423969 2452.78240997 2543.68230405 c 0
 2467.85512377 2533.6103684 2467.85512377 2533.6103684 2481.8359975 2521.58491947 c 0
 2495.81687122 2509.55947054 2495.81687122 2509.55947054 2508.32313866 2495.87740018 c 0
 2595.5 2400.50442367 2595.5 2400.50442367 2595.5 2269 c 0
 2595.5 2135.18689151 2595.5 2135.18689151 2446.90980734 2009.56063772 c 2
 1954.4669064 1588.89754946 l 1
 2392.03712717 1214.1872298 l 2
 2476.01580998 1146.18971278 2476.01580998 1146.18971278 2524.17792086 1092.98738099 c 0
 2595.5 1014.20136334 2595.5 1014.20136334 2595.5 905 c 0
 2595.5 773.749074892 2595.5 773.749074892 2507.4441318 679.672292631 c 0
 2489.88255209 660.909921141 2489.88255209 660.909921141 2469.558359 645.418282935 c 0
 2449.23416591 629.926644729 2449.23416591 629.926644729 2427.01596429 618.26408985 c 0
 2404.79776267 606.601534971 2404.79776267 606.601534971 2380.91098358 598.597925983 c 0
 2357.02420449 590.594316996 2357.02420449 590.594316996 2331.87431685 586.547158498 c 0
 2306.7244292 582.5 2306.7244292 582.5 2281 582.5 c 0
 2230.74063478 582.5 2230.74063478 582.5 2182.52575326 601.955127634 c 0
 2163.3140935 609.70720087 2163.3140935 609.70720087 2144.90988572 619.331413799 c 0
 2126.50567793 628.955626729 2126.50567793 628.955626729 2109.07619475 640.35182727 c 0
 2100.59684695 645.896016215 2100.59684695 645.896016215 2091.94884066 652.067554513 c 0
 2083.30083437 658.23909281 2083.30083437 658.23909281 2074.55708171 664.978356216 c 0
 2065.81332904 671.717619622 2065.81332904 671.717619622 2057.05904603 678.883745748 c 0
 2048.30476301 686.049871873 2048.30476301 686.049871873 2039.02836169 694.041848394 c 0
 2008.60737726 720.250696521 2008.60737726 720.250696521 1992.77350282 732.565932197 c 2
 1990.62341843 734.238220059 l 1
 1988.55913958 736.015342008 l 1
 1788.5 908.24473251 l 1
 1788.5 557 l 2
 1788.5 416.026338225 1788.5 416.026338225 1702.17340904 329.263169112 c 0
 1615.84681808 242.5 1615.84681808 242.5 1475 242.5 c 0
 1333.84963945 242.5 1333.84963945 242.5 1247.17481973 329.162594691 c 0
 1160.5 415.825189382 1160.5 415.825189382 1160.5 557 c 2
 1160.5 908.24473251 l 1
 959.869817845 735.523735799 l 2
 913.415771141 696.631975768 913.415771141 696.631975768 881.580054005 671.375870638 c 0
 849.744336869 646.119765507 849.744336869 646.119765507 826.064886456 629.634072181 c 0
 758.363219141 582.5 758.363219141 582.5 668 582.5 c 0
 602.901614889 582.5 602.901614889 582.5 543.877548659 608.084482803 c 0
 484.853482428 633.668965606 484.853482428 633.668965606 440.966127105 681.30737694 c 0
 353.5 776.249241404 353.5 776.249241404 353.5 905 c 0
 353.5 1011.55155813 353.5 1011.55155813 424.06554014 1091.14292318 c 0
 449.271816795 1119.57325847 449.271816795 1119.57325847 482.272007316 1149.99848908 c 0
 515.272197838 1180.42371969 515.272197838 1180.42371969 556.962278921 1214.18672122 c 1
EndSplineSet
EndChar

StartChar: plus
Encoding: 43 43 14
Width: 2949
Flags: W
LayerCount: 2
Fore
SplineSet
1160.5 1907.5 m 1
 1160.5 2408 l 2
 1160.5 2501.12695162 1160.5 2501.12695162 1199.66293581 2572.63530205 c 0
 1238.82587163 2644.14365249 1238.82587163 2644.14365249 1310.33848617 2683.32182625 c 0
 1381.85110072 2722.5 1381.85110072 2722.5 1475 2722.5 c 0
 1615.82490398 2722.5 1615.82490398 2722.5 1702.16245199 2635.74713601 c 0
 1788.5 2548.99427203 1788.5 2548.99427203 1788.5 2408 c 2
 1788.5 1907.5 l 1
 2281 1907.5 l 2
 2410.99021078 1907.5 2410.99021078 1907.5 2499.90443168 1830.08330767 c 0
 2595.5 1746.84923525 2595.5 1746.84923525 2595.5 1593 c 0
 2595.5 1558.94698912 2595.5 1558.94698912 2590.13456161 1527.03035877 c 0
 2584.76912322 1495.11372841 2584.76912322 1495.11372841 2573.61789482 1464.55858714 c 0
 2562.46666642 1434.00344587 2562.46666642 1434.00344587 2543.7691801 1406.41650649 c 0
 2525.07169379 1378.8295671 2525.07169379 1378.8295671 2499.90443168 1356.91669233 c 0
 2455.46342272 1318.22236557 2455.46342272 1318.22236557 2399.1133837 1298.86118279 c 0
 2342.76334467 1279.5 2342.76334467 1279.5 2281 1279.5 c 2
 1788.5 1279.5 l 1
 1788.5 786 l 2
 1788.5 645.35233875 1788.5 645.35233875 1702.0829951 558.926169375 c 0
 1615.66599019 472.5 1615.66599019 472.5 1475 472.5 c 0
 1382.02661886 472.5 1382.02661886 472.5 1310.5417449 511.453257714 c 0
 1239.05687094 550.406515428 1239.05687094 550.406515428 1199.77843547 621.720123368 c 0
 1160.5 693.033731308 1160.5 693.033731308 1160.5 786 c 2
 1160.5 1279.5 l 1
 668 1279.5 l 2
 637.548001036 1279.5 637.548001036 1279.5 608.214623018 1284.28149933 c 0
 578.881245 1289.06299866 578.881245 1289.06299866 551.001351094 1298.60491028 c 0
 523.121457189 1308.1468219 523.121457189 1308.1468219 497.114100431 1323.10356102 c 0
 471.106743674 1338.06030015 471.106743674 1338.06030015 448.693211756 1357.76875062 c 0
 399.857701842 1400.71031969 399.857701842 1400.71031969 376.678850921 1461.86328389 c 0
 353.5 1523.01624808 353.5 1523.01624808 353.5 1593 c 0
 353.5 1745.52687352 353.5 1745.52687352 448.693211756 1829.23124938 c 0
 537.704732074 1907.5 537.704732074 1907.5 668 1907.5 c 2
 1160.5 1907.5 l 1
EndSplineSet
EndChar

StartChar: comma
Encoding: 44 44 15
Width: 2949
Flags: W
LayerCount: 2
Fore
SplineSet
1561.5 930.5 m 1
 1073 930.5 l 2
 946.493313654 930.5 946.493313654 930.5 856.238344607 1007.86140204 c 0
 758.5 1091.63712599 758.5 1091.63712599 758.5 1245 c 0
 758.5 1290.9599248 758.5 1290.9599248 767.892515192 1332.41247151 c 0
 777.285030383 1373.86501822 777.285030383 1373.86501822 799.243227573 1413.16775573 c 0
 821.201424762 1452.47049324 821.201424762 1452.47049324 854.543695553 1481.53811392 c 0
 943.970564874 1559.5 943.970564874 1559.5 1073 1559.5 c 2
 1835 1559.5 l 2
 1997.19779677 1559.5 1997.19779677 1559.5 2089.77578465 1472.99269986 c 0
 2159.76154253 1407.57123053 2159.76154253 1407.57123053 2177.45308124 1334.15134488 c 0
 2190.5 1280.00663203 2190.5 1280.00663203 2190.5 1188 c 2
 2190.5 205 l 2
 2190.5 149.149121733 2190.5 149.149121733 2175.97190748 100.136519245 c 0
 2161.44381496 51.1239167574 2161.44381496 51.1239167574 2133.90327345 12.8919557184 c 0
 2106.36273195 -25.3400053206 2106.36273195 -25.3400053206 2068.1351908 -52.8856542799 c 0
 2029.90764966 -80.4313032391 2029.90764966 -80.4313032391 1980.88706869 -94.9656516196 c 0
 1931.86648772 -109.5 1931.86648772 -109.5 1876 -109.5 c 0
 1734.84963945 -109.5 1734.84963945 -109.5 1648.17481973 -22.8374053088 c 0
 1561.5 63.8251893824 1561.5 63.8251893824 1561.5 205 c 2
 1561.5 930.5 l 1
EndSplineSet
EndChar

StartChar: hyphen
Encoding: 45 45 16
Width: 2949
Flags: W
LayerCount: 2
Fore
SplineSet
995 1948.5 m 2
 1954 1948.5 l 2
 2007.30314253 1948.5 2007.30314253 1948.5 2052.09567561 1940.94615258 c 0
 2096.8882087 1933.39230516 2096.8882087 1933.39230516 2141.04295737 1913.33941447 c 0
 2185.19770604 1893.28652378 2185.19770604 1893.28652378 2218.40729312 1860.93580533 c 0
 2268.51847003 1812.12060714 2268.51847003 1812.12060714 2289.00923501 1743.56174348 c 0
 2309.5 1675.00287983 2309.5 1675.00287983 2309.5 1589 c 0
 2309.5 1504.11768949 2309.5 1504.11768949 2288.76386722 1435.72201278 c 0
 2268.02773444 1367.32633607 2268.02773444 1367.32633607 2218.25785599 1318.40722477 c 0
 2169.52876284 1270.51110757 2169.52876284 1270.51110757 2102.55081085 1250.00555378 c 0
 2035.57285886 1229.5 2035.57285886 1229.5 1954 1229.5 c 2
 995 1229.5 l 2
 823.467267877 1229.5 823.467267877 1229.5 732.575071556 1318.08137777 c 0
 640.5 1407.81555768 640.5 1407.81555768 640.5 1589 c 0
 640.5 1644.42726899 640.5 1644.42726899 648.073971738 1690.21873438 c 0
 655.647943476 1736.01019977 655.647943476 1736.01019977 676.464392338 1781.36360617 c 0
 697.2808412 1826.71701256 697.2808412 1826.71701256 731.247997813 1860.09852854 c 0
 779.842136158 1907.85483691 779.842136158 1907.85483691 846.635187258 1928.17741846 c 0
 913.428238358 1948.5 913.428238358 1948.5 995 1948.5 c 2
EndSplineSet
EndChar

StartChar: period
Encoding: 46 46 17
Width: 2949
Flags: W
LayerCount: 2
Fore
SplineSet
1622 414.5 m 2
 1327 414.5 l 2
 1227.50024371 414.5 1227.50024371 414.5 1167.60940802 431.801796979 c 0
 1087.39354961 454.975267185 1087.39354961 454.975267185 1025.88541016 536.986119786 c 0
 959.5 628.450462674 959.5 628.450462674 959.5 786 c 2
 959.5 1016 l 2
 959.5 1175.01911161 959.5 1175.01911161 1025.9465127 1265.09105104 c 0
 1088.69463796 1349.80102015 1088.69463796 1349.80102015 1169.99030628 1371.72344756 c 0
 1202.64054041 1380.52800508 1202.64054041 1380.52800508 1240.21688428 1384.01400254 c 0
 1277.79322814 1387.5 1277.79322814 1387.5 1327 1387.5 c 2
 1622 1387.5 l 2
 1720.34928231 1387.5 1720.34928231 1387.5 1779.21406024 1371.80272589 c 0
 1861.28292309 1349.91769579 1861.28292309 1349.91769579 1923.70092143 1264.21067749 c 0
 1989.5 1174.09876479 1989.5 1174.09876479 1989.5 1016 c 2
 1989.5 786 l 2
 1989.5 629.361100987 1989.5 629.361100987 1924.93977083 539.513862399 c 0
 1864.20087987 454.92017778 1864.20087987 454.92017778 1781.77929207 431.62712036 c 0
 1721.17563541 414.5 1721.17563541 414.5 1622 414.5 c 2
EndSplineSet
EndChar

StartChar: slash
Encoding: 47 47 18
Width: 2949
Flags: W
LayerCount: 2
Fore
SplineSet
2536.13852339 2779.77504201 m 2
 962.907192156 88.3792935391 l 2
 911.062153554 -2.66497714172 911.062153554 -2.66497714172 836.099493952 -56.0824885709 c 0
 761.13683435 -109.5 761.13683435 -109.5 668 -109.5 c 0
 628.374250181 -109.5 628.374250181 -109.5 589.860375793 -99.1686190669 c 0
 551.346501404 -88.8372381338 551.346501404 -88.8372381338 517.106165649 -69.7737977129 c 0
 482.865829894 -50.7103572919 482.865829894 -50.7103572919 453.001527291 -23.667878557 c 0
 406.138027648 18.7675738759 406.138027648 18.7675738759 379.819013824 74.93463936 c 0
 353.5 131.101704844 353.5 131.101704844 353.5 193 c 0
 353.5 253.576898136 353.5 253.576898136 379.672009498 314.978243177 c 0
 405.844018997 376.379588218 405.844018997 376.379588218 459.166552073 462.459552607 c 2
 1990.76278121 3086.76771284 l 2
 2047.4732542 3181.28516783 2047.4732542 3181.28516783 2101.53499103 3230.19816781 c 0
 2174.81596344 3296.5 2174.81596344 3296.5 2286 3296.5 c 0
 2410.70661084 3296.5 2410.70661084 3296.5 2501.90052781 3209.90409565 c 0
 2546.66574959 3167.39594388 2546.66574959 3167.39594388 2571.08287479 3111.38962803 c 0
 2595.5 3055.38331218 2595.5 3055.38331218 2595.5 2994 c 0
 2595.5 2957.6084965 2595.5 2957.6084965 2588.40606109 2920.68032544 c 0
 2581.31212218 2883.75215439 2581.31212218 2883.75215439 2568.22743715 2848.86740405 c 0
 2555.14275211 2813.98265371 2555.14275211 2813.98265371 2536.13852339 2779.77504201 c 2
EndSplineSet
EndChar

StartChar: zero
Encoding: 48 48 19
Width: 2949
Flags: W
LayerCount: 2
Fore
SplineSet
872 3296.5 m 2
 2077 3296.5 l 2
 2292.62387981 3296.5 2292.62387981 3296.5 2444.2501351 3143.60490576 c 0
 2595.5 2991.08935161 2595.5 2991.08935161 2595.5 2777 c 2
 2595.5 410 l 2
 2595.5 304.214954058 2595.5 304.214954058 2557.73562166 210.290675129 c 0
 2519.97124331 116.366396199 2519.97124331 116.366396199 2447.08155987 42.2307352583 c 0
 2410.4088058 4.93109650579 2410.4088058 4.93109650579 2367.86858439 -23.6210881561 c 0
 2325.32836297 -52.1732728179 2325.32836297 -52.1732728179 2278.6164574 -71.1555958252 c 0
 2231.90455182 -90.1379188326 2231.90455182 -90.1379188326 2181.18045734 -99.8189594163 c 0
 2130.45636285 -109.5 2130.45636285 -109.5 2077 -109.5 c 2
 872 -109.5 l 2
 651.099079002 -109.5 651.099079002 -109.5 501.918440135 42.2307352583 c 0
 353.5 193.186242746 353.5 193.186242746 353.5 410 c 2
 353.5 2777 l 2
 353.5 2881.80256215 353.5 2881.80256215 392.138138126 2975.40742671 c 0
 430.776276252 3069.01229126 430.776276252 3069.01229126 504.749864903 3143.60490576 c 0
 578.917665823 3218.39335773 578.917665823 3218.39335773 672.742721717 3257.44667887 c 0
 766.567777612 3296.5 766.567777612 3296.5 872 3296.5 c 2
981.5 519.5 m 1
 1967.5 519.5 l 1
 1967.5 2667.5 l 1
 981.5 2667.5 l 1
 981.5 519.5 l 1
EndSplineSet
EndChar

StartChar: one
Encoding: 49 49 20
Width: 2949
Flags: W
LayerCount: 2
Fore
SplineSet
1788.5 519.5 m 1
 1967.5 519.5 l 1
 1967.5 1237 l 2
 1967.5 1377.97366178 1967.5 1377.97366178 2053.82659096 1464.73683089 c 0
 2140.15318192 1551.5 2140.15318192 1551.5 2281 1551.5 c 0
 2374.12695162 1551.5 2374.12695162 1551.5 2445.63530205 1512.33706419 c 0
 2517.14365249 1473.17412837 2517.14365249 1473.17412837 2556.32182625 1401.66151383 c 0
 2595.5 1330.14889928 2595.5 1330.14889928 2595.5 1237 c 2
 2595.5 205 l 2
 2595.5 170.762107523 2595.5 170.762107523 2590.17089926 138.743844788 c 0
 2584.84179852 106.725582053 2584.84179852 106.725582053 2573.72332897 76.0216143213 c 0
 2562.60485942 45.3176465898 2562.60485942 45.3176465898 2543.88284782 17.6124145439 c 0
 2525.16083622 -10.092817502 2525.16083622 -10.092817502 2499.90443168 -32.0833076677 c 0
 2455.46342272 -70.7776344295 2455.46342272 -70.7776344295 2399.1133837 -90.1388172147 c 0
 2342.76334467 -109.5 2342.76334467 -109.5 2281 -109.5 c 2
 668 -109.5 l 2
 606.093723701 -109.5 606.093723701 -109.5 549.609922993 -89.9007836277 c 0
 493.126122286 -70.3015672554 493.126122286 -70.3015672554 448.693211756 -31.2312493754 c 0
 399.723098179 11.8286780804 399.723098179 11.8286780804 376.611549089 73.2054022579 c 0
 353.5 134.582126435 353.5 134.582126435 353.5 205 c 0
 353.5 232.074777405 353.5 232.074777405 356.789749245 257.739673041 c 0
 360.07949849 283.404568676 360.07949849 283.404568676 367.350778118 308.993376716 c 0
 374.622057746 334.582184756 374.622057746 334.582184756 385.590726393 357.555883218 c 0
 396.55939504 380.529581679 396.55939504 380.529581679 412.568991014 402.036916707 c 0
 428.578586989 423.544251736 428.578586989 423.544251736 448.693211756 441.231249375 c 0
 537.704732074 519.5 537.704732074 519.5 668 519.5 c 2
 1160.5 519.5 l 1
 1160.5 2667.5 l 1
 668 2667.5 l 2
 606.093723701 2667.5 606.093723701 2667.5 549.609922993 2687.09921637 c 0
 493.126122286 2706.69843274 493.126122286 2706.69843274 448.693211756 2745.76875062 c 0
 399.723098179 2788.82867808 399.723098179 2788.82867808 376.611549089 2850.20540226 c 0
 353.5 2911.58212644 353.5 2911.58212644 353.5 2982 c 0
 353.5 3134.52687352 353.5 3134.52687352 448.693211756 3218.23124938 c 0
 537.704732074 3296.5 537.704732074 3296.5 668 3296.5 c 2
 1679 3296.5 l 1
 1788.5 3296.5 l 1
 1788.5 3187 l 1
 1788.5 519.5 l 1
EndSplineSet
EndChar

StartChar: two
Encoding: 50 50 21
Width: 2949
Flags: W
LayerCount: 2
Fore
SplineSet
981.5 1279.5 m 1
 981.5 519.5 l 1
 2281 519.5 l 2
 2410.99021078 519.5 2410.99021078 519.5 2499.90443168 442.083307668 c 0
 2595.5 358.849235248 2595.5 358.849235248 2595.5 205 c 0
 2595.5 170.762107523 2595.5 170.762107523 2590.17089926 138.743844788 c 0
 2584.84179852 106.725582053 2584.84179852 106.725582053 2573.72332897 76.0216143213 c 0
 2562.60485942 45.3176465898 2562.60485942 45.3176465898 2543.88284782 17.6124145439 c 0
 2525.16083622 -10.092817502 2525.16083622 -10.092817502 2499.90443168 -32.0833076677 c 0
 2455.46342272 -70.7776344295 2455.46342272 -70.7776344295 2399.1133837 -90.1388172147 c 0
 2342.76334467 -109.5 2342.76334467 -109.5 2281 -109.5 c 2
 463 -109.5 l 1
 353.5 -109.5 l 1
 353.5 0 l 1
 353.5 1335 l 2
 353.5 1605.13939952 353.5 1605.13939952 504.680264192 1756.31969976 c 0
 655.860528384 1907.5 655.860528384 1907.5 926 1907.5 c 2
 1967.5 1907.5 l 1
 1967.5 2667.5 l 1
 668 2667.5 l 2
 606.093723701 2667.5 606.093723701 2667.5 549.609922993 2687.09921637 c 0
 493.126122286 2706.69843274 493.126122286 2706.69843274 448.693211756 2745.76875062 c 0
 399.723098179 2788.82867808 399.723098179 2788.82867808 376.611549089 2850.20540226 c 0
 353.5 2911.58212644 353.5 2911.58212644 353.5 2982 c 0
 353.5 3134.52687352 353.5 3134.52687352 448.693211756 3218.23124938 c 0
 537.704732074 3296.5 537.704732074 3296.5 668 3296.5 c 2
 2028 3296.5 l 2
 2043.24191408 3296.5 2043.24191408 3296.5 2057.83733905 3296.09232239 c 0
 2072.43276401 3295.68464479 2072.43276401 3295.68464479 2086.84166618 3294.84720707 c 0
 2101.25056835 3294.00976935 2101.25056835 3294.00976935 2115.12093031 3292.71077068 c 0
 2128.99129226 3291.411772 2128.99129226 3291.411772 2142.57689721 3289.6506053 c 0
 2156.16250215 3287.88943859 2156.16250215 3287.88943859 2169.33126132 3285.61139589 c 0
 2182.50002048 3283.3333532 2182.50002048 3283.3333532 2195.28578844 3280.56073454 c 0
 2208.07155639 3277.78811589 2208.07155639 3277.78811589 2220.56217299 3274.44330621 c 0
 2233.05278959 3271.09849653 2233.05278959 3271.09849653 2245.07592632 3267.22527127 c 0
 2278.69764625 3256.39411317 2278.69764625 3256.39411317 2311.38122531 3239.42320517 c 0
 2344.06480438 3222.45229717 2344.06480438 3222.45229717 2373.93280695 3200.98123902 c 0
 2403.80080953 3179.51018087 2403.80080953 3179.51018087 2433.15692394 3152.56689778 c 0
 2533.32518851 3060.10388433 2533.32518851 3060.10388433 2566.41712751 2949.34719054 c 0
 2595.5 2852.0085969 2595.5 2852.0085969 2595.5 2707 c 2
 2595.5 1868 l 2
 2595.5 1725.08439909 2595.5 1725.08439909 2566.46911947 1627.3273524 c 0
 2549.62453269 1570.6057847 2549.62453269 1570.6057847 2515.90788273 1519.46247604 c 0
 2482.19123277 1468.31916738 2482.19123277 1468.31916738 2433.68823713 1422.92533813 c 0
 2390.06721378 1382.37621783 2390.06721378 1382.37621783 2343.14235482 1353.54456395 c 0
 2296.21749586 1324.71291007 2296.21749586 1324.71291007 2245.67227398 1308.64555477 c 0
 2198.20312427 1293.55602374 2198.20312427 1293.55602374 2144.14264379 1286.52801187 c 0
 2090.08216332 1279.5 2090.08216332 1279.5 2028 1279.5 c 2
 981.5 1279.5 l 1
EndSplineSet
EndChar

StartChar: three
Encoding: 51 51 22
Width: 2949
Flags: W
LayerCount: 2
Fore
SplineSet
1967.5 2667.5 m 1
 668 2667.5 l 2
 606.093723701 2667.5 606.093723701 2667.5 549.609922993 2687.09921637 c 0
 493.126122286 2706.69843274 493.126122286 2706.69843274 448.693211756 2745.76875062 c 0
 399.723098179 2788.82867808 399.723098179 2788.82867808 376.611549089 2850.20540226 c 0
 353.5 2911.58212644 353.5 2911.58212644 353.5 2982 c 0
 353.5 3134.52687352 353.5 3134.52687352 448.693211756 3218.23124938 c 0
 537.704732074 3296.5 537.704732074 3296.5 668 3296.5 c 2
 2077 3296.5 l 2
 2103.62180547 3296.5 2103.62180547 3296.5 2129.62371307 3294.12829069 c 0
 2155.62562067 3291.75658137 2155.62562067 3291.75658137 2180.80318651 3287.05665689 c 0
 2205.98075235 3282.35673241 2205.98075235 3282.35673241 2230.3590761 3275.28737722 c 0
 2254.73739985 3268.21802203 2254.73739985 3268.21802203 2278.0607943 3258.88786401 c 0
 2301.38418874 3249.557706 2301.38418874 3249.557706 2323.7324131 3237.85605362 c 0
 2346.08063745 3226.15440124 2346.08063745 3226.15440124 2367.14334496 3212.25935838 c 0
 2388.20605247 3198.36431553 2388.20605247 3198.36431553 2408.11766188 3182.09571466 c 0
 2428.02927129 3165.82711379 2428.02927129 3165.82711379 2446.42819254 3147.42819254 c 0
 2519.88752725 3073.96885783 2519.88752725 3073.96885783 2557.69376363 2979.29663748 c 0
 2595.5 2884.62441713 2595.5 2884.62441713 2595.5 2777 c 2
 2595.5 1991 l 2
 2595.5 1839.1438633 2595.5 1839.1438633 2554.02804494 1728.55198315 c 0
 2545.2015801 1705.01474357 2545.2015801 1705.01474357 2533.15090514 1681.35852413 c 0
 2521.10023018 1657.70230469 2521.10023018 1657.70230469 2507.07657335 1635.86239448 c 0
 2493.05291652 1614.02248427 2493.05291652 1614.02248427 2477.05382817 1593.6067355 c 1
 2527.65458239 1529.65996988 2527.65458239 1529.65996988 2554.09625501 1458.76563025 c 0
 2575.38082656 1401.69830073 2575.38082656 1401.69830073 2585.44041328 1336.21421912 c 0
 2595.5 1270.73013751 2595.5 1270.73013751 2595.5 1196 c 2
 2595.5 410 l 2
 2595.5 190.916324898 2595.5 190.916324898 2446.75697021 40.9019871627 c 0
 2297.62957616 -109.5 2297.62957616 -109.5 2077 -109.5 c 2
 668 -109.5 l 2
 606.093723701 -109.5 606.093723701 -109.5 549.609922993 -89.9007836277 c 0
 493.126122286 -70.3015672554 493.126122286 -70.3015672554 448.693211756 -31.2312493754 c 0
 399.723098179 11.8286780804 399.723098179 11.8286780804 376.611549089 73.2054022579 c 0
 353.5 134.582126435 353.5 134.582126435 353.5 205 c 0
 353.5 232.074777405 353.5 232.074777405 356.789749245 257.739673041 c 0
 360.07949849 283.404568676 360.07949849 283.404568676 367.350778118 308.993376716 c 0
 374.622057746 334.582184756 374.622057746 334.582184756 385.590726393 357.555883218 c 0
 396.55939504 380.529581679 396.55939504 380.529581679 412.568991014 402.036916707 c 0
 428.578586989 423.544251736 428.578586989 423.544251736 448.693211756 441.231249375 c 0
 537.704732074 519.5 537.704732074 519.5 668 519.5 c 2
 1967.5 519.5 l 1
 1967.5 1090 l 2
 1967.5 1142.32036796 1967.5 1142.32036796 1962.33654782 1178.56401132 c 0
 1957.17309564 1214.80765468 1957.17309564 1214.80765468 1949.66266792 1234.41252806 c 0
 1942.15224019 1254.01740145 1942.15224019 1254.01740145 1928.36336159 1264.40912433 c 0
 1914.57448298 1274.80084722 1914.57448298 1274.80084722 1902.84747185 1277.15042361 c 0
 1891.12046072 1279.5 1891.12046072 1279.5 1872 1279.5 c 2
 1069 1279.5 l 2
 1007.55432937 1279.5 1007.55432937 1279.5 951.293170765 1299.0885999 c 0
 895.032012156 1318.67719981 895.032012156 1318.67719981 850.543695553 1357.46188608 c 0
 801.354526479 1400.34475142 801.354526479 1400.34475142 777.927263239 1461.62365086 c 0
 754.5 1522.90255029 754.5 1522.90255029 754.5 1593 c 0
 754.5 1638.9599248 754.5 1638.9599248 763.892515192 1680.41247151 c 0
 773.285030383 1721.86501822 773.285030383 1721.86501822 795.243227573 1761.16775573 c 0
 817.201424762 1800.47049324 817.201424762 1800.47049324 850.543695553 1829.53811392 c 0
 939.970564874 1907.5 939.970564874 1907.5 1069 1907.5 c 2
 1872 1907.5 l 2
 1891.12180877 1907.5 1891.12180877 1907.5 1902.84890873 1909.84944885 c 0
 1914.5760087 1912.1988977 1914.5760087 1912.1988977 1928.36489883 1922.59035959 c 0
 1942.15378896 1932.98182149 1942.15378896 1932.98182149 1949.6637549 1952.58678123 c 0
 1957.17372084 1972.19174098 1957.17372084 1972.19174098 1962.33686042 2008.4353117 c 0
 1967.5 2044.67888243 1967.5 2044.67888243 1967.5 2097 c 2
 1967.5 2667.5 l 1
EndSplineSet
EndChar

StartChar: four
Encoding: 52 52 23
Width: 2949
Flags: W
LayerCount: 2
Fore
SplineSet
1186.5 1559.5 m 1
 1762.5 1559.5 l 1
 1762.5 2634 l 2
 1762.5 2760.54111584 1762.5 2760.54111584 1836.76285857 2849.95965983 c 0
 1918.60144617 2948.5 1918.60144617 2948.5 2077 2948.5 c 0
 2104.88975454 2948.5 2104.88975454 2948.5 2131.03800008 2945.25530061 c 0
 2157.18624562 2942.01060122 2157.18624562 2942.01060122 2183.60533445 2934.58016794 c 0
 2210.02442328 2927.14973467 2210.02442328 2927.14973467 2233.39473965 2915.82392685 c 0
 2256.76505601 2904.49811904 2256.76505601 2904.49811904 2278.60885892 2887.54878848 c 0
 2300.45266184 2870.59945793 2300.45266184 2870.59945793 2317.94042882 2849.10407768 c 0
 2354.18844534 2804.54922404 2354.18844534 2804.54922404 2372.34422267 2749.33317765 c 0
 2390.5 2694.11713126 2390.5 2694.11713126 2390.5 2634 c 2
 2390.5 1543.35329792 l 1
 2405.875756 1538.45620338 2405.875756 1538.45620338 2420.41242513 1532.17228342 c 0
 2434.94909426 1525.88836346 2434.94909426 1525.88836346 2448.62849019 1518.22694348 c 0
 2462.30788612 1510.5655235 2462.30788612 1510.5655235 2475.13047715 1501.52737986 c 0
 2487.95306819 1492.48923622 2487.95306819 1492.48923622 2499.90443168 1482.08330767 c 0
 2595.5 1398.84923525 2595.5 1398.84923525 2595.5 1245 c 0
 2595.5 1198.67942 2595.5 1198.67942 2586.04555664 1157.01288377 c 0
 2576.59111328 1115.34634754 2576.59111328 1115.34634754 2554.33060508 1075.82272412 c 0
 2532.07009687 1036.29910071 2532.07009687 1036.29910071 2498.20358035 1007.3116586 c 0
 2474.96322754 987.419492207 2474.96322754 987.419492207 2446.89384878 971.807481518 c 0
 2418.82447002 956.195470829 2418.82447002 956.195470829 2390.5 947.036244077 c 1
 2390.5 205 l 2
 2390.5 64.0263382247 2390.5 64.0263382247 2304.17340904 -22.7368308876 c 0
 2217.84681808 -109.5 2217.84681808 -109.5 2077 -109.5 c 0
 1935.84963945 -109.5 1935.84963945 -109.5 1849.17481973 -22.8374053088 c 0
 1762.5 63.8251893824 1762.5 63.8251893824 1762.5 205 c 2
 1762.5 930.5 l 1
 668 930.5 l 1
 558.5 930.5 l 1
 558.5 1040 l 1
 558.5 2982 l 2
 558.5 3011.77137586 558.5 3011.77137586 563.064774878 3040.54113186 c 0
 567.629549756 3069.31088786 567.629549756 3069.31088786 576.718979427 3096.71115254 c 0
 585.808409098 3124.11141723 585.808409098 3124.11141723 599.965264709 3149.81305326 c 0
 614.122120321 3175.51468929 614.122120321 3175.51468929 632.76285857 3197.95965983 c 0
 675.242785493 3249.1089596 675.242785493 3249.1089596 737.519000852 3272.8044798 c 0
 799.795216211 3296.5 799.795216211 3296.5 872 3296.5 c 0
 1030.39855383 3296.5 1030.39855383 3296.5 1112.23714143 3197.95965983 c 0
 1186.5 3108.54111584 1186.5 3108.54111584 1186.5 2982 c 2
 1186.5 1559.5 l 1
EndSplineSet
EndChar

StartChar: five
Encoding: 53 53 24
Width: 2949
Flags: W
LayerCount: 2
Fore
SplineSet
1387.5 2667.5 m 1
 1387.5 1907.5 l 1
 2032 1907.5 l 2
 2282.8350775 1907.5 2282.8350775 1907.5 2433.89861604 1762.89167039 c 0
 2533.95531297 1670.94711932 2533.95531297 1670.94711932 2566.47904039 1567.27773816 c 0
 2595.5 1474.77342941 2595.5 1474.77342941 2595.5 1335 c 2
 2595.5 459 l 2
 2595.5 341.530498672 2595.5 341.530498672 2565.25572301 242.75708883 c 0
 2535.01144603 143.983678988 2535.01144603 143.983678988 2471.99137432 68.7454301087 c 0
 2428.21423333 16.3361768145 2428.21423333 16.3361768145 2378.28467143 -20.6998488934 c 0
 2328.35510953 -57.7358746014 2328.35510953 -57.7358746014 2272.01576154 -76.7504045491 c 0
 2237.80315673 -88.2971586722 2237.80315673 -88.2971586722 2198.96343602 -95.6524063689 c 0
 2160.12371532 -103.007654066 2160.12371532 -103.007654066 2119.3817789 -106.253827033 c 0
 2078.63984247 -109.5 2078.63984247 -109.5 2032 -109.5 c 2
 1122 -109.5 l 2
 1092.91588775 -109.5 1092.91588775 -109.5 1067.61937871 -107.613271545 c 0
 1042.32286966 -105.726543089 1042.32286966 -105.726543089 1016.95258778 -101.171582231 c 0
 991.582305899 -96.6166213718 991.582305899 -96.6166213718 968.70760097 -89.3161836284 c 0
 916.759897626 -72.73712937 916.759897626 -72.73712937 808.343458774 -26.4233108311 c 2
 651.401512184 42.9933193913 l 2
 511.01804108 106.11146919 511.01804108 106.11146919 449.3 152.4 c 0
 398.795629318 190.278278011 398.795629318 190.278278011 376.147814659 248.258452034 c 0
 353.5 306.238626057 353.5 306.238626057 353.5 373 c 0
 353.5 433.16693396 353.5 433.16693396 376.684916335 488.974270733 c 0
 399.869832671 544.781607507 399.869832671 544.781607507 442.076124935 589.849343315 c 0
 485.193712623 635.890157286 485.193712623 635.890157286 541.316185865 661.695078643 c 0
 597.438659106 687.5 597.438659106 687.5 659 687.5 c 0
 701.189596696 687.5 701.189596696 687.5 744.343794245 676.698822261 c 0
 787.497991793 665.897644522 787.497991793 665.897644522 834.63040557 645.43225433 c 2
 954.88094205 593.192267171 l 2
 959.373433086 591.306106812 959.373433086 591.306106812 963.535266357 589.434744543 c 0
 967.697099628 587.563382274 967.697099628 587.563382274 973.703201372 584.67092384 c 0
 979.709303117 581.778465406 979.709303117 581.778465406 984.373649746 579.486246107 c 0
 989.037996375 577.194026808 989.037996375 577.194026808 999.556407944 572.001174105 c 0
 1010.07481951 566.808321402 1010.07481951 566.808321402 1018.24037862 562.801148879 c 0
 1042.87301834 550.712909014 1042.87301834 550.712909014 1063.58262198 541.597518527 c 0
 1084.29222562 532.48212804 1084.29222562 532.48212804 1099.85473679 526.748571291 c 0
 1119.5294303 519.5 1119.5294303 519.5 1130 519.5 c 2
 1967.5 519.5 l 1
 1967.5 1279.5 l 1
 868 1279.5 l 1
 758.5 1279.5 l 1
 758.5 1389 l 1
 758.5 3187 l 1
 758.5 3296.5 l 1
 868 3296.5 l 1
 2281 3296.5 l 2
 2410.99021078 3296.5 2410.99021078 3296.5 2499.90443168 3219.08330767 c 0
 2595.5 3135.84923525 2595.5 3135.84923525 2595.5 2982 c 0
 2595.5 2911.07847955 2595.5 2911.07847955 2572.38533953 2849.4889264 c 0
 2549.27067906 2787.89937325 2549.27067906 2787.89937325 2499.90443168 2744.91669233 c 0
 2455.46342272 2706.22236557 2455.46342272 2706.22236557 2399.1133837 2686.86118279 c 0
 2342.76334467 2667.5 2342.76334467 2667.5 2281 2667.5 c 2
 1387.5 2667.5 l 1
EndSplineSet
EndChar

StartChar: six
Encoding: 54 54 25
Width: 2949
Flags: W
LayerCount: 2
Fore
SplineSet
981.5 2684.81269197 m 1
 981.5 1559.5 l 1
 2241 1559.5 l 2
 2333.20113633 1559.5 2333.20113633 1559.5 2404.20850811 1537.26849047 c 0
 2475.21587989 1515.03698094 2475.21587989 1515.03698094 2521.80177954 1457.15752987 c 0
 2550.52031408 1421.47692635 2550.52031408 1421.47692635 2567.37151726 1374.81375761 c 0
 2584.22272045 1328.15058888 2584.22272045 1328.15058888 2589.86136022 1281.96835593 c 0
 2595.5 1235.78612299 2595.5 1235.78612299 2595.5 1176 c 2
 2595.5 258 l 2
 2595.5 69.5091340986 2595.5 69.5091340986 2498.32770737 -21.4441318042 c 0
 2447.12293135 -69.3718021591 2447.12293135 -69.3718021591 2377.16224859 -89.4359010796 c 0
 2307.20156584 -109.5 2307.20156584 -109.5 2220 -109.5 c 2
 729 -109.5 l 2
 541.700151012 -109.5 541.700151012 -109.5 448.362012239 -19.1972478536 c 0
 396.918406191 30.5733953963 396.918406191 30.5733953963 375.209203096 100.788369895 c 0
 353.5 171.003344394 353.5 171.003344394 353.5 258 c 2
 353.5 2982 l 2
 353.5 3070.52467088 353.5 3070.52467088 386.374352486 3141.16397851 c 0
 419.248704972 3211.80328613 419.248704972 3211.80328613 484.931108485 3254.15164306 c 0
 550.613511997 3296.5 550.613511997 3296.5 639 3296.5 c 2
 885 3296.5 l 2
 946.478557844 3296.5 946.478557844 3296.5 1002.36927438 3270.83741318 c 0
 1058.25999092 3245.17482635 1058.25999092 3245.17482635 1100.61035407 3199.10951907 c 0
 1127.97183253 3169.34791092 1127.97183253 3169.34791092 1147.14512087 3134.51005689 c 0
 1166.3184092 3099.67220286 1166.3184092 3099.67220286 1176.4092046 3060.91276095 c 0
 1186.5 3022.15331903 1186.5 3022.15331903 1186.5 2982 c 0
 1186.5 2842.51427182 1186.5 2842.51427182 1095.05809925 2754.22554006 c 0
 1079.11403981 2738.83127577 1079.11403981 2738.83127577 1060.41756036 2725.54644519 c 0
 1041.72108092 2712.2616146 1041.72108092 2712.2616146 1021.79212381 2702.00183856 c 0
 1001.8631667 2691.74206252 1001.8631667 2691.74206252 981.5 2684.81269197 c 1
1967.5 930.5 m 1
 981.5 930.5 l 1
 981.5 519.5 l 1
 1967.5 519.5 l 1
 1967.5 930.5 l 1
EndSplineSet
EndChar

StartChar: seven
Encoding: 55 55 26
Width: 2949
Flags: W
LayerCount: 2
Fore
SplineSet
1967.5 2667.5 m 1
 961.108556399 2667.5 l 1
 953.894767683 2648.8381695 953.894767683 2648.8381695 944.325076569 2631.03476053 c 0
 934.755385455 2613.23135156 934.755385455 2613.23135156 923.553377545 2597.15270638 c 0
 912.351369635 2581.07406119 912.351369635 2581.07406119 898.958151606 2565.52836169 c 0
 855.832227795 2515.47148584 855.832227795 2515.47148584 795.531234536 2488.98574292 c 0
 735.230241277 2462.5 735.230241277 2462.5 668 2462.5 c 0
 600.680608086 2462.5 600.680608086 2462.5 540.280623711 2489.14300786 c 0
 479.880639336 2515.78601571 479.880639336 2515.78601571 436.585200209 2565.97807346 c 0
 353.5 2662.29808432 353.5 2662.29808432 353.5 2777 c 2
 353.5 2982 l 2
 353.5 3096.70191568 353.5 3096.70191568 436.585200209 3193.02192654 c 0
 479.880413853 3243.21372289 479.880413853 3243.21372289 540.280545462 3269.85686144 c 0
 600.680677071 3296.5 600.680677071 3296.5 668 3296.5 c 2
 2486 3296.5 l 1
 2595.5 3296.5 l 1
 2595.5 3187 l 1
 2595.5 1999 l 2
 2595.5 1866.30994812 2595.5 1866.30994812 2573.45074424 1810.04632996 c 0
 2562.06624208 1780.99622101 2562.06624208 1780.99622101 2541.58814148 1753.64857364 c 0
 2521.11004088 1726.30092627 2521.11004088 1726.30092627 2503.36006596 1709.11302547 c 0
 2485.61009104 1691.92512466 2485.61009104 1691.92512466 2448.17442374 1658.64897594 c 2
 1874.17771754 1162.65182216 l 2
 1847.34865069 1138.7593558 1847.34865069 1138.7593558 1828.68454318 1119.57961771 c 0
 1810.02043568 1100.39987963 1810.02043568 1100.39987963 1803.71914588 1091.78072986 c 1
 1797.5 1064.50623035 1797.5 1064.50623035 1797.5 999 c 2
 1797.5 205 l 2
 1797.5 63.8496394516 1797.5 63.8496394516 1710.83740531 -22.8251802742 c 0
 1624.17481062 -109.5 1624.17481062 -109.5 1483 -109.5 c 0
 1341.84963945 -109.5 1341.84963945 -109.5 1255.17481973 -22.8374053088 c 0
 1168.5 63.8251893824 1168.5 63.8251893824 1168.5 205 c 2
 1168.5 1192 l 2
 1168.5 1237.18483386 1168.5 1237.18483386 1169.5047598 1261.25460756 c 0
 1170.50951959 1285.32438127 1170.50951959 1285.32438127 1176.18925412 1316.33701518 c 0
 1181.86898866 1347.34964909 1181.86898866 1347.34964909 1193.37874183 1373.33941433 c 0
 1199.42191101 1386.98528021 1199.42191101 1386.98528021 1206.58924757 1399.33212392 c 0
 1213.75658412 1411.67896762 1213.75658412 1411.67896762 1223.24662583 1423.77188873 c 0
 1232.73666753 1435.86480985 1232.73666753 1435.86480985 1241.04595803 1445.41037032 c 0
 1249.35524853 1454.95593079 1249.35524853 1454.95593079 1262.71291497 1467.68804238 c 0
 1276.07058141 1480.42015397 1276.07058141 1480.42015397 1285.60720544 1489.04397898 c 0
 1295.14382946 1497.66780398 1295.14382946 1497.66780398 1312.1191276 1512.60606634 c 2
 1876.30767588 1998.04744975 l 1
 1944.35936766 2063.4555717 1944.35936766 2063.4555717 1960.15836405 2083.10798184 c 0
 1962.12890293 2085.55913997 1962.12890293 2085.55913997 1963.22237327 2092.81580677 c 0
 1967.5 2121.20369323 1967.5 2121.20369323 1967.5 2212 c 2
 1967.5 2667.5 l 1
EndSplineSet
EndChar

StartChar: eight
Encoding: 56 56 27
Width: 2949
Flags: W
LayerCount: 2
Fore
SplineSet
1391.5 1907.5 m 1
 1557.5 1907.5 l 1
 1557.5 2667.5 l 1
 1391.5 2667.5 l 1
 1391.5 1907.5 l 1
1077 3296.5 m 2
 1872 3296.5 l 2
 1905.51561782 3296.5 1905.51561782 3296.5 1937.34253792 3290.82070912 c 0
 1969.16945802 3285.14141824 1969.16945802 3285.14141824 1999.23234732 3273.65465647 c 0
 2029.29523662 3262.16789469 2029.29523662 3262.16789469 2056.55626853 3243.57045173 c 0
 2083.81730044 3224.97300877 2083.81730044 3224.97300877 2105.7654575 3200.3330966 c 0
 2145.47330996 3155.75541317 2145.47330996 3155.75541317 2165.98665498 3099.44658666 c 0
 2186.5 3043.13776015 2186.5 3043.13776015 2186.5 2982 c 2
 2186.5 1897.66618064 l 1
 2261.89604311 1883.53710141 2261.89604311 1883.53710141 2328.53416812 1849.47211774 c 0
 2395.17229314 1815.40713407 2395.17229314 1815.40713407 2451.16818028 1762.6241257 c 0
 2524.32939006 1693.45352736 2524.32939006 1693.45352736 2559.91469503 1596.72890711 c 0
 2595.5 1500.00428686 2595.5 1500.00428686 2595.5 1384 c 2
 2595.5 410 l 2
 2595.5 178.077382715 2595.5 178.077382715 2453.95074956 34.5979152278 c 0
 2311.79137131 -109.5 2311.79137131 -109.5 2077 -109.5 c 2
 872 -109.5 l 2
 758.961218104 -109.5 758.961218104 -109.5 662.650277707 -73.5821545976 c 0
 566.33933731 -37.6643091952 566.33933731 -37.6643091952 495.049250435 34.5979152278 c 0
 353.5 178.077382715 353.5 178.077382715 353.5 410 c 2
 353.5 1384 l 2
 353.5 1626.16495069 353.5 1626.16495069 497.831819723 1762.6241257 c 0
 610.968632786 1869.26948228 610.968632786 1869.26948228 762.5 1897.66618064 c 1
 762.5 2982 l 2
 762.5 3021.94400155 762.5 3021.94400155 771.520737658 3060.16270729 c 0
 780.541475315 3098.38141302 780.541475315 3098.38141302 798.538230857 3133.62119833 c 0
 816.534986399 3168.86098364 816.534986399 3168.86098364 842.635033414 3198.65443354 c 0
 864.511173743 3223.6262541 864.511173743 3223.6262541 891.785151404 3242.52358052 c 0
 919.059129065 3261.42090694 919.059129065 3261.42090694 949.198159674 3273.14249014 c 0
 979.337190283 3284.86407333 979.337190283 3284.86407333 1011.33929736 3290.68203667 c 0
 1043.34140444 3296.5 1043.34140444 3296.5 1077 3296.5 c 2
981.5 519.5 m 1
 1967.5 519.5 l 1
 1967.5 1279.5 l 1
 981.5 1279.5 l 1
 981.5 519.5 l 1
EndSplineSet
EndChar

StartChar: nine
Encoding: 57 57 28
Width: 2949
Flags: W
LayerCount: 2
Fore
SplineSet
1967.5 502.387663625 m 1
 1967.5 1619.5 l 1
 668 1619.5 l 2
 642.798302871 1619.5 642.798302871 1619.5 618.046184662 1623.58126868 c 0
 593.294066452 1627.66253736 593.294066452 1627.66253736 569.9568466 1635.58188267 c 0
 546.619626749 1643.50122797 546.619626749 1643.50122797 524.701519326 1655.00274402 c 0
 502.783411904 1666.50426007 502.783411904 1666.50426007 482.769253375 1681.48369603 c 0
 462.755094847 1696.46313198 462.755094847 1696.46313198 445.129582256 1714.52564075 c 0
 353.5 1808.42703083 353.5 1808.42703083 353.5 1933 c 2
 353.5 2982 l 2
 353.5 3106.05297649 353.5 3106.05297649 444.008088347 3200.33223519 c 0
 473.366833797 3230.9142617 473.366833797 3230.9142617 509.160357703 3252.4438894 c 0
 544.953881609 3273.9735171 544.953881609 3273.9735171 585.33699646 3285.23675855 c 0
 625.720111311 3296.5 625.720111311 3296.5 668 3296.5 c 2
 2281 3296.5 l 2
 2312.62609363 3296.5 2312.62609363 3296.5 2343.43193769 3290.1490299 c 0
 2374.23778175 3283.79805979 2374.23778175 3283.79805979 2402.57952788 3271.66221418 c 0
 2430.92127401 3259.52636858 2430.92127401 3259.52636858 2456.79423146 3241.71437602 c 0
 2482.6671889 3223.90238346 2482.6671889 3223.90238346 2504.68693452 3201.14864631 c 0
 2548.0597485 3156.33007187 2548.0597485 3156.33007187 2571.77987425 3099.79238217 c 0
 2595.5 3043.25469247 2595.5 3043.25469247 2595.5 2982 c 2
 2595.5 205 l 2
 2595.5 74.7361393157 2595.5 74.7361393157 2507.24024806 -16.5935170361 c 0
 2417.45667209 -109.5 2417.45667209 -109.5 2281 -109.5 c 2
 2077 -109.5 l 2
 2012.08910172 -109.5 2012.08910172 -109.5 1953.23587852 -85.5572258251 c 0
 1894.38265532 -61.6144516501 1894.38265532 -61.6144516501 1850.44229154 -15.7636372743 c 0
 1807.77827659 28.7553348502 1807.77827659 28.7553348502 1785.13913829 85.843413391 c 0
 1762.5 142.931491932 1762.5 142.931491932 1762.5 205 c 0
 1762.5 341.35638508 1762.5 341.35638508 1851.57180746 430.42819254 c 0
 1901.02477951 479.881164589 1901.02477951 479.881164589 1967.5 502.387663625 c 1
981.5 2247.5 m 1
 1967.5 2247.5 l 1
 1967.5 2667.5 l 1
 981.5 2667.5 l 1
 981.5 2247.5 l 1
EndSplineSet
EndChar

StartChar: colon
Encoding: 58 58 29
Width: 2949
Flags: W
LayerCount: 2
Fore
SplineSet
1622 410.5 m 2
 1327 410.5 l 2
 1227.50024371 410.5 1227.50024371 410.5 1167.60940802 427.801796979 c 0
 1087.39354961 450.975267185 1087.39354961 450.975267185 1026.13997769 532.646696416 c 0
 959.5 622.980888393 959.5 622.980888393 959.5 782 c 2
 959.5 1012 l 2
 959.5 1171.01911161 959.5 1171.01911161 1025.9465127 1261.09105104 c 0
 1088.69463796 1345.80102015 1088.69463796 1345.80102015 1169.99030628 1367.72344756 c 0
 1202.64054041 1376.52800508 1202.64054041 1376.52800508 1240.21688428 1380.01400254 c 0
 1277.79322814 1383.5 1277.79322814 1383.5 1327 1383.5 c 2
 1622 1383.5 l 2
 1720.34928231 1383.5 1720.34928231 1383.5 1779.21406024 1367.80272589 c 0
 1861.28292309 1345.91769579 1861.28292309 1345.91769579 1923.70092143 1260.21067749 c 0
 1989.5 1170.09876479 1989.5 1170.09876479 1989.5 1012 c 2
 1989.5 782 l 2
 1989.5 623.901235208 1989.5 623.901235208 1923.73789439 533.83995702 c 0
 1864.20087987 450.92017778 1864.20087987 450.92017778 1781.77929207 427.62712036 c 0
 1721.17563541 410.5 1721.17563541 410.5 1622 410.5 c 2
1622 1803.5 m 2
 1327 1803.5 l 2
 1227.50024371 1803.5 1227.50024371 1803.5 1167.60940802 1820.80179698 c 0
 1087.39354961 1843.97526718 1087.39354961 1843.97526718 1026.13997769 1925.64669642 c 0
 959.5 2015.98088839 959.5 2015.98088839 959.5 2175 c 2
 959.5 2404 l 2
 959.5 2440.89432336 959.5 2440.89432336 962.762217107 2473.20331626 c 0
 966.024434213 2505.51230916 966.024434213 2505.51230916 973.419557121 2537.43490316 c 0
 980.814680029 2569.35749715 980.814680029 2569.35749715 993.914464024 2598.68555476 c 0
 1007.01424802 2628.01361238 1007.01424802 2628.01361238 1025.59215744 2653.60984314 c 0
 1036.61631065 2668.59138467 1036.61631065 2668.59138467 1048.20471136 2681.59225776 c 0
 1059.79311208 2694.59313084 1059.79311208 2694.59313084 1073.6880218 2706.95743791 c 0
 1087.58293152 2719.32174498 1087.58293152 2719.32174498 1102.27995561 2729.14772321 c 0
 1116.9769797 2738.97370144 1116.9769797 2738.97370144 1134.23330598 2746.948706 c 0
 1151.48963225 2754.92371055 1151.48963225 2754.92371055 1169.78593976 2759.80272589 c 0
 1202.50799152 2768.52860635 1202.50799152 2768.52860635 1240.21090314 2772.01430318 c 0
 1277.91381476 2775.5 1277.91381476 2775.5 1327 2775.5 c 2
 1622 2775.5 l 2
 1720.19683851 2775.5 1720.19683851 2775.5 1779.4242835 2759.87957495 c 0
 1823.68999616 2748.20510128 1823.68999616 2748.20510128 1859.78603342 2720.10644436 c 0
 1895.88207069 2692.00778744 1895.88207069 2692.00778744 1923.80504439 2653.06258727 c 0
 1989.5 2562.54953733 1989.5 2562.54953733 1989.5 2404 c 2
 1989.5 2175 l 2
 1989.5 2099.52871943 1989.5 2099.52871943 1974.28561378 2037.37885815 c 0
 1959.07122757 1975.22899686 1959.07122757 1975.22899686 1923.73789439 1926.83995702 c 0
 1864.20087987 1843.92017778 1864.20087987 1843.92017778 1781.77929207 1820.62712036 c 0
 1721.17563541 1803.5 1721.17563541 1803.5 1622 1803.5 c 2
EndSplineSet
EndChar

StartChar: semicolon
Encoding: 59 59 30
Width: 2949
Flags: W
LayerCount: 2
Fore
SplineSet
1565.5 930.5 m 1
 1069 930.5 l 2
 942.493313654 930.5 942.493313654 930.5 852.238344607 1007.86140204 c 0
 754.5 1091.63712599 754.5 1091.63712599 754.5 1245 c 0
 754.5 1290.9599248 754.5 1290.9599248 763.892515192 1332.41247151 c 0
 773.285030383 1373.86501822 773.285030383 1373.86501822 795.243227573 1413.16775573 c 0
 817.201424762 1452.47049324 817.201424762 1452.47049324 850.543695553 1481.53811392 c 0
 939.970564874 1559.5 939.970564874 1559.5 1069 1559.5 c 2
 1839 1559.5 l 2
 2001.19779677 1559.5 2001.19779677 1559.5 2093.77578465 1472.99269986 c 0
 2163.76154253 1407.57123053 2163.76154253 1407.57123053 2181.45308124 1334.15134488 c 0
 2194.5 1280.00663203 2194.5 1280.00663203 2194.5 1188 c 2
 2194.5 205 l 2
 2194.5 149.149121733 2194.5 149.149121733 2179.97190748 100.136519245 c 0
 2165.44381496 51.1239167574 2165.44381496 51.1239167574 2137.90327345 12.8919557184 c 0
 2110.36273195 -25.3400053206 2110.36273195 -25.3400053206 2072.1351908 -52.8856542799 c 0
 2033.90764966 -80.4313032391 2033.90764966 -80.4313032391 1984.88706869 -94.9656516196 c 0
 1935.86648772 -109.5 1935.86648772 -109.5 1880 -109.5 c 0
 1738.84963945 -109.5 1738.84963945 -109.5 1652.17481973 -22.8374053088 c 0
 1565.5 63.8251893824 1565.5 63.8251893824 1565.5 205 c 2
 1565.5 930.5 l 1
1417 1975.5 m 2
 1122 1975.5 l 2
 1097.799425 1975.5 1097.799425 1975.5 1077.41971696 1976.32049951 c 0
 1057.04000893 1977.14099902 1057.04000893 1977.14099902 1036.92835839 1979.06204416 c 0
 1016.81670785 1980.98308929 1016.81670785 1980.98308929 998.243551379 1984.38348588 c 0
 979.670394911 1987.78388247 979.670394911 1987.78388247 962.418036495 1992.71312773 c 0
 919.392495619 2005.00613941 919.392495619 2005.00613941 883.954615972 2032.59235435 c 0
 848.516736326 2060.17856928 848.516736326 2060.17856928 820.736241833 2098.1939828 c 0
 754.5 2187.98088839 754.5 2187.98088839 754.5 2347 c 2
 754.5 2576 l 2
 754.5 2734.54953733 754.5 2734.54953733 820.693976646 2825.75012737 c 0
 839.851750537 2851.61312212 839.851750537 2851.61312212 860.142787378 2871.50298742 c 0
 880.43382422 2891.39285272 880.43382422 2891.39285272 907.648449135 2907.99605141 c 0
 934.86307405 2924.5992501 934.86307405 2924.5992501 964.990306276 2932.72344756 c 0
 1023.49502158 2948.5 1023.49502158 2948.5 1122 2948.5 c 2
 1417 2948.5 l 2
 1515.34928231 2948.5 1515.34928231 2948.5 1574.21406024 2932.80272589 c 0
 1618.55356604 2920.97885767 1618.55356604 2920.97885767 1654.38245264 2892.81598485 c 0
 1690.21133923 2864.65311203 1690.21133923 2864.65311203 1718.693995 2825.21558867 c 0
 1754.35633177 2776.08081355 1754.35633177 2776.08081355 1769.42816589 2713.96872793 c 0
 1784.5 2651.85664231 1784.5 2651.85664231 1784.5 2576 c 2
 1784.5 2347 l 2
 1784.5 2188.90123521 1784.5 2188.90123521 1718.73789439 2098.83995702 c 0
 1659.20087987 2015.92017778 1659.20087987 2015.92017778 1576.77929207 1992.62712036 c 0
 1516.17563541 1975.5 1516.17563541 1975.5 1417 1975.5 c 2
EndSplineSet
EndChar

StartChar: less
Encoding: 60 60 31
Width: 2949
Flags: W
LayerCount: 2
Fore
SplineSet
2698.5 506.242911024 m 0
 2698.5 373.546163851 2698.5 373.546163851 2603.70397898 272.916541539 c 0
 2557.80884505 224.197091678 2557.80884505 224.197091678 2499.14117764 196.848545839 c 0
 2440.47351022 169.5 2440.47351022 169.5 2376 169.5 c 0
 2268.92495298 169.5 2268.92495298 169.5 2138.9874913 257.071385659 c 2
 456.126060674 1374.31549459 l 2
 432.582799683 1389.4719727 432.582799683 1389.4719727 413.294058305 1403.29936066 c 0
 394.005316927 1417.12674862 394.005316927 1417.12674862 375.968134304 1432.00011689 c 0
 357.930951681 1446.87348516 357.930951681 1446.87348516 342.479655433 1462.51393501 c 0
 327.028359185 1478.15438487 327.028359185 1478.15438487 313.931709759 1494.80583914 c 0
 255.5 1569.0975844 255.5 1569.0975844 255.5 1688 c 0
 255.5 1743.41254004 255.5 1743.41254004 269.661728695 1792.61369389 c 0
 283.823457389 1841.81484774 283.823457389 1841.81484774 315.494865366 1881.40410771 c 0
 340.822109512 1913.06316289 340.822109512 1913.06316289 375.599017752 1942.06363162 c 0
 410.375925991 1971.06410036 410.375925991 1971.06410036 455.991654083 2000.59573654 c 2
 2143.20723038 3122.07433643 l 2
 2180.33220071 3146.96030554 2180.33220071 3146.96030554 2216.43737295 3164.13361275 c 0
 2252.5425452 3181.30691995 2252.5425452 3181.30691995 2292.64623276 3191.40345997 c 0
 2332.74992032 3201.5 2332.74992032 3201.5 2372 3201.5 c 0
 2437.15587713 3201.5 2437.15587713 3201.5 2496.56368269 3175.25189694 c 0
 2555.97148825 3149.00379388 2555.97148825 3149.00379388 2601.69391265 3101.12125494 c 0
 2694.01455433 3004.43900814 2694.01455433 3004.43900814 2698.5 2872.86593529 c 0
 2698.5 2778.46565548 2698.5 2778.46565548 2647.43960607 2701.51767319 c 0
 2596.37921214 2624.5696909 2596.37921214 2624.5696909 2506.04569602 2563.09271465 c 2
 1185.0387768 1687.85767764 l 1
 2514.75596299 804.098811562 l 2
 2597.16527786 748.947962374 2597.16527786 748.947962374 2645.98366043 672.710512145 c 0
 2694.802043 596.473061916 2694.802043 596.473061916 2698.5 506.242911024 c 0
EndSplineSet
EndChar

StartChar: equal
Encoding: 61 61 32
Width: 2949
Flags: W
LayerCount: 2
Fore
SplineSet
2281 926.5 m 2
 668 926.5 l 2
 607.008078623 926.5 607.008078623 926.5 550.973641491 946.076309655 c 0
 494.939204359 965.652619309 494.939204359 965.652619309 450.392075311 1004.15945967 c 0
 400.7152582 1047.10043718 400.7152582 1047.10043718 377.1076291 1108.72940643 c 0
 353.5 1170.35837568 353.5 1170.35837568 353.5 1241 c 0
 353.5 1393.52687352 353.5 1393.52687352 448.693211756 1477.23124938 c 0
 537.704732074 1555.5 537.704732074 1555.5 668 1555.5 c 2
 2281 1555.5 l 2
 2410.99021078 1555.5 2410.99021078 1555.5 2499.90443168 1478.08330767 c 0
 2595.5 1394.84923525 2595.5 1394.84923525 2595.5 1241 c 0
 2595.5 1194.67942 2595.5 1194.67942 2586.04555664 1153.01288377 c 0
 2576.59111328 1111.34634754 2576.59111328 1111.34634754 2554.33060508 1071.82272412 c 0
 2532.07009687 1032.29910071 2532.07009687 1032.29910071 2498.20358035 1003.3116586 c 0
 2408.46322674 926.5 2408.46322674 926.5 2281 926.5 c 2
2281 1795.5 m 2
 668 1795.5 l 2
 637.548001036 1795.5 637.548001036 1795.5 608.214623018 1800.28149933 c 0
 578.881245 1805.06299866 578.881245 1805.06299866 551.001351094 1814.60491028 c 0
 523.121457189 1824.1468219 523.121457189 1824.1468219 497.114100431 1839.10356102 c 0
 471.106743674 1854.06030015 471.106743674 1854.06030015 448.693211756 1873.76875062 c 0
 399.857701842 1916.71031969 399.857701842 1916.71031969 376.678850921 1977.86328389 c 0
 353.5 2039.01624808 353.5 2039.01624808 353.5 2109 c 0
 353.5 2261.52687352 353.5 2261.52687352 448.693211756 2345.23124938 c 0
 537.704732074 2423.5 537.704732074 2423.5 668 2423.5 c 2
 2281 2423.5 l 2
 2410.99021078 2423.5 2410.99021078 2423.5 2499.90443168 2346.08330767 c 0
 2595.5 2262.84923525 2595.5 2262.84923525 2595.5 2109 c 0
 2595.5 2074.94698912 2595.5 2074.94698912 2590.13456161 2043.03035877 c 0
 2584.76912322 2011.11372841 2584.76912322 2011.11372841 2573.61789482 1980.55858714 c 0
 2562.46666642 1950.00344587 2562.46666642 1950.00344587 2543.7691801 1922.41650649 c 0
 2525.07169379 1894.8295671 2525.07169379 1894.8295671 2499.90443168 1872.91669233 c 0
 2455.46342272 1834.22236557 2455.46342272 1834.22236557 2399.1133837 1814.86118279 c 0
 2342.76334467 1795.5 2342.76334467 1795.5 2281 1795.5 c 2
EndSplineSet
EndChar

StartChar: greater
Encoding: 62 62 33
Width: 2949
Flags: W
LayerCount: 2
Fore
SplineSet
255.5 506.224691085 m 0
 257.973873739 567.081985074 257.973873739 567.081985074 281.97775148 623.029943686 c 0
 305.98162922 678.977902297 305.98162922 678.977902297 345.684074235 723.724321997 c 0
 385.38651925 768.470741697 385.38651925 768.470741697 439.472797175 804.250894786 c 2
 1768.00814724 1687.82658805 l 1
 447.024061685 2563.04649658 l 2
 357.159759623 2624.00340078 357.159759623 2624.00340078 306.329879811 2701.15178185 c 0
 255.5 2778.30016293 255.5 2778.30016293 255.5 2872.88737015 c 0
 259.985809315 3002.9758403 259.985809315 3002.9758403 351.227154896 3100.01028719 c 0
 396.80127417 3148.47800134 396.80127417 3148.47800134 456.55316866 3174.98900067 c 0
 516.30506315 3201.5 516.30506315 3201.5 582 3201.5 c 0
 691.003816047 3201.5 691.003816047 3201.5 810.575240202 3122.21894703 c 2
 2497.02215026 2000.58679938 l 2
 2507.0467148 1994.09716625 2507.0467148 1994.09716625 2516.23313778 1987.89172392 c 0
 2525.41956075 1981.68628159 2525.41956075 1981.68628159 2534.45553026 1975.27410477 c 0
 2543.49149977 1968.86192796 2543.49149977 1968.86192796 2551.78069129 1962.62012115 c 0
 2560.0698828 1956.37831434 2560.0698828 1956.37831434 2568.16305506 1949.89018909 c 0
 2576.25622733 1943.40206383 2576.25622733 1943.40206383 2583.7031138 1936.96553867 c 0
 2591.15000026 1930.52901351 2591.15000026 1930.52901351 2598.35530169 1923.80658595 c 0
 2605.56060311 1917.08415839 2605.56060311 1917.08415839 2612.22011094 1910.29456101 c 0
 2618.87961877 1903.50496363 2618.87961877 1903.50496363 2625.25197576 1896.38987988 c 0
 2631.62433276 1889.27479614 2631.62433276 1889.27479614 2637.54225974 1881.97872179 c 0
 2669.65797581 1842.38400333 2669.65797581 1842.38400333 2684.07898791 1792.97125729 c 0
 2698.5 1743.55851124 2698.5 1743.55851124 2698.5 1688 c 0
 2698.5 1632.03070138 2698.5 1632.03070138 2684.34404921 1582.6438325 c 0
 2670.18809841 1533.25696363 2670.18809841 1533.25696363 2638.1305841 1493.63031399 c 0
 2591.50045933 1435.99029865 2591.50045933 1435.99029865 2497.1171109 1374.47675368 c 2
 815.030291252 257.083370217 l 2
 773.429467663 229.046484477 773.429467663 229.046484477 736.914031776 210.55707413 c 0
 700.398595889 192.067663783 700.398595889 192.067663783 659.34707216 180.783831892 c 0
 618.295548432 169.5 618.295548432 169.5 578 169.5 c 0
 534.511942744 169.5 534.511942744 169.5 492.77972808 182.341611738 c 0
 451.047513416 195.183223476 451.047513416 195.183223476 415.206361963 218.366959043 c 0
 379.365210511 241.550694609 379.365210511 241.550694609 349.238550062 274.012755093 c 0
 255.5 375.017859423 255.5 375.017859423 255.5 506.224691085 c 0
EndSplineSet
EndChar

StartChar: question
Encoding: 63 63 34
Width: 2949
Flags: W
LayerCount: 2
Fore
SplineSet
1967.5 2437.95467768 m 1
 1967.5 2489.5827231 l 1
 1876.09922523 2567.79632141 l 1
 910.790994892 1739.45750213 l 2
 781.768614295 1631.5 781.768614295 1631.5 668 1631.5 c 0
 603.45446855 1631.5 603.45446855 1631.5 544.779013854 1656.81915583 c 0
 486.103559158 1682.13831167 486.103559158 1682.13831167 442.076124935 1729.15065669 c 0
 353.5 1823.73194263 353.5 1823.73194263 353.5 1954 c 0
 353.5 2056.02364037 353.5 2056.02364037 419.810082556 2134.61336784 c 0
 466.204084095 2189.59885115 466.204084095 2189.59885115 552.044885496 2262.40054348 c 2
 1635.39531498 3186.99270726 l 2
 1692.33687955 3238.98240733 1692.33687955 3238.98240733 1751.72194827 3267.74120367 c 0
 1811.10701699 3296.5 1811.10701699 3296.5 1876 3296.5 c 0
 1989.72200818 3296.5 1989.72200818 3296.5 2115.33415595 3188.07688297 c 2
 2450.87655093 2901.46775393 l 2
 2465.2145679 2889.36423311 2465.2145679 2889.36423311 2473.95529415 2881.80676699 c 0
 2482.69602041 2874.24930086 2482.69602041 2874.24930086 2494.88077969 2863.11081687 c 0
 2507.06553898 2851.97233287 2507.06553898 2851.97233287 2514.92213974 2843.70714704 c 0
 2522.77874051 2835.44196121 2522.77874051 2835.44196121 2532.31848866 2824.33518589 c 0
 2541.85823682 2813.22841057 2541.85823682 2813.22841057 2548.54095984 2803.16136457 c 0
 2555.22368286 2793.09431856 2555.22368286 2793.09431856 2561.82866763 2780.92511146 c 0
 2568.43365241 2768.75590436 2568.43365241 2768.75590436 2573.45074424 2755.95367004 c 0
 2587.8647925 2719.17299516 2587.8647925 2719.17299516 2591.68239625 2679.71186015 c 0
 2595.5 2640.25072514 2595.5 2640.25072514 2595.5 2572 c 2
 2595.5 2347 l 2
 2595.5 2279.13288085 2595.5 2279.13288085 2589.45470287 2235.55274716 c 0
 2583.40940574 2191.97261347 2583.40940574 2191.97261347 2562.42548701 2152.0519876 c 0
 2549.15653602 2126.80861742 2549.15653602 2126.80861742 2528.48684072 2101.76378724 c 0
 2507.81714542 2076.71895706 2507.81714542 2076.71895706 2487.24193887 2057.16182803 c 0
 2466.66673232 2037.60469899 2466.66673232 2037.60469899 2430.79203111 2006.31862236 c 2
 1383.5 1100.91776966 l 1
 1383.5 901 l 2
 1383.5 759.849639452 1383.5 759.849639452 1296.83740531 673.174819726 c 0
 1210.17481062 586.5 1210.17481062 586.5 1069 586.5 c 0
 927.849639452 586.5 927.849639452 586.5 841.174819726 673.162594691 c 0
 754.5 759.825189382 754.5 759.825189382 754.5 901 c 2
 754.5 1204 l 2
 754.5 1225.94220976 754.5 1225.94220976 754.753715093 1239.25916643 c 0
 755.007430186 1252.5761231 755.007430186 1252.5761231 755.999576058 1271.36600494 c 0
 756.99172193 1290.15588677 756.99172193 1290.15588677 759.257818852 1303.72895794 c 0
 761.523915774 1317.3020291 761.523915774 1317.3020291 765.245407956 1333.21864428 c 0
 768.966900138 1349.13525946 768.966900138 1349.13525946 775.002797426 1363.67936128 c 0
 781.038694713 1378.22346311 781.038694713 1378.22346311 789.26716984 1392.4175827 c 0
 808.314000362 1425.27336535 808.314000362 1425.27336535 836.338620519 1453.50695531 c 0
 864.363240676 1481.74054527 864.363240676 1481.74054527 915.812862655 1525.20602454 c 2
 1967.5 2437.95467768 l 1
1069 519.5 m 0
 1111.27772872 519.5 1111.27772872 519.5 1151.5706107 508.528397734 c 0
 1191.86349268 497.556795469 1191.86349268 497.556795469 1227.84256467 476.278904965 c 0
 1263.82163666 455.001014461 1263.82163666 455.001014461 1293.19724785 424.637987761 c 0
 1383.5 331.299848988 1383.5 331.299848988 1383.5 201 c 0
 1383.5 71.5451776274 1383.5 71.5451776274 1292.53896577 -18.3501549533 c 0
 1290.82250414 -20.0292292042 1290.82250414 -20.0292292042 1290.1049196 -20.7292271774 c 0
 1245.60637322 -63.7444886822 1245.60637322 -63.7444886822 1188.41355926 -86.6222443411 c 0
 1131.22074529 -109.5 1131.22074529 -109.5 1069 -109.5 c 0
 1007.28030164 -109.5 1007.28030164 -109.5 950.400468779 -86.195827904 c 0
 893.520635919 -62.891655808 893.520635919 -62.891655808 848.872849817 -19.7077315452 c 0
 803.652451618 24.030030647 803.652451618 24.030030647 779.076225809 81.2420095443 c 0
 754.5 138.453988442 754.5 138.453988442 754.5 201 c 0
 754.5 327.073823837 754.5 327.073823837 846.032943394 422.35811737 c 0
 890.470624087 468.617014486 890.470624087 468.617014486 948.16908055 494.058507243 c 0
 1005.86753701 519.5 1005.86753701 519.5 1069 519.5 c 0
EndSplineSet
EndChar

StartChar: at
Encoding: 64 64 35
Width: 2949
Flags: W
LayerCount: 2
Fore
SplineSet
386.5 676 m 2
 386.5 1303 l 2
 386.5 1513.44958809 386.5 1513.44958809 467.399904658 1685.57704481 c 0
 495.038497057 1744.38256055 495.038497057 1744.38256055 532.171061192 1795.97103886 c 0
 569.303625326 1847.55951716 569.303625326 1847.55951716 615.433451562 1891.19735099 c 0
 661.563277798 1934.83518482 661.563277798 1934.83518482 715.888353855 1969.67409229 c 0
 880.9050235 2075.5 880.9050235 2075.5 1102 2075.5 c 2
 1380 2075.5 l 2
 1448.42515828 2075.5 1448.42515828 2075.5 1498.11499799 2069.7425136 c 0
 1547.80483771 2063.98502721 1547.80483771 2063.98502721 1598.91837901 2044.61531207 c 0
 1650.03192031 2025.24559692 1650.03192031 2025.24559692 1686.66546587 1991.09568157 c 0
 1741.92684709 1939.58083468 1741.92684709 1939.58083468 1761.21342354 1864.31666564 c 0
 1780.5 1789.05249661 1780.5 1789.05249661 1780.5 1683 c 2
 1780.5 713 l 2
 1780.5 594.630058408 1780.5 594.630058408 1809.27554066 524.635500049 c 0
 1812.97929164 515.626376043 1812.97929164 515.626376043 1814.60755954 513.012723239 c 0
 1816.23582744 510.399070435 1816.23582744 510.399070435 1829.38437155 506.449535218 c 0
 1842.53291566 502.5 1842.53291566 502.5 1868 502.5 c 0
 1879.64408262 502.5 1879.64408262 502.5 1888.57470758 503.03671818 c 0
 1897.50533255 503.573436359 1897.50533255 503.573436359 1903.18253079 504.936611097 c 0
 1908.85972903 506.299785835 1908.85972903 506.299785835 1912.54673513 507.294459497 c 0
 1916.23374122 508.289133159 1916.23374122 508.289133159 1918.31119264 510.591071873 c 0
 1920.38864406 512.893010587 1920.38864406 512.893010587 1921.13779506 513.828827118 c 0
 1921.88694607 514.764643649 1921.88694607 514.764643649 1922.67041444 517.488533726 c 0
 1923.45388281 520.212423804 1923.45388281 520.212423804 1923.63231627 520.664972442 c 0
 1950.5 588.807648572 1950.5 588.807648572 1950.5 758 c 2
 1950.5 2343 l 1
 1950.5 2433 l 2
 1950.5 2539.58957319 1950.5 2539.58957319 1916.47631648 2588.37825143 c 0
 1886.16387381 2634.00645461 1886.16387381 2634.00645461 1826.76064627 2658.75322731 c 0
 1767.35741872 2683.5 1767.35741872 2683.5 1663 2683.5 c 2
 1253 2683.5 l 2
 1214.31024724 2683.5 1214.31024724 2683.5 1180.18155481 2680.91982129 c 0
 1146.05286239 2678.33964257 1146.05286239 2678.33964257 1121.14926941 2674.08071109 c 0
 1096.24567643 2669.82177961 1096.24567643 2669.82177961 1077.8135986 2664.0322167 c 0
 1042.01763843 2652.78861383 1042.01763843 2652.78861383 1014.00561108 2601.33795135 c 0
 945.594515326 2477.54644474 945.594515326 2477.54644474 900.090798248 2423.76932456 c 0
 892.493569497 2414.79078149 892.493569497 2414.79078149 883.975166852 2406.68791068 c 0
 813.341722289 2339.5 813.341722289 2339.5 692 2339.5 c 0
 570.479536402 2339.5 570.479536402 2339.5 480.602025311 2421.69567254 c 0
 435.671723726 2462.7857774 435.671723726 2462.7857774 411.085861863 2518.04639975 c 0
 386.5 2573.30702209 386.5 2573.30702209 386.5 2634 c 0
 386.5 2667.44042656 386.5 2667.44042656 392.79465825 2701.22344421 c 0
 399.0893165 2735.00646187 399.0893165 2735.00646187 411.217780118 2767.90933401 c 0
 423.346243737 2800.81220615 423.346243737 2800.81220615 439.785870121 2832.45321493 c 0
 456.225496505 2864.0942237 456.225496505 2864.0942237 477.763089756 2896.54813134 c 0
 517.931256896 2957.07550649 517.931256896 2957.07550649 563.385793971 3009.03982799 c 0
 608.840331046 3061.0041495 608.840331046 3061.0041495 658.019768041 3102.38220076 c 0
 793.716242988 3219.22268234 793.716242988 3219.22268234 939.615694021 3259.12171589 c 0
 974.801810058 3268.7440415 974.801810058 3268.7440415 1012.96030622 3275.84481525 c 0
 1051.11880238 3282.945589 1051.11880238 3282.945589 1091.96812452 3287.50333714 c 0
 1132.81744665 3292.06108527 1132.81744665 3292.06108527 1176.03297505 3294.28054264 c 0
 1219.24850346 3296.5 1219.24850346 3296.5 1266 3296.5 c 2
 1622 3296.5 l 2
 1688.18416175 3296.5 1688.18416175 3296.5 1738.39986942 3294.2723922 c 0
 1788.61557709 3292.04478439 1788.61557709 3292.04478439 1826.98675537 3287.10304173 c 0
 1907.00336125 3276.7978728 1907.00336125 3276.7978728 2019.06910693 3230.51027496 c 0
 2288.31639398 3123.850544 2288.31639398 3123.850544 2426.03075253 2917.85763793 c 0
 2495.12268952 2814.5100347 2495.12268952 2814.5100347 2529.31134476 2690.40149394 c 0
 2563.5 2566.29295318 2563.5 2566.29295318 2563.5 2425 c 2
 2563.5 705 l 2
 2563.5 517.669812896 2563.5 517.669812896 2540.68012279 408.579668192 c 0
 2527.34609042 344.836489039 2527.34609042 344.836489039 2496.2053864 283.507836866 c 0
 2465.06468238 222.179184693 2465.06468238 222.179184693 2416.46530621 160.540951496 c 0
 2383.38845734 119.892293849 2383.38845734 119.892293849 2345.24834469 84.7039160739 c 0
 2307.10823204 49.5155382992 2307.10823204 49.5155382992 2264.47645904 20.0493409923 c 0
 2221.84468603 -9.41685631459 2221.84468603 -9.41685631459 2173.91081431 -33.9636373972 c 0
 2026.40673616 -109.5 2026.40673616 -109.5 1876 -109.5 c 0
 1642.03422787 -109.5 1642.03422787 -109.5 1472.80646046 19.2187879518 c 1
 1298.33625372 -109.5 1298.33625372 -109.5 1090 -109.5 c 0
 875.140483699 -109.5 875.140483699 -109.5 711.190939161 2.61255619192 c 0
 679.155415194 24.5192012574 679.155415194 24.5192012574 649.957143936 49.6061233152 c 0
 620.758872679 74.6930453731 620.758872679 74.6930453731 594.713276956 102.646926211 c 0
 568.667681234 130.600807048 568.667681234 130.600807048 545.699682543 161.394418769 c 0
 522.731683852 192.18803049 522.731683852 192.18803049 503.008882767 225.639921297 c 0
 483.286081682 259.091812105 483.286081682 259.091812105 466.88122195 295.042887686 c 0
 386.5 471.197480471 386.5 471.197480471 386.5 676 c 2
1168.5 709 m 2
 1168.5 1463.5 l 1
 1090 1463.5 l 2
 1074.32044244 1463.5 1074.32044244 1463.5 1064.71141608 1462.05480168 c 0
 1055.10238972 1460.60960336 1055.10238972 1460.60960336 1043.16175323 1455.32149106 c 0
 1031.22111674 1450.03337875 1031.22111674 1450.03337875 1024.27860331 1438.35509778 c 0
 1017.33608987 1426.67681681 1017.33608987 1426.67681681 1010.79092208 1407.60554478 c 0
 1004.24575428 1388.53427276 1004.24575428 1388.53427276 1001.37287714 1358.03486884 c 0
 998.5 1327.53546492 998.5 1327.53546492 998.5 1286 c 2
 998.5 729 l 2
 998.5 684.236619255 998.5 684.236619255 1001.61557819 648.731985522 c 0
 1004.73115638 613.227351789 1004.73115638 613.227351789 1009.53165877 589.818581222 c 0
 1014.33216116 566.409810654 1014.33216116 566.409810654 1022.10493325 549.526891371 c 0
 1029.87770533 532.643972087 1029.87770533 532.643972087 1037.12036294 523.741531201 c 0
 1044.36302056 514.839090315 1044.36302056 514.839090315 1054.57275472 509.821770921 c 0
 1064.78248888 504.804451528 1064.78248888 504.804451528 1072.2470699 503.652225764 c 0
 1079.71165093 502.5 1079.71165093 502.5 1090 502.5 c 0
 1113.30148932 502.5 1113.30148932 502.5 1125.13754661 506.108582727 c 0
 1136.9736039 509.717165453 1136.9736039 509.717165453 1137.48773831 511.015293421 c 0
 1138.00187272 512.313421389 1138.00187272 512.313421389 1141.35361921 520.134163194 c 0
 1168.5 583.475718364 1168.5 583.475718364 1168.5 709 c 2
EndSplineSet
EndChar

StartChar: A
Encoding: 65 65 36
Width: 2949
Flags: W
LayerCount: 2
Fore
SplineSet
357.821146113 235.457489965 m 1
 1160.82707372 3008.47795979 l 2
 1196.22809762 3130.55045599 1196.22809762 3130.55045599 1256.44301433 3202.67601556 c 0
 1295.99933225 3250.0566601 1295.99933225 3250.0566601 1353.30597559 3273.27833005 c 0
 1410.61261893 3296.5 1410.61261893 3296.5 1475 3296.5 c 0
 1536.32732866 3296.5 1536.32732866 3296.5 1589.16524948 3274.19691042 c 0
 1642.00317031 3251.89382083 1642.00317031 3251.89382083 1681.1284387 3211.99922604 c 0
 1720.25370708 3172.10463125 1720.25370708 3172.10463125 1748.37270144 3120.6655356 c 0
 1776.4916958 3069.22643995 1776.4916958 3069.22643995 1793.48389672 3007.39049883 c 2
 2583.30977109 235.001701826 l 1
 2587.5 220.293467952 l 1
 2587.5 205 l 2
 2587.5 70.0944167654 2587.5 70.0944167654 2495.76360932 -20.0871198305 c 0
 2404.80912777 -109.5 2404.80912777 -109.5 2281 -109.5 c 0
 2160.46291591 -109.5 2160.46291591 -109.5 2076.51364325 -31.4879696944 c 0
 1992.56437059 46.5240606112 1992.56437059 46.5240606112 1955.120828 173.517416509 c 2
 1828.11396424 586.5 l 1
 1116.25936377 586.5 l 1
 985.753024946 173.089597669 l 2
 934.696717598 -0.0683722569503 934.696717598 -0.0683722569503 809.998017684 -70.7738142569 c 0
 741.043901267 -109.233116706 741.043901267 -109.233116706 659 -109.5 c 0
 535.64361492 -109.5 535.64361492 -109.5 444.57180746 -18.4281925399 c 0
 353.5 72.6436149201 353.5 72.6436149201 353.5 205 c 2
 353.5 220.535275556 l 1
 357.821146113 235.457489965 l 1
1649.1018485 1215.5 m 1
 1473.86409703 1833.00445758 l 1
 1296.40110427 1215.5 l 1
 1649.1018485 1215.5 l 1
EndSplineSet
EndChar

StartChar: B
Encoding: 66 66 37
Width: 2949
Flags: W
LayerCount: 2
Fore
SplineSet
353.5 0 m 1
 353.5 3187 l 1
 353.5 3296.5 l 1
 463 3296.5 l 1
 1610 3296.5 l 2
 2099.66885473 3296.5 2099.66885473 3296.5 2350.38664836 3010.12967608 c 0
 2595.5 2730.16075609 2595.5 2730.16075609 2595.5 2241 c 0
 2595.5 1849.91046563 2595.5 1849.91046563 2369.31104739 1592.06279261 c 1
 2428.5857195 1524.48278353 2428.5857195 1524.48278353 2470.58164437 1453.35503491 c 0
 2512.57756923 1382.22728629 2512.57756923 1382.22728629 2536.75038428 1306.99787123 c 0
 2595.5 1124.16028213 2595.5 1124.16028213 2595.5 852 c 0
 2595.5 755.910415948 2595.5 755.910415948 2582.07791191 667.46948893 c 0
 2568.65582381 579.028561912 2568.65582381 579.028561912 2540.99196838 496.803345408 c 0
 2513.32811295 414.578128903 2513.32811295 414.578128903 2471.67893532 341.359254975 c 0
 2409.28709274 231.674965518 2409.28709274 231.674965518 2319.90062041 146.627351073 c 0
 2230.51414808 61.5797366287 2230.51414808 61.5797366287 2117.15356819 3.90505563166 c 0
 1894.25397608 -109.5 1894.25397608 -109.5 1610 -109.5 c 2
 463 -109.5 l 1
 353.5 -109.5 l 1
 353.5 0 l 1
981.5 1279.5 m 1
 981.5 519.5 l 1
 1610 519.5 l 2
 1806.79000839 519.5 1806.79000839 519.5 1887.1450042 595.582081489 c 0
 1967.5 671.664162978 1967.5 671.664162978 1967.5 852 c 0
 1967.5 1089.83557803 1967.5 1089.83557803 1889.62145637 1191.34890355 c 0
 1821.99408849 1279.5 1821.99408849 1279.5 1610 1279.5 c 2
 981.5 1279.5 l 1
981.5 2667.5 m 1
 981.5 1907.5 l 1
 1610 1907.5 l 2
 1806.71626276 1907.5 1806.71626276 1907.5 1887.10813138 1983.78473986 c 0
 1967.5 2060.06947972 1967.5 2060.06947972 1967.5 2241 c 0
 1967.5 2478.72272712 1967.5 2478.72272712 1889.74475671 2579.6884908 c 0
 1822.11980135 2667.5 1822.11980135 2667.5 1610 2667.5 c 2
 981.5 2667.5 l 1
EndSplineSet
EndChar

StartChar: C
Encoding: 67 67 38
Width: 2949
Flags: W
LayerCount: 2
Fore
SplineSet
2281 -109.5 m 2
 1565 -109.5 l 2
 1305.62010706 -109.5 1305.62010706 -109.5 1134.947623 1.11004193496 c 0
 966.308214633 110.402480805 966.308214633 110.402480805 851.909295823 340.332980985 c 2
 474.86953445 1102.41334748 l 2
 414.854248058 1223.53510728 414.854248058 1223.53510728 384.177124029 1343.4574953 c 0
 353.5 1463.37988331 353.5 1463.37988331 353.5 1581 c 0
 353.5 1729.29511244 353.5 1729.29511244 382.669878602 1839.111126 c 0
 411.003353196 1945.77832447 411.003353196 1945.77832447 479.919810313 2084.68805835 c 2
 855.903367548 2841.65495416 l 2
 974.641037341 3081.39196365 974.641037341 3081.39196365 1146.43644193 3188.8378868 c 0
 1205.57959709 3225.8277639 1205.57959709 3225.8277639 1275.68416893 3249.9909558 c 0
 1345.78874077 3274.15414769 1345.78874077 3274.15414769 1422.16847303 3285.32707384 c 0
 1498.54820528 3296.5 1498.54820528 3296.5 1585 3296.5 c 2
 2281 3296.5 l 2
 2297.50260844 3296.5 2297.50260844 3296.5 2313.82248511 3294.98750887 c 0
 2330.14236179 3293.47501775 2330.14236179 3293.47501775 2346.14074277 3290.45024177 c 0
 2362.13912374 3287.42546579 2362.13912374 3287.42546579 2377.70551479 3282.94485673 c 0
 2393.27190585 3278.46424768 2393.27190585 3278.46424768 2408.36988972 3272.46972013 c 0
 2423.46787359 3266.47519257 2423.46787359 3266.47519257 2437.87778626 3259.0853761 c 0
 2452.28769893 3251.69555964 2452.28769893 3251.69555964 2466.08229295 3242.79019103 c 0
 2479.87688696 3233.88482242 2479.87688696 3233.88482242 2492.73415161 3223.64082294 c 0
 2545.751326 3181.39949701 2545.751326 3181.39949701 2570.625663 3118.28361075 c 0
 2595.5 3055.1677245 2595.5 3055.1677245 2595.5 2982 c 0
 2595.5 2947.48711812 2595.5 2947.48711812 2589.65622244 2914.92997113 c 0
 2583.81244487 2882.37282413 2583.81244487 2882.37282413 2571.87047879 2851.56343914 c 0
 2559.92851272 2820.75405414 2559.92851272 2820.75405414 2540.26209986 2793.09532649 c 0
 2520.595687 2765.43659883 2520.595687 2765.43659883 2494.39777772 2743.71150334 c 0
 2449.49853441 2706.47798449 2449.49853441 2706.47798449 2394.66863328 2686.98899225 c 0
 2339.83873215 2667.5 2339.83873215 2667.5 2281 2667.5 c 2
 1597 2667.5 l 2
 1517.33305386 2667.5 1517.33305386 2667.5 1485.77652565 2659.69950988 c 0
 1474.9652635 2657.02706306 1474.9652635 2657.02706306 1468.20781017 2649.23881176 c 0
 1447.76151942 2625.67359531 1447.76151942 2625.67359531 1412.92604497 2556.00264641 c 2
 1056.2646641 1843.67893615 l 2
 981.5 1688.58095511 981.5 1688.58095511 981.5 1581 c 0
 981.5 1521.60905729 981.5 1521.60905729 992.852490022 1489.17337151 c 0
 999.735665577 1469.50715564 999.735665577 1469.50715564 1016.25088647 1432.10204801 c 0
 1032.76610737 1394.69694038 1032.76610737 1394.69694038 1056.35673231 1346.12800668 c 2
 1405.43100874 637.977325559 l 2
 1438.57341203 569.206838731 1438.57341203 569.206838731 1462.54218901 543.183595145 c 0
 1466.12696332 539.29155447 1466.12696332 539.29155447 1469.20496513 536.642399963 c 0
 1472.28296694 533.993245457 1472.28296694 533.993245457 1475.40636494 532.213862541 c 0
 1478.52976294 530.434479625 1478.52976294 530.434479625 1481.49686612 529.382998148 c 0
 1484.4639693 528.331516671 1484.4639693 528.331516671 1488.39980823 527.470551905 c 0
 1524.83661694 519.5 1524.83661694 519.5 1614 519.5 c 2
 2281 519.5 l 2
 2319.60096135 519.5 2319.60096135 519.5 2356.66153612 511.330570222 c 0
 2393.7221109 503.161140444 2393.7221109 503.161140444 2428.27115978 486.817918312 c 0
 2462.82020867 470.474696181 2462.82020867 470.474696181 2492.73415161 446.64082294 c 0
 2545.751326 404.399497007 2545.751326 404.399497007 2570.625663 341.283610754 c 0
 2595.5 278.167724501 2595.5 278.167724501 2595.5 205 c 0
 2595.5 158.541478604 2595.5 158.541478604 2585.39014308 116.393731516 c 0
 2575.28028616 74.2459844285 2575.28028616 74.2459844285 2552.18444705 34.8627466579 c 0
 2529.08860794 -4.52049111276 2529.08860794 -4.52049111276 2494.39777772 -33.2884966631 c 0
 2449.49853441 -70.5220155073 2449.49853441 -70.5220155073 2394.66863328 -90.0110077537 c 0
 2339.83873215 -109.5 2339.83873215 -109.5 2281 -109.5 c 2
EndSplineSet
EndChar

StartChar: D
Encoding: 68 68 39
Width: 2949
Flags: W
LayerCount: 2
Fore
SplineSet
754.5 519.5 m 1
 754.5 2667.5 l 1
 713 2667.5 l 2
 662.560872482 2667.5 662.560872482 2667.5 616.450926108 2676.64299873 c 0
 570.340979734 2685.78599746 570.340979734 2685.78599746 530.323270899 2703.36971621 c 0
 490.305562064 2720.95343496 490.305562064 2720.95343496 457.737837504 2747.92748316 c 0
 425.170112944 2774.90153136 425.170112944 2774.90153136 401.972424176 2809.21802812 c 0
 378.774735408 2843.53452488 378.774735408 2843.53452488 366.137367704 2887.57838862 c 0
 353.5 2931.62225235 353.5 2931.62225235 353.5 2982 c 0
 353.5 3029.49149224 353.5 3029.49149224 364.655443632 3072.74268579 c 0
 375.810887264 3115.99387935 375.810887264 3115.99387935 400.687107857 3155.61299829 c 0
 425.56332845 3195.23211724 425.56332845 3195.23211724 462.459762046 3223.46347931 c 0
 557.913432656 3296.5 557.913432656 3296.5 700 3296.5 c 2
 1384 3296.5 l 2
 1473.07413354 3296.5 1473.07413354 3296.5 1550.71458046 3284.06418907 c 0
 1628.35502738 3271.62837815 1628.35502738 3271.62837815 1695.29821925 3245.51152751 c 0
 1740.19024297 3227.99759897 1740.19024297 3227.99759897 1781.68110577 3203.81580591 c 0
 1823.17196857 3179.63401286 1823.17196857 3179.63401286 1860.52332515 3149.31785953 c 0
 1897.87468173 3119.0017062 1897.87468173 3119.0017062 1930.90264511 3082.79032466 c 0
 1978.27919119 3030.84736451 1978.27919119 3030.84736451 2020.65045394 2966.59802747 c 0
 2063.0217167 2902.34869043 2063.0217167 2902.34869043 2101.02284719 2825.80355615 c 2
 2461.16853161 2104.51178263 l 2
 2497.0284947 2031.18618646 2497.0284947 2031.18618646 2522.38259828 1967.68625424 c 0
 2547.73670186 1904.18632202 2547.73670186 1904.18632202 2563.52016517 1847.2531151 c 0
 2579.82245244 1788.44843599 2579.82245244 1788.44843599 2587.66122622 1722.08357821 c 0
 2595.5 1655.71872043 2595.5 1655.71872043 2595.5 1581 c 0
 2595.5 1342.15055646 2595.5 1342.15055646 2464.95292722 1081.05641091 c 2
 2092.99847399 336.147626887 l 2
 1971.22886522 91.470375616 1971.22886522 91.470375616 1793.89611763 -10.0332172786 c 0
 1620.12179723 -109.5 1620.12179723 -109.5 1348 -109.5 c 2
 668 -109.5 l 2
 606.093723701 -109.5 606.093723701 -109.5 549.609922993 -89.9007836277 c 0
 493.126122286 -70.3015672554 493.126122286 -70.3015672554 448.693211756 -31.2312493754 c 0
 399.723098179 11.8286780804 399.723098179 11.8286780804 376.611549089 73.2054022579 c 0
 353.5 134.582126435 353.5 134.582126435 353.5 205 c 0
 353.5 232.074777405 353.5 232.074777405 356.789749245 257.739673041 c 0
 360.07949849 283.404568676 360.07949849 283.404568676 367.350778118 308.993376716 c 0
 374.622057746 334.582184756 374.622057746 334.582184756 385.590726393 357.555883218 c 0
 396.55939504 380.529581679 396.55939504 380.529581679 412.568991014 402.036916707 c 0
 428.578586989 423.544251736 428.578586989 423.544251736 448.693211756 441.231249375 c 0
 537.704732074 519.5 537.704732074 519.5 668 519.5 c 2
 754.5 519.5 l 1
1383.5 2666.69899502 m 1
 1383.5 520.037664801 l 1
 1400.04867874 520.638208238 1400.04867874 520.638208238 1415.49976676 522.208095938 c 0
 1430.95085477 523.777983638 1430.95085477 523.777983638 1441.41472172 525.573920148 c 0
 1451.87858868 527.369856658 1451.87858868 527.369856658 1460.36184411 529.332865828 c 0
 1468.84509954 531.295874999 1468.84509954 531.295874999 1472.95126698 532.599274643 c 0
 1477.05743442 533.902674286 1477.05743442 533.902674286 1478.29996954 534.570874988 c 0
 1481.27139422 536.584209442 1481.27139422 536.584209442 1488.72519216 545.334736783 c 0
 1496.17899009 554.085264124 1496.17899009 554.085264124 1510.90130218 577.303818432 c 0
 1525.62361426 600.522372741 1525.62361426 600.522372741 1539.43979506 629.718830261 c 2
 1900.54114252 1358.92349038 l 2
 1967.5 1499.1649956 1967.5 1499.1649956 1967.5 1577 c 0
 1967.5 1603.04127685 1967.5 1603.04127685 1965.33145176 1626.12498937 c 0
 1963.16290352 1649.20870189 1963.16290352 1649.20870189 1959.72922257 1665.71628708 c 0
 1956.29554161 1682.22387228 1956.29554161 1682.22387228 1951.66604769 1694.87782233 c 0
 1942.02159371 1721.23932988 1942.02159371 1721.23932988 1922.58494186 1764.83968197 c 0
 1903.14829001 1808.44003407 1903.14829001 1808.44003407 1875.64510578 1864.86898101 c 2
 1536.00118182 2556.14426155 l 2
 1499.81107082 2627.51604639 1499.81107082 2627.51604639 1478.00871581 2649.63902427 c 0
 1473.94486563 2653.76263696 1473.94486563 2653.76263696 1470.67996204 2656.06359277 c 0
 1467.41505846 2658.36454858 1467.41505846 2658.36454858 1464.61092125 2659.38415226 c 0
 1461.80678404 2660.40375593 1461.80678404 2660.40375593 1457.53811706 2661.15429079 c 0
 1434.86878496 2665.14010742 1434.86878496 2665.14010742 1383.5 2666.69899502 c 1
EndSplineSet
EndChar

StartChar: E
Encoding: 69 69 40
Width: 2949
Flags: W
LayerCount: 2
Fore
SplineSet
981.5 519.5 m 1
 2281 519.5 l 2
 2410.99021078 519.5 2410.99021078 519.5 2499.90443168 442.083307668 c 0
 2595.5 358.849235248 2595.5 358.849235248 2595.5 205 c 0
 2595.5 170.762107523 2595.5 170.762107523 2590.17089926 138.743844788 c 0
 2584.84179852 106.725582053 2584.84179852 106.725582053 2573.72332897 76.0216143213 c 0
 2562.60485942 45.3176465898 2562.60485942 45.3176465898 2543.88284782 17.6124145439 c 0
 2525.16083622 -10.092817502 2525.16083622 -10.092817502 2499.90443168 -32.0833076677 c 0
 2455.46342272 -70.7776344295 2455.46342272 -70.7776344295 2399.1133837 -90.1388172147 c 0
 2342.76334467 -109.5 2342.76334467 -109.5 2281 -109.5 c 2
 463 -109.5 l 1
 353.5 -109.5 l 1
 353.5 0 l 1
 353.5 3187 l 1
 353.5 3296.5 l 1
 463 3296.5 l 1
 2281 3296.5 l 2
 2410.99021078 3296.5 2410.99021078 3296.5 2499.90443168 3219.08330767 c 0
 2595.5 3135.84923525 2595.5 3135.84923525 2595.5 2982 c 0
 2595.5 2911.07847955 2595.5 2911.07847955 2572.38533953 2849.4889264 c 0
 2549.27067906 2787.89937325 2549.27067906 2787.89937325 2499.90443168 2744.91669233 c 0
 2455.46342272 2706.22236557 2455.46342272 2706.22236557 2399.1133837 2686.86118279 c 0
 2342.76334467 2667.5 2342.76334467 2667.5 2281 2667.5 c 2
 981.5 2667.5 l 1
 981.5 1907.5 l 1
 1475 1907.5 l 2
 1603.99021078 1907.5 1603.99021078 1907.5 1692.90443168 1830.08330767 c 0
 1788.5 1746.84923525 1788.5 1746.84923525 1788.5 1593 c 0
 1788.5 1547.10241928 1788.5 1547.10241928 1779.21822516 1505.79192253 c 0
 1769.93645031 1464.48142578 1769.93645031 1464.48142578 1748.06845058 1425.19430879 c 0
 1726.20045085 1385.90719179 1726.20045085 1385.90719179 1692.90443168 1356.91669233 c 0
 1648.57919924 1318.32317098 1648.57919924 1318.32317098 1592.46696061 1298.91158549 c 0
 1536.35472199 1279.5 1536.35472199 1279.5 1475 1279.5 c 2
 981.5 1279.5 l 1
 981.5 519.5 l 1
EndSplineSet
EndChar

StartChar: F
Encoding: 70 70 41
Width: 2949
Flags: W
LayerCount: 2
Fore
SplineSet
353.5 205 m 2
 353.5 3187 l 1
 353.5 3296.5 l 1
 463 3296.5 l 1
 2281 3296.5 l 2
 2410.99021078 3296.5 2410.99021078 3296.5 2499.90443168 3219.08330767 c 0
 2595.5 3135.84923525 2595.5 3135.84923525 2595.5 2982 c 0
 2595.5 2911.07847955 2595.5 2911.07847955 2572.38533953 2849.4889264 c 0
 2549.27067906 2787.89937325 2549.27067906 2787.89937325 2499.90443168 2744.91669233 c 0
 2455.46342272 2706.22236557 2455.46342272 2706.22236557 2399.1133837 2686.86118279 c 0
 2342.76334467 2667.5 2342.76334467 2667.5 2281 2667.5 c 2
 981.5 2667.5 l 1
 981.5 2255.5 l 1
 1880 2255.5 l 2
 2009.37393192 2255.5 2009.37393192 2255.5 2098.0840997 2179.79046026 c 0
 2194.5 2097.50447638 2194.5 2097.50447638 2194.5 1942 c 0
 2194.5 1871.07847955 2194.5 1871.07847955 2171.38533953 1809.4889264 c 0
 2148.27067906 1747.89937325 2148.27067906 1747.89937325 2098.90443168 1704.91669233 c 0
 2009.99021078 1627.5 2009.99021078 1627.5 1880 1627.5 c 2
 981.5 1627.5 l 1
 981.5 205 l 2
 981.5 64.0263382247 981.5 64.0263382247 895.173409038 -22.7368308876 c 0
 808.846818075 -109.5 808.846818075 -109.5 668 -109.5 c 0
 574.873048385 -109.5 574.873048385 -109.5 503.364697947 -70.337064187 c 0
 431.85634751 -31.1741283741 431.85634751 -31.1741283741 392.678173755 40.3384861721 c 0
 353.5 111.851100718 353.5 111.851100718 353.5 205 c 2
EndSplineSet
EndChar

StartChar: G
Encoding: 71 71 42
Width: 2949
Flags: W
LayerCount: 2
Fore
SplineSet
1967.5 930.5 m 1
 1679 930.5 l 2
 1552.23341101 930.5 1552.23341101 930.5 1462.39207531 1008.15945967 c 0
 1365.5 1091.91362647 1365.5 1091.91362647 1365.5 1245 c 0
 1365.5 1279.04714644 1365.5 1279.04714644 1370.85909282 1310.97669676 c 0
 1376.21818563 1342.90624708 1376.21818563 1342.90624708 1387.34004747 1373.45444825 c 0
 1398.46190931 1404.00264942 1398.46190931 1404.00264942 1417.06547776 1431.61494558 c 0
 1435.6690462 1459.22724174 1435.6690462 1459.22724174 1460.69321176 1481.23124938 c 0
 1505.00944578 1520.19897239 1505.00944578 1520.19897239 1561.25548353 1539.8494862 c 0
 1617.50152129 1559.5 1617.50152129 1559.5 1679 1559.5 c 2
 2486 1559.5 l 1
 2595.5 1559.5 l 1
 2595.5 1450 l 1
 2595.5 643 l 2
 2595.5 532.371241145 2595.5 532.371241145 2571.63022092 432.965640001 c 0
 2547.76044184 333.560038858 2547.76044184 333.560038858 2499.39371628 247.738592888 c 0
 2401.52767754 74.0860485417 2401.52767754 74.0860485417 2224.41850157 -18.9409933801 c 0
 2052.00808512 -109.5 2052.00808512 -109.5 1831 -109.5 c 2
 1126 -109.5 l 2
 956.464973932 -109.5 956.464973932 -109.5 831.806796015 -68.5243952217 c 0
 701.806341112 -25.7927642121 701.806341112 -25.7927642121 581.408932472 82.9155756287 c 0
 446.475790747 206.012476851 446.475790747 206.012476851 398.395043648 346.556199143 c 0
 353.5 477.787865189 353.5 477.787865189 353.5 668 c 2
 353.5 1692 l 2
 353.5 1903.48803209 353.5 1903.48803209 406.723713739 2048.27942538 c 0
 459.181943902 2190.98837411 459.181943902 2190.98837411 589.781728115 2357.50309898 c 2
 1072.70501387 2975.40494287 l 2
 1209.13226257 3150.16712096 1209.13226257 3150.16712096 1357.65491219 3223.24969458 c 0
 1506.51843611 3296.5 1506.51843611 3296.5 1733 3296.5 c 2
 2281 3296.5 l 2
 2410.99021078 3296.5 2410.99021078 3296.5 2499.90443168 3219.08330767 c 0
 2595.5 3135.84923525 2595.5 3135.84923525 2595.5 2982 c 0
 2595.5 2911.07847955 2595.5 2911.07847955 2572.38533953 2849.4889264 c 0
 2549.27067906 2787.89937325 2549.27067906 2787.89937325 2499.90443168 2744.91669233 c 0
 2455.46342272 2706.22236557 2455.46342272 2706.22236557 2399.1133837 2686.86118279 c 0
 2342.76334467 2667.5 2342.76334467 2667.5 2281 2667.5 c 2
 1790 2667.5 l 2
 1761.87483716 2667.5 1761.87483716 2667.5 1735.8487353 2666.92069789 c 0
 1709.82263343 2666.34139578 1709.82263343 2666.34139578 1691.51538405 2665.43634886 c 0
 1673.20813467 2664.53130193 1673.20813467 2664.53130193 1660.6731886 2663.54417139 c 0
 1648.13824253 2662.55704084 1648.13824253 2662.55704084 1642.81479096 2661.62853185 c 0
 1633.38267457 2659.98339527 1633.38267457 2659.98339527 1630.70121495 2657.35159231 c 0
 1627.06055163 2653.77834867 1627.06055163 2653.77834867 1618.34298604 2643.9854969 c 0
 1609.62542046 2634.19264512 1609.62542046 2634.19264512 1597.14405913 2619.64644074 c 0
 1584.66269781 2605.10023635 1584.66269781 2605.10023635 1567.32765772 2584.25378927 c 0
 1549.99261764 2563.40734219 1549.99261764 2563.40734219 1531.60212964 2540.71241986 c 2
 1085.07683975 1972.31669291 l 2
 1016.86822519 1885.6516297 1016.86822519 1885.6516297 1000.73375516 1796.91204452 c 0
 981.5 1691.12639116 981.5 1691.12639116 981.5 1507 c 2
 981.5 705 l 2
 981.5 607.966905566 981.5 607.966905566 997.62073932 562.828835471 c 0
 999.397835626 557.852965814 999.397835626 557.852965814 1000.96667744 554.552808693 c 0
 1002.53551925 551.252651573 1002.53551925 551.252651573 1004.32014026 548.620207802 c 0
 1006.10476126 545.987764032 1006.10476126 545.987764032 1008.59815937 544.015350185 c 0
 1011.09155749 542.042936339 1011.09155749 542.042936339 1013.99681639 540.413906518 c 0
 1016.90207529 538.784876697 1016.90207529 538.784876697 1021.43314291 536.800194188 c 0
 1060.92981266 519.5 1060.92981266 519.5 1155 519.5 c 2
 1806 519.5 l 2
 1903.82127294 519.5 1903.82127294 519.5 1948.31904607 547.076084755 c 0
 1967.5 558.962873108 1967.5 558.962873108 1967.5 623 c 2
 1967.5 930.5 l 1
EndSplineSet
EndChar

StartChar: H
Encoding: 72 72 43
Width: 2949
Flags: W
LayerCount: 2
Fore
SplineSet
1967.5 1279.5 m 1
 981.5 1279.5 l 1
 981.5 205 l 2
 981.5 64.0263382247 981.5 64.0263382247 895.173409038 -22.7368308876 c 0
 808.846818075 -109.5 808.846818075 -109.5 668 -109.5 c 0
 574.873048385 -109.5 574.873048385 -109.5 503.364697947 -70.337064187 c 0
 431.85634751 -31.1741283741 431.85634751 -31.1741283741 392.678173755 40.3384861721 c 0
 353.5 111.851100718 353.5 111.851100718 353.5 205 c 2
 353.5 2982 l 2
 353.5 3075.12695162 353.5 3075.12695162 392.662935813 3146.63530205 c 0
 431.825871626 3218.14365249 431.825871626 3218.14365249 503.338486172 3257.32182625 c 0
 574.851100718 3296.5 574.851100718 3296.5 668 3296.5 c 0
 808.824903975 3296.5 808.824903975 3296.5 895.162451988 3209.74713601 c 0
 981.5 3122.99427203 981.5 3122.99427203 981.5 2982 c 2
 981.5 1907.5 l 1
 1967.5 1907.5 l 1
 1967.5 2982 l 2
 1967.5 3122.97366178 1967.5 3122.97366178 2053.82659096 3209.73683089 c 0
 2140.15318192 3296.5 2140.15318192 3296.5 2281 3296.5 c 0
 2374.12695162 3296.5 2374.12695162 3296.5 2445.63530205 3257.33706419 c 0
 2517.14365249 3218.17412837 2517.14365249 3218.17412837 2556.32182625 3146.66151383 c 0
 2595.5 3075.14889928 2595.5 3075.14889928 2595.5 2982 c 2
 2595.5 205 l 2
 2595.5 149.149121733 2595.5 149.149121733 2580.97190748 100.136519245 c 0
 2566.44381496 51.1239167574 2566.44381496 51.1239167574 2538.90327345 12.8919557184 c 0
 2511.36273195 -25.3400053206 2511.36273195 -25.3400053206 2473.1351908 -52.8856542799 c 0
 2434.90764966 -80.4313032391 2434.90764966 -80.4313032391 2385.88706869 -94.9656516196 c 0
 2336.86648772 -109.5 2336.86648772 -109.5 2281 -109.5 c 0
 2140.17509602 -109.5 2140.17509602 -109.5 2053.83754801 -22.7471360138 c 0
 1967.5 64.0057279723 1967.5 64.0057279723 1967.5 205 c 2
 1967.5 1279.5 l 1
EndSplineSet
EndChar

StartChar: I
Encoding: 73 73 44
Width: 2949
Flags: W
LayerCount: 2
Fore
SplineSet
1788.5 2667.5 m 1
 1788.5 519.5 l 1
 2281 519.5 l 2
 2410.99021078 519.5 2410.99021078 519.5 2499.90443168 442.083307668 c 0
 2595.5 358.849235248 2595.5 358.849235248 2595.5 205 c 0
 2595.5 170.762107523 2595.5 170.762107523 2590.17089926 138.743844788 c 0
 2584.84179852 106.725582053 2584.84179852 106.725582053 2573.72332897 76.0216143213 c 0
 2562.60485942 45.3176465898 2562.60485942 45.3176465898 2543.88284782 17.6124145439 c 0
 2525.16083622 -10.092817502 2525.16083622 -10.092817502 2499.90443168 -32.0833076677 c 0
 2455.46342272 -70.7776344295 2455.46342272 -70.7776344295 2399.1133837 -90.1388172147 c 0
 2342.76334467 -109.5 2342.76334467 -109.5 2281 -109.5 c 2
 668 -109.5 l 2
 606.093723701 -109.5 606.093723701 -109.5 549.609922993 -89.9007836277 c 0
 493.126122286 -70.3015672554 493.126122286 -70.3015672554 448.693211756 -31.2312493754 c 0
 399.723098179 11.8286780804 399.723098179 11.8286780804 376.611549089 73.2054022579 c 0
 353.5 134.582126435 353.5 134.582126435 353.5 205 c 0
 353.5 232.074777405 353.5 232.074777405 356.789749245 257.739673041 c 0
 360.07949849 283.404568676 360.07949849 283.404568676 367.350778118 308.993376716 c 0
 374.622057746 334.582184756 374.622057746 334.582184756 385.590726393 357.555883218 c 0
 396.55939504 380.529581679 396.55939504 380.529581679 412.568991014 402.036916707 c 0
 428.578586989 423.544251736 428.578586989 423.544251736 448.693211756 441.231249375 c 0
 537.704732074 519.5 537.704732074 519.5 668 519.5 c 2
 1160.5 519.5 l 1
 1160.5 2667.5 l 1
 668 2667.5 l 2
 606.093723701 2667.5 606.093723701 2667.5 549.609922993 2687.09921637 c 0
 493.126122286 2706.69843274 493.126122286 2706.69843274 448.693211756 2745.76875062 c 0
 399.723098179 2788.82867808 399.723098179 2788.82867808 376.611549089 2850.20540226 c 0
 353.5 2911.58212644 353.5 2911.58212644 353.5 2982 c 0
 353.5 3134.52687352 353.5 3134.52687352 448.693211756 3218.23124938 c 0
 537.704732074 3296.5 537.704732074 3296.5 668 3296.5 c 2
 2281 3296.5 l 2
 2410.99021078 3296.5 2410.99021078 3296.5 2499.90443168 3219.08330767 c 0
 2595.5 3135.84923525 2595.5 3135.84923525 2595.5 2982 c 0
 2595.5 2911.07847955 2595.5 2911.07847955 2572.38533953 2849.4889264 c 0
 2549.27067906 2787.89937325 2549.27067906 2787.89937325 2499.90443168 2744.91669233 c 0
 2455.46342272 2706.22236557 2455.46342272 2706.22236557 2399.1133837 2686.86118279 c 0
 2342.76334467 2667.5 2342.76334467 2667.5 2281 2667.5 c 2
 1788.5 2667.5 l 1
EndSplineSet
EndChar

StartChar: J
Encoding: 74 74 45
Width: 2949
Flags: W
LayerCount: 2
Fore
SplineSet
2390.5 2982 m 2
 2390.5 696 l 2
 2390.5 658.971724255 2390.5 658.971724255 2389.75080292 626.655959666 c 0
 2389.00160584 594.340195077 2389.00160584 594.340195077 2387.41467878 564.791741423 c 0
 2385.82775172 535.24328777 2385.82775172 535.24328777 2383.29032899 509.079977072 c 0
 2380.75290627 482.916666375 2380.75290627 482.916666375 2377.24259218 459.953361705 c 0
 2362.2556004 361.91345717 2362.2556004 361.91345717 2298.73663148 248.058701557 c 1
 2180.50766333 51.7986144224 2180.50766333 51.7986144224 2002.62157902 -30.8128891357 c 0
 1916.78649241 -70.6752852921 1916.78649241 -70.6752852921 1817.45168847 -90.0876426461 c 0
 1718.11688452 -109.5 1718.11688452 -109.5 1606 -109.5 c 2
 1368 -109.5 l 2
 1154.70883994 -109.5 1154.70883994 -109.5 999.079134592 -52.907379872 c 0
 831.599441924 7.99432655267 831.599441924 7.99432655267 707.777646879 171.79779248 c 0
 558.5 367.560347957 558.5 367.560347957 558.5 651 c 2
 558.5 1245 l 2
 558.5 1385.97366178 558.5 1385.97366178 644.826590962 1472.73683089 c 0
 731.153181925 1559.5 731.153181925 1559.5 872 1559.5 c 0
 1013.15036055 1559.5 1013.15036055 1559.5 1099.82518027 1472.83740531 c 0
 1186.5 1386.17481062 1186.5 1386.17481062 1186.5 1245 c 2
 1186.5 713 l 2
 1186.5 607.363078046 1186.5 607.363078046 1202.85962652 562.551927142 c 0
 1205.80742986 554.477509308 1205.80742986 554.477509308 1208.55941658 550.188280628 c 0
 1211.31140331 545.899051947 1211.31140331 545.899051947 1215.35305681 543.015107712 c 0
 1219.3947103 540.131163477 1219.3947103 540.131163477 1227.13882792 536.857227574 c 0
 1236.99505284 532.690368255 1236.99505284 532.690368255 1254.79372017 528.954508626 c 0
 1272.5923875 525.218648996 1272.5923875 525.218648996 1302.96061472 522.359324498 c 0
 1333.32884193 519.5 1333.32884193 519.5 1368 519.5 c 2
 1593 519.5 l 2
 1634.25529557 519.5 1634.25529557 519.5 1666.9605309 522.683489942 c 0
 1699.66576624 525.866979884 1699.66576624 525.866979884 1720.73245943 531.17791094 c 0
 1732.62802809 534.176793798 1732.62802809 534.176793798 1738.13139505 537.94882334 c 0
 1743.63476201 541.720852883 1743.63476201 541.720852883 1748.82875863 549.391986347 c 0
 1762.5 569.583358223 1762.5 569.583358223 1762.5 631 c 2
 1762.5 2982 l 2
 1762.5 3075.12695162 1762.5 3075.12695162 1801.66293581 3146.63530205 c 0
 1840.82587163 3218.14365249 1840.82587163 3218.14365249 1912.33848617 3257.32182625 c 0
 1983.85110072 3296.5 1983.85110072 3296.5 2077 3296.5 c 0
 2217.82490398 3296.5 2217.82490398 3296.5 2304.16245199 3209.74713601 c 0
 2390.5 3122.99427203 2390.5 3122.99427203 2390.5 2982 c 2
EndSplineSet
EndChar

StartChar: K
Encoding: 75 75 46
Width: 2949
Flags: W
LayerCount: 2
Fore
SplineSet
353.5 205 m 2
 353.5 2982 l 2
 353.5 3075.12695162 353.5 3075.12695162 392.662935813 3146.63530205 c 0
 431.825871626 3218.14365249 431.825871626 3218.14365249 503.338486172 3257.32182625 c 0
 574.851100718 3296.5 574.851100718 3296.5 668 3296.5 c 0
 808.824903975 3296.5 808.824903975 3296.5 895.162451988 3209.74713601 c 0
 981.5 3122.99427203 981.5 3122.99427203 981.5 2982 c 2
 981.5 2276.57076589 l 1
 2051.43514478 3184.73171677 l 2
 2113.26357243 3236.46570726 2113.26357243 3236.46570726 2170.4605449 3264.48285363 c 0
 2227.65751737 3292.5 2227.65751737 3292.5 2290 3292.5 c 0
 2315.48664419 3292.5 2315.48664419 3292.5 2340.38925075 3288.38922634 c 0
 2365.29185732 3284.27845268 2365.29185732 3284.27845268 2388.91554784 3276.13349444 c 0
 2412.53923836 3267.9885362 2412.53923836 3267.9885362 2434.39368209 3256.14064781 c 0
 2456.24812582 3244.29275943 2456.24812582 3244.29275943 2476.12162684 3228.51546801 c 0
 2495.99512786 3212.7381766 2495.99512786 3212.7381766 2512.9141729 3193.66579854 c 0
 2553.51512947 3147.89744751 2553.51512947 3147.89744751 2574.50756473 3090.26924033 c 0
 2595.5 3032.64103314 2595.5 3032.64103314 2595.5 2970 c 0
 2595.5 2940.45794015 2595.5 2940.45794015 2589.23604303 2911.81867849 c 0
 2582.97208605 2883.17941683 2582.97208605 2883.17941683 2571.76184616 2857.61365248 c 0
 2560.55160627 2832.04788814 2560.55160627 2832.04788814 2543.98996972 2807.03733775 c 0
 2527.42833317 2782.02678736 2527.42833317 2782.02678736 2507.93361274 2759.92249932 c 0
 2488.43889231 2737.81821128 2488.43889231 2737.81821128 2464.50533554 2715.92155296 c 2
 1147.51512068 1592.79826286 l 1
 2455.15587546 472.229245952 l 2
 2595.5 352.523963258 2595.5 352.523963258 2595.5 213 c 0
 2595.5 81.1788434184 2595.5 81.1788434184 2512.62127689 -11.4946378728 c 0
 2470.26609706 -58.8554298671 2470.26609706 -58.8554298671 2412.21339491 -84.1777149336 c 0
 2354.16069277 -109.5 2354.16069277 -109.5 2290 -109.5 c 0
 2257.97672882 -109.5 2257.97672882 -109.5 2226.51458534 -102.000288924 c 0
 2195.05244185 -94.5005778488 2195.05244185 -94.5005778488 2166.06897299 -80.2073603282 c 0
 2118.97392407 -56.9824046984 2118.97392407 -56.9824046984 2072.73708282 -20.1178961289 c 0
 2036.25283456 8.97089640019 2036.25283456 8.97089640019 2000.77350282 36.5659321973 c 2
 1998.65723382 38.2119191941 l 1
 1996.62405367 39.9595021333 l 1
 981.5 912.490879371 l 1
 981.5 205 l 2
 981.5 64.0263382247 981.5 64.0263382247 895.173409038 -22.7368308876 c 0
 808.846818075 -109.5 808.846818075 -109.5 668 -109.5 c 0
 574.873048385 -109.5 574.873048385 -109.5 503.364697947 -70.337064187 c 0
 431.85634751 -31.1741283741 431.85634751 -31.1741283741 392.678173755 40.3384861721 c 0
 353.5 111.851100718 353.5 111.851100718 353.5 205 c 2
EndSplineSet
EndChar

StartChar: L
Encoding: 76 76 47
Width: 2949
Flags: W
LayerCount: 2
Fore
SplineSet
981.5 519.5 m 1
 2281 519.5 l 2
 2410.99021078 519.5 2410.99021078 519.5 2499.90443168 442.083307668 c 0
 2595.5 358.849235248 2595.5 358.849235248 2595.5 205 c 0
 2595.5 170.762107523 2595.5 170.762107523 2590.17089926 138.743844788 c 0
 2584.84179852 106.725582053 2584.84179852 106.725582053 2573.72332897 76.0216143213 c 0
 2562.60485942 45.3176465898 2562.60485942 45.3176465898 2543.88284782 17.6124145439 c 0
 2525.16083622 -10.092817502 2525.16083622 -10.092817502 2499.90443168 -32.0833076677 c 0
 2455.46342272 -70.7776344295 2455.46342272 -70.7776344295 2399.1133837 -90.1388172147 c 0
 2342.76334467 -109.5 2342.76334467 -109.5 2281 -109.5 c 2
 463 -109.5 l 1
 353.5 -109.5 l 1
 353.5 0 l 1
 353.5 2982 l 2
 353.5 3075.12695162 353.5 3075.12695162 392.662935813 3146.63530205 c 0
 431.825871626 3218.14365249 431.825871626 3218.14365249 503.338486172 3257.32182625 c 0
 574.851100718 3296.5 574.851100718 3296.5 668 3296.5 c 0
 808.824903975 3296.5 808.824903975 3296.5 895.162451988 3209.74713601 c 0
 981.5 3122.99427203 981.5 3122.99427203 981.5 2982 c 2
 981.5 519.5 l 1
EndSplineSet
EndChar

StartChar: M
Encoding: 77 77 48
Width: 2949
Flags: W
LayerCount: 2
Fore
SplineSet
1474.90990006 2658.28180206 m 1
 1883.96096454 3249.31550443 l 1
 1916.6170856 3296.5 l 1
 1974 3296.5 l 1
 2486 3296.5 l 1
 2595.5 3296.5 l 1
 2595.5 3187 l 1
 2595.5 205 l 2
 2595.5 149.149121733 2595.5 149.149121733 2580.97190748 100.136519245 c 0
 2566.44381496 51.1239167574 2566.44381496 51.1239167574 2538.90327345 12.8919557184 c 0
 2511.36273195 -25.3400053206 2511.36273195 -25.3400053206 2473.1351908 -52.8856542799 c 0
 2434.90764966 -80.4313032391 2434.90764966 -80.4313032391 2385.88706869 -94.9656516196 c 0
 2336.86648772 -109.5 2336.86648772 -109.5 2281 -109.5 c 0
 2140.17509602 -109.5 2140.17509602 -109.5 2053.83754801 -22.7471360138 c 0
 1967.5 64.0057279723 1967.5 64.0057279723 1967.5 205 c 2
 1967.5 2276.04513961 l 1
 1788.5 2010.53614218 l 1
 1788.5 1978 l 2
 1788.5 1902.83155682 1788.5 1902.83155682 1767.77869947 1838.45837441 c 0
 1747.05739893 1774.085192 1747.05739893 1774.085192 1708.20191018 1726.08494568 c 0
 1669.34642142 1678.08469935 1669.34642142 1678.08469935 1609.36471382 1650.79234968 c 0
 1549.38300621 1623.5 1549.38300621 1623.5 1475 1623.5 c 0
 1401.88831376 1623.5 1401.88831376 1623.5 1338.07841085 1652.29827687 c 0
 1274.26850793 1681.09655374 1274.26850793 1681.09655374 1232.7188488 1737.71814804 c 0
 1196.01576393 1787.73509703 1196.01576393 1787.73509703 1178.25788197 1848.84014403 c 0
 1160.5 1909.94519103 1160.5 1909.94519103 1160.5 1978 c 2
 1160.5 2010.53614218 l 1
 981.5 2276.04513961 l 1
 981.5 205 l 2
 981.5 64.0263382247 981.5 64.0263382247 895.173409038 -22.7368308876 c 0
 808.846818075 -109.5 808.846818075 -109.5 668 -109.5 c 0
 574.873048385 -109.5 574.873048385 -109.5 503.364697947 -70.337064187 c 0
 431.85634751 -31.1741283741 431.85634751 -31.1741283741 392.678173755 40.3384861721 c 0
 353.5 111.851100718 353.5 111.851100718 353.5 205 c 2
 353.5 3187 l 1
 353.5 3296.5 l 1
 463 3296.5 l 1
 975 3296.5 l 1
 1032.31752979 3296.5 l 1
 1064.980596 3249.39985853 l 1
 1474.90990006 2658.28180206 l 1
EndSplineSet
EndChar

StartChar: N
Encoding: 78 78 49
Width: 2949
Flags: W
LayerCount: 2
Fore
SplineSet
762.310724837 2447.1513842 m 1
 709.970338228 2567.5 l 1
 881 2567.5 l 1
 881 2457.5 l 1
 762.310724837 2447.1513842 l 1
2186.57377578 713.059081267 m 1
 2239.25397597 590.5 l 1
 2068 590.5 l 1
 2068 700.5 l 1
 2186.57377578 713.059081267 l 1
981.5 1943.15958032 m 1
 981.5 205 l 2
 981.5 64.0263382247 981.5 64.0263382247 895.173409038 -22.7368308876 c 0
 808.846818075 -109.5 808.846818075 -109.5 668 -109.5 c 0
 574.873048385 -109.5 574.873048385 -109.5 503.364697947 -70.337064187 c 0
 431.85634751 -31.1741283741 431.85634751 -31.1741283741 392.678173755 40.3384861721 c 0
 353.5 111.851100718 353.5 111.851100718 353.5 205 c 2
 353.5 3187 l 1
 353.5 3296.5 l 1
 463 3296.5 l 1
 1004 3296.5 l 1
 1076.12007971 3296.5 l 1
 1104.60029365 3230.24154158 l 1
 1967.5 1222.72838003 l 1
 1967.5 2982 l 2
 1967.5 3122.97366178 1967.5 3122.97366178 2053.82659096 3209.73683089 c 0
 2140.15318192 3296.5 2140.15318192 3296.5 2281 3296.5 c 0
 2374.12695162 3296.5 2374.12695162 3296.5 2445.63530205 3257.33706419 c 0
 2517.14365249 3218.17412837 2517.14365249 3218.17412837 2556.32182625 3146.66151383 c 0
 2595.5 3075.14889928 2595.5 3075.14889928 2595.5 2982 c 2
 2595.5 0 l 1
 2595.5 -109.5 l 1
 2486 -109.5 l 1
 1946 -109.5 l 1
 1874.21484596 -109.5 l 1
 1845.58537573 -43.670965559 l 1
 981.5 1943.15958032 l 1
EndSplineSet
EndChar

StartChar: O
Encoding: 79 79 50
Width: 2949
Flags: W
LayerCount: 2
Fore
SplineSet
2067.64654988 2900.55349969 m 2
 2478.10758524 2084.63705135 l 2
 2595.5 1844.31484377 2595.5 1844.31484377 2595.5 1581 c 0
 2595.5 1427.32069274 2595.5 1427.32069274 2559.03395717 1310.39782524 c 0
 2547.30726383 1272.79795138 2547.30726383 1272.79795138 2531.15551434 1230.89462415 c 0
 2515.00376485 1188.99129693 2515.00376485 1188.99129693 2494.7782613 1143.32776353 c 0
 2474.55275774 1097.66423014 2474.55275774 1097.66423014 2449.20591025 1045.56237697 c 2
 2071.99745683 291.145470117 l 2
 1976.18869677 98.3941185308 1976.18869677 98.3941185308 1823.63123199 -5.55294073462 c 0
 1671.0737672 -109.5 1671.0737672 -109.5 1475 -109.5 c 0
 1376.48363634 -109.5 1376.48363634 -109.5 1287.70626358 -82.6639869123 c 0
 1198.92889082 -55.8279738245 1198.92889082 -55.8279738245 1123.84061534 -4.40385650388 c 0
 1048.75233986 47.0202608168 1048.75233986 47.0202608168 986.61347378 121.329901149 c 0
 924.474607701 195.639541482 924.474607701 195.639541482 877.002543174 291.145470117 c 2
 499.794089747 1045.56237697 l 2
 423.923300291 1201.51899974 423.923300291 1201.51899974 389.966042833 1310.39782524 c 0
 377.490764308 1350.39792464 377.490764308 1350.39792464 369.333217919 1394.35971481 c 0
 361.17567153 1438.32150498 361.17567153 1438.32150498 357.337835765 1484.45657083 c 0
 353.5 1530.59163668 353.5 1530.59163668 353.5 1581 c 0
 353.5 1653.315091 353.5 1653.315091 359.990920354 1717.41133529 c 0
 366.481840707 1781.50757958 366.481840707 1781.50757958 379.960424202 1838.28969729 c 0
 406.139016496 1948.57397971 406.139016496 1948.57397971 470.639396625 2084.13410066 c 2
 881.295355701 2900.43801932 l 2
 978.385958182 3091.21253647 978.385958182 3091.21253647 1129.88942097 3193.85626824 c 0
 1281.39288376 3296.5 1281.39288376 3296.5 1475 3296.5 c 0
 1603.63338837 3296.5 1603.63338837 3296.5 1715.39157614 3249.51669017 c 0
 1827.14976391 3202.53338033 1827.14976391 3202.53338033 1915.1427181 3114.55406463 c 0
 2003.1356723 3026.57474892 2003.1356723 3026.57474892 2067.64654988 2900.55349969 c 2
1884.41846525 1863.30785942 m 1
 1515.69707837 2605.76043463 l 2
 1505.62334213 2626.53751562 1505.62334213 2626.53751562 1497.06110945 2641.9076565 c 0
 1488.49887677 2657.27779737 1488.49887677 2657.27779737 1481.75858913 2667.29373881 c 1
 1475 2667.5 l 2
 1473.33899993 2667.5 1473.33899993 2667.5 1471.25897544 2667.44118046 c 0
 1469.17895094 2667.38236092 1469.17895094 2667.38236092 1468.16053629 2667.3289805 c 0
 1453.64248649 2645.21072358 1453.64248649 2645.21072358 1432.73431068 2604.61548703 c 2
 1064.58153475 1863.30785942 l 2
 981.5 1704.14112968 981.5 1704.14112968 981.5 1581 c 0
 981.5 1476.84944354 981.5 1476.84944354 1039.85192808 1360.14558738 c 2
 1432.2498888 582.338942582 l 2
 1453.98730003 541.454819262 1453.98730003 541.454819262 1469.80096374 519.642165711 c 0
 1471.5309991 519.550092024 1471.5309991 519.550092024 1472.47579862 519.525046012 c 0
 1473.42059814 519.5 1473.42059814 519.5 1475 519.5 c 0
 1477.42195989 519.5 1477.42195989 519.5 1479.52344546 519.649776691 c 0
 1496.12738363 541.104210802 1496.12738363 541.104210802 1516.14807192 581.145587384 c 2
 1909.14807192 1360.14558738 l 2
 1967.5 1476.84944354 1967.5 1476.84944354 1967.5 1581 c 0
 1967.5 1620.09519266 1967.5 1620.09519266 1958.948085 1663.50268603 c 0
 1950.39616999 1706.9101794 1950.39616999 1706.9101794 1931.64802995 1757.82681263 c 0
 1912.89988991 1808.74344585 1912.89988991 1808.74344585 1884.41846525 1863.30785942 c 1
EndSplineSet
EndChar

StartChar: P
Encoding: 80 80 51
Width: 2949
Flags: W
LayerCount: 2
Fore
SplineSet
981.5 1094.5 m 1
 981.5 205 l 2
 981.5 64.0263382247 981.5 64.0263382247 895.173409038 -22.7368308876 c 0
 808.846818075 -109.5 808.846818075 -109.5 668 -109.5 c 0
 574.873048385 -109.5 574.873048385 -109.5 503.364697947 -70.337064187 c 0
 431.85634751 -31.1741283741 431.85634751 -31.1741283741 392.678173755 40.3384861721 c 0
 353.5 111.851100718 353.5 111.851100718 353.5 205 c 2
 353.5 3187 l 1
 353.5 3296.5 l 1
 463 3296.5 l 1
 1823 3296.5 l 2
 1879.18003923 3296.5 1879.18003923 3296.5 1929.50221874 3292.36551159 c 0
 1979.82439824 3288.23102318 1979.82439824 3288.23102318 2027.23016527 3279.30354835 c 0
 2074.63593229 3270.37607351 2074.63593229 3270.37607351 2116.88934467 3256.62378363 c 0
 2245.75808178 3214.68065693 2245.75808178 3214.68065693 2368.76301352 3099.00639667 c 0
 2403.67525014 3066.58531189 2403.67525014 3066.58531189 2432.46530295 3033.87684231 c 0
 2461.25535576 3001.16837272 2461.25535576 3001.16837272 2485.06774678 2966.56983867 c 0
 2508.8801378 2931.97130462 2508.8801378 2931.97130462 2526.67860565 2895.44898379 c 0
 2544.47707351 2858.92666297 2544.47707351 2858.92666297 2555.86958247 2821.00588315 c 0
 2595.5 2689.09320765 2595.5 2689.09320765 2595.5 2482 c 2
 2595.5 1925 l 2
 2595.5 1732.27447371 2595.5 1732.27447371 2560.10978522 1603.07210231 c 0
 2540.55169703 1531.6695581 2540.55169703 1531.6695581 2499.81142134 1462.75805363 c 0
 2459.07114566 1393.84654917 2459.07114566 1393.84654917 2399.73524826 1328.1286802 c 0
 2336.73039781 1256.57999553 2336.73039781 1256.57999553 2266.76860651 1208.10467262 c 0
 2196.80681522 1159.6293497 2196.80681522 1159.6293497 2119.16079922 1136.17708365 c 0
 1981.17586012 1094.5 1981.17586012 1094.5 1769 1094.5 c 2
 981.5 1094.5 l 1
981.5 2667.5 m 1
 981.5 1723.5 l 1
 1782 1723.5 l 2
 1830.93664119 1723.5 1830.93664119 1723.5 1870.53017148 1730.01528122 c 0
 1910.12370176 1736.53056243 1910.12370176 1736.53056243 1924.36623747 1741.84202572 c 0
 1938.60877318 1747.15348901 1938.60877318 1747.15348901 1941.24942604 1749.60505684 c 0
 1942.29015776 1750.71838528 1942.29015776 1750.71838528 1944.83730102 1756.38785649 c 0
 1947.38444428 1762.05732771 1947.38444428 1762.05732771 1951.39975275 1775.45853152 c 0
 1955.41506122 1788.85973533 1955.41506122 1788.85973533 1958.90962032 1806.17950622 c 0
 1962.40417941 1823.4992771 1962.40417941 1823.4992771 1964.95208971 1850.90585428 c 0
 1967.5 1878.31243146 1967.5 1878.31243146 1967.5 1909 c 2
 1967.5 2482 l 2
 1967.5 2512.82032375 1967.5 2512.82032375 1964.92493524 2540.32257611 c 0
 1962.34987047 2567.82482847 1962.34987047 2567.82482847 1958.83100133 2585.13381993 c 0
 1955.31213219 2602.4428114 1955.31213219 2602.4428114 1951.28004651 2615.81848254 c 0
 1947.24796083 2629.19415367 1947.24796083 2629.19415367 1944.73223867 2634.77727326 c 0
 1942.21651651 2640.36039285 1942.21651651 2640.36039285 1941.24942604 2641.39494316 c 0
 1938.49890424 2643.94851273 1938.49890424 2643.94851273 1924.11200526 2649.27545885 c 0
 1909.72510628 2654.60240498 1909.72510628 2654.60240498 1870.23571386 2661.05120249 c 0
 1830.74632145 2667.5 1830.74632145 2667.5 1782 2667.5 c 2
 981.5 2667.5 l 1
EndSplineSet
EndChar

StartChar: Q
Encoding: 81 81 52
Width: 2949
Flags: W
LayerCount: 2
Fore
SplineSet
1643.21928227 -40.384842425 m 1
 1551.61133666 190.491939403 l 1
 1397.99109808 59.6302546821 l 2
 1199.29261705 -109.5 1199.29261705 -109.5 958 -109.5 c 0
 871.418093929 -109.5 871.418093929 -109.5 792.458043564 -87.9493081567 c 0
 713.4979932 -66.3986163134 713.4979932 -66.3986163134 643.803828608 -23.4111317194 c 0
 574.109664017 19.5763528746 574.109664017 19.5763528746 516.613401146 82.7412613806 c 0
 419.26367474 192.109472528 419.26367474 192.109472528 385.265732351 303.547172582 c 0
 353.5 407.668184177 353.5 407.668184177 353.5 557 c 2
 353.5 1630 l 2
 353.5 1709.80649681 353.5 1709.80649681 363.068149489 1782.82738206 c 0
 372.636298978 1855.84826731 372.636298978 1855.84826731 392.653252441 1924.17175778 c 0
 412.670205903 1992.49524825 412.670205903 1992.49524825 442.997681374 2053.34460609 c 0
 530.886762079 2229.68615904 530.886762079 2229.68615904 720.185474239 2389.52065209 c 2
 1554.5303075 3101.96121031 l 2
 1662.12329955 3195.31019492 1662.12329955 3195.31019492 1745.15647748 3241.62802207 c 0
 1843.52453548 3296.5 1843.52453548 3296.5 1974 3296.5 c 0
 2063.7041601 3296.5 2063.7041601 3296.5 2144.60375969 3276.11192699 c 0
 2225.50335928 3255.72385398 2225.50335928 3255.72385398 2296.86922449 3214.16627901 c 0
 2368.2350897 3172.60870404 2368.2350897 3172.60870404 2425.54170839 3111.22332245 c 0
 2482.05138812 3050.69160146 2482.05138812 3050.69160146 2520.13088454 2977.91153806 c 0
 2558.21038095 2905.13147467 2558.21038095 2905.13147467 2576.85519048 2824.09399486 c 0
 2595.5 2743.05651505 2595.5 2743.05651505 2595.5 2654 c 2
 2595.5 1569 l 2
 2595.5 1483.21971736 2595.5 1483.21971736 2586.97930144 1407.09119142 c 0
 2578.45860287 1330.96266548 2578.45860287 1330.96266548 2560.21064483 1260.78004612 c 0
 2541.96268678 1190.59742675 2541.96268678 1190.59742675 2513.98699042 1129.75517804 c 0
 2432.59982289 952.752317176 2432.59982289 952.752317176 2234.64318868 781.189900859 c 2
 2052.54775211 623.925660185 l 1
 2096.02292492 519.5 l 1
 2265 519.5 l 2
 2402.03671146 519.5 2402.03671146 519.5 2495.46592266 438.029727826 c 0
 2544.98138705 394.852242883 2544.98138705 394.852242883 2570.24069352 334.035331131 c 0
 2595.5 273.21841938 2595.5 273.21841938 2595.5 205 c 0
 2595.5 127.900297888 2595.5 127.900297888 2565.68007285 67.0301765001 c 0
 2535.8601457 6.16005511194 2535.8601457 6.16005511194 2483.62568521 -31.8965256542 c 0
 2431.39122472 -69.9531064204 2431.39122472 -69.9531064204 2363.32980452 -89.7265532102 c 0
 2295.26838432 -109.5 2295.26838432 -109.5 2216 -109.5 c 2
 1745 -109.5 l 1
 1670.6429909 -109.5 l 1
 1643.21928227 -40.384842425 l 1
1809.56449702 1235.693536 m 1
 1863.07108022 1281.58389107 1863.07108022 1281.58389107 1896.71007178 1319.6577144 c 0
 1930.34906334 1357.73153773 1930.34906334 1357.73153773 1940.32224178 1378.46525079 c 0
 1950.79265741 1400.23269381 1950.79265741 1400.23269381 1959.1463287 1457.11369342 c 0
 1967.5 1513.99469303 1967.5 1513.99469303 1967.5 1593 c 2
 1967.5 2613 l 2
 1967.5 2625.52760942 1967.5 2625.52760942 1966.89517467 2637.23922711 c 1
 1957.38960155 2628.89484616 1957.38960155 2628.89484616 1950.59429097 2623.28252487 c 2
 1128.51589621 1912.07983099 l 2
 1082.23634793 1872.28806984 1082.23634793 1872.28806984 1052.00351643 1837.15734416 c 0
 1021.77068493 1802.02661847 1021.77068493 1802.02661847 1008.8132415 1776.27785267 c 0
 981.5 1722.00153944 981.5 1722.00153944 981.5 1614 c 2
 981.5 553 l 2
 981.5 540.214436984 981.5 540.214436984 982.151856739 529.024369811 c 1
 995.857542693 537.925389767 995.857542693 537.925389767 1012.20300352 552.807077984 c 2
 1307.71423408 809.809762917 l 1
 1229.61701855 1007.60738356 l 2
 1195.64187337 1088.24386324 1195.64187337 1088.24386324 1180.07093669 1140.28730259 c 0
 1164.5 1192.33074194 1164.5 1192.33074194 1164.5 1241 c 0
 1164.5 1302.97425118 1164.5 1302.97425118 1189.35222724 1359.60795153 c 0
 1214.20445449 1416.24165188 1214.20445449 1416.24165188 1259.54775167 1459.35495083 c 0
 1352.25202752 1547.5 1352.25202752 1547.5 1479 1547.5 c 0
 1602.88310194 1547.5 1602.88310194 1547.5 1670.81688862 1488.9363908 c 0
 1676.02860433 1484.44353242 1676.02860433 1484.44353242 1680.93831044 1479.55823237 c 0
 1685.84801654 1474.67293233 1685.84801654 1474.67293233 1690.42876874 1469.42118508 c 0
 1695.00952093 1464.16943784 1695.00952093 1464.16943784 1699.23849183 1458.53638976 c 0
 1703.46746274 1452.90334169 1703.46746274 1452.90334169 1707.22871837 1447.02637976 c 0
 1742.29308953 1392.23829983 1742.29308953 1392.23829983 1809.56449702 1235.693536 c 1
EndSplineSet
EndChar

StartChar: R
Encoding: 82 82 53
Width: 2949
Flags: W
LayerCount: 2
Fore
SplineSet
981.5 1517.36665581 m 1
 981.5 205 l 2
 981.5 64.0263382247 981.5 64.0263382247 895.173409038 -22.7368308876 c 0
 808.846818075 -109.5 808.846818075 -109.5 668 -109.5 c 0
 574.873048385 -109.5 574.873048385 -109.5 503.364697947 -70.337064187 c 0
 431.85634751 -31.1741283741 431.85634751 -31.1741283741 392.678173755 40.3384861721 c 0
 353.5 111.851100718 353.5 111.851100718 353.5 205 c 2
 353.5 3187 l 1
 353.5 3296.5 l 1
 463 3296.5 l 1
 1839 3296.5 l 2
 1902.19533101 3296.5 1902.19533101 3296.5 1963.92114683 3286.92683996 c 0
 2025.64696264 3277.35367993 2025.64696264 3277.35367993 2085.21682812 3258.34680336 c 0
 2144.78669359 3239.3399268 2144.78669359 3239.3399268 2201.70643375 3211.07106256 c 0
 2288.40538109 3168.01252495 2288.40538109 3168.01252495 2359.75225776 3105.69482732 c 0
 2431.09913442 3043.37712969 2431.09913442 3043.37712969 2484.80132277 2963.69942633 c 0
 2539.78652565 2882.11811989 2539.78652565 2882.11811989 2567.64326282 2788.40771893 c 0
 2595.5 2694.69731797 2595.5 2694.69731797 2595.5 2593 c 2
 2595.5 2310 l 2
 2595.5 2203.23555094 2595.5 2203.23555094 2568.13193277 2107.83159642 c 0
 2540.76386555 2012.42764191 2540.76386555 2012.42764191 2485.7025584 1932.42143319 c 0
 2377.83954411 1775.69230192 2377.83954411 1775.69230192 2200.9070612 1696.13205793 c 0
 2115.94357835 1657.92700188 2115.94357835 1657.92700188 2025.03891434 1638.71350094 c 0
 1934.13425034 1619.5 1934.13425034 1619.5 1839 1619.5 c 2
 1672.14200099 1619.5 l 1
 2473.24427889 473.454550381 l 2
 2534.58999973 388.467305526 2534.58999973 388.467305526 2565.04499987 323.97284144 c 0
 2595.5 259.478377353 2595.5 259.478377353 2595.5 193 c 0
 2595.5 150.807717347 2595.5 150.807717347 2584.33892261 110.890412388 c 0
 2573.17784521 70.9731074296 2573.17784521 70.9731074296 2551.11811303 35.4245053841 c 0
 2529.05838085 -0.124096661437 2529.05838085 -0.124096661437 2497.58083667 -27.9894636436 c 0
 2405.50411967 -109.5 2405.50411967 -109.5 2277 -109.5 c 0
 2195.27642965 -109.5 2195.27642965 -109.5 2126.34501211 -65.3981944116 c 0
 2057.41359457 -21.2963888232 2057.41359457 -21.2963888232 2006.84372492 52.8491584455 c 2
 981.5 1517.36665581 l 1
981.5 2667.5 m 1
 981.5 2247.5 l 1
 1782 2247.5 l 2
 1818.58603375 2247.5 1818.58603375 2247.5 1851.09990385 2250.62125098 c 0
 1883.61377395 2253.74250197 1883.61377395 2253.74250197 1908.74091018 2259.12328946 c 0
 1933.8680464 2264.50407696 1933.8680464 2264.50407696 1954.25165597 2272.10270064 c 0
 1955.59213863 2272.60240719 1955.59213863 2272.60240719 1957.98771917 2273.01730657 c 0
 1960.38329972 2273.43220594 1960.38329972 2273.43220594 1961.37038843 2273.8661826 c 0
 1962.35747714 2274.30015926 1962.35747714 2274.30015926 1963.856451 2276.30009094 c 0
 1965.35542486 2278.30002262 1965.35542486 2278.30002262 1965.94187169 2282.02628411 c 0
 1966.52831852 2285.75254561 1966.52831852 2285.75254561 1967.01415926 2292.6917583 c 0
 1967.5 2299.63097098 1967.5 2299.63097098 1967.5 2310 c 2
 1967.5 2593 l 2
 1967.5 2606.41962199 1967.5 2606.41962199 1966.18962638 2613.82406803 c 0
 1964.87925276 2621.22851408 1964.87925276 2621.22851408 1955.51355516 2633.05040919 c 0
 1946.14785755 2644.87230429 1946.14785755 2644.87230429 1928.23741022 2651.18707071 c 0
 1910.3269629 2657.50183713 1910.3269629 2657.50183713 1874.14435054 2662.50091857 c 0
 1837.96173818 2667.5 1837.96173818 2667.5 1786 2667.5 c 2
 981.5 2667.5 l 1
EndSplineSet
EndChar

StartChar: S
Encoding: 83 83 54
Width: 2949
Flags: W
LayerCount: 2
Fore
SplineSet
1027.24243667 2667.5 m 1
 2429.45921556 870.194462269 l 2
 2455.68236254 836.322897412 2455.68236254 836.322897412 2477.2775052 804.993235552 c 0
 2498.87264785 773.663573692 2498.87264785 773.663573692 2517.13400387 742.625787223 c 0
 2535.39535989 711.588000754 2535.39535989 711.588000754 2549.47272451 681.847089599 c 0
 2572.76790218 632.631925492 2572.76790218 632.631925492 2584.13395109 577.564102602 c 0
 2595.5 522.496279712 2595.5 522.496279712 2595.5 463 c 0
 2595.5 331.824598921 2595.5 331.824598921 2548.8245031 222.495440618 c 0
 2502.14900621 113.166282315 2502.14900621 113.166282315 2409.87273845 36.6907453399 c 0
 2233.47729366 -109.5 2233.47729366 -109.5 1970 -109.5 c 2
 1069 -109.5 l 2
 774.179384879 -109.5 774.179384879 -109.5 585.556194915 46.3351847344 c 0
 482.769492362 130.101108427 482.769492362 130.101108427 419.03102274 254.599614513 c 0
 353.5 382.599462667 353.5 382.599462667 353.5 512 c 0
 353.5 556.971442644 353.5 556.971442644 362.248120967 599.239131332 c 0
 370.996241935 641.506820021 370.996241935 641.506820021 389.200554523 681.214935167 c 0
 407.404867111 720.923050313 407.404867111 720.923050313 434.378160004 754.757970346 c 0
 463.84806826 791.72460965 463.84806826 791.72460965 503.458948815 817.264737305 c 0
 543.069829369 842.80486496 543.069829369 842.80486496 587.514104239 855.15243248 c 0
 631.958379109 867.5 631.958379109 867.5 680 867.5 c 0
 722.545499022 867.5 722.545499022 867.5 762.671864971 856.23962222 c 0
 802.79823092 844.979244441 802.79823092 844.979244441 838.546681807 822.525212644 c 0
 874.295132695 800.071180847 874.295132695 800.071180847 901.947889946 767.983547433 c 0
 981.5 675.673080105 981.5 675.673080105 981.5 549 c 0
 981.5 542.173583037 981.5 542.173583037 981.921870646 536.265056092 c 0
 982.343741293 530.356529147 982.343741293 530.356529147 982.982671363 526.117040212 c 0
 993.874924241 523.2591395 993.874924241 523.2591395 1011.86345717 521.37956975 c 0
 1029.8519901 519.5 1029.8519901 519.5 1053 519.5 c 2
 1909.77704505 519.5 l 1
 511.494588966 2316.86520689 l 2
 431.202679828 2420.57558953 431.202679828 2420.57558953 394.293680312 2504.35315986 c 0
 373.319313179 2551.96164399 373.319313179 2551.96164399 363.409656589 2605.92554115 c 0
 353.5 2659.88943831 353.5 2659.88943831 353.5 2720 c 0
 353.5 2821.12529362 353.5 2821.12529362 384.261432428 2910.81956204 c 0
 415.022864856 3000.51383045 415.022864856 3000.51383045 474.727179994 3074.75660834 c 0
 534.431495131 3148.99938624 534.431495131 3148.99938624 620.736945165 3205.07804271 c 0
 634.381297601 3213.77631739 634.381297601 3213.77631739 647.656257144 3221.48450257 c 0
 660.931216686 3229.19268776 660.931216686 3229.19268776 674.515582551 3236.25057028 c 0
 688.099948415 3243.3084528 688.099948415 3243.3084528 701.43655677 3249.35750722 c 0
 714.773165124 3255.40656163 714.773165124 3255.40656163 728.447851807 3260.68268268 c 0
 742.12253849 3265.95880372 742.12253849 3265.95880372 755.677300606 3270.21428419 c 0
 769.232062721 3274.46976467 769.232062721 3274.46976467 783.153575172 3277.82968106 c 0
 797.075087622 3281.18959745 797.075087622 3281.18959745 810.99831089 3283.51013466 c 0
 852.002749973 3290.34420784 852.002749973 3290.34420784 903.256955236 3293.42210392 c 0
 954.511160498 3296.5 954.511160498 3296.5 1020 3296.5 c 2
 1888 3296.5 l 2
 2176.40925815 3296.5 2176.40925815 3296.5 2365.72758498 3134.74067011 c 0
 2390.92902052 3112.57555211 2390.92902052 3112.57555211 2413.68650306 3088.28362521 c 0
 2436.4439856 3063.99169832 2436.4439856 3063.99169832 2456.73732716 3037.61399875 c 0
 2477.03066871 3011.23629918 2477.03066871 3011.23629918 2494.95826769 2982.88582106 c 0
 2512.88586666 2954.53534294 2512.88586666 2954.53534294 2528.78577039 2923.7566302 c 0
 2561.54586435 2860.34030152 2561.54586435 2860.34030152 2578.52293218 2794.45362626 c 0
 2595.5 2728.56695099 2595.5 2728.56695099 2595.5 2662 c 0
 2595.5 2517.91251009 2595.5 2517.91251009 2516.74832426 2421.66046197 c 0
 2473.16809297 2368.39573483 2473.16809297 2368.39573483 2409.45594182 2341.94786742 c 0
 2345.74379067 2315.5 2345.74379067 2315.5 2273 2315.5 c 0
 2210.17191597 2315.5 2210.17191597 2315.5 2153.38724623 2336.42393557 c 0
 2096.6025765 2357.34787113 2096.6025765 2357.34787113 2053.80567491 2399.34483063 c 0
 2025.01345392 2427.59887927 2025.01345392 2427.59887927 2005.44635705 2463.36173095 c 0
 1985.87926019 2499.12458263 1985.87926019 2499.12458263 1976.6896301 2537.53003269 c 0
 1967.5 2575.93548274 1967.5 2575.93548274 1967.5 2617 c 0
 1967.5 2626.36729466 1967.5 2626.36729466 1966.8427962 2634.96167284 c 0
 1966.1855924 2643.55605102 1966.1855924 2643.55605102 1965.33569412 2648.92688401 c 0
 1964.48579583 2654.29771699 1964.48579583 2654.29771699 1963.47888026 2658.14797641 c 0
 1952.28754067 2661.94630944 1952.28754067 2661.94630944 1930.62847599 2664.72315472 c 0
 1908.96941132 2667.5 1908.96941132 2667.5 1880 2667.5 c 2
 1027.24243667 2667.5 l 1
EndSplineSet
EndChar

StartChar: T
Encoding: 84 84 55
Width: 2949
Flags: W
LayerCount: 2
Fore
SplineSet
1160.5 2667.5 m 1
 981.5 2667.5 l 1
 981.5 2630 l 2
 981.5 2489.02633822 981.5 2489.02633822 895.173409038 2402.26316911 c 0
 808.846818075 2315.5 808.846818075 2315.5 668 2315.5 c 0
 574.873048385 2315.5 574.873048385 2315.5 503.364697947 2354.66293581 c 0
 431.85634751 2393.82587163 431.85634751 2393.82587163 392.678173755 2465.33848617 c 0
 353.5 2536.85110072 353.5 2536.85110072 353.5 2630 c 2
 353.5 3187 l 1
 353.5 3296.5 l 1
 463 3296.5 l 1
 2486 3296.5 l 1
 2595.5 3296.5 l 1
 2595.5 3187 l 1
 2595.5 2630 l 2
 2595.5 2536.87304838 2595.5 2536.87304838 2556.33706419 2465.36469795 c 0
 2517.17412837 2393.85634751 2517.17412837 2393.85634751 2445.66151383 2354.67817375 c 0
 2374.14889928 2315.5 2374.14889928 2315.5 2281 2315.5 c 0
 2140.17509602 2315.5 2140.17509602 2315.5 2053.83754801 2402.25286399 c 0
 1967.5 2489.00572797 1967.5 2489.00572797 1967.5 2630 c 2
 1967.5 2667.5 l 1
 1788.5 2667.5 l 1
 1788.5 205 l 2
 1788.5 64.0263382247 1788.5 64.0263382247 1702.17340904 -22.7368308876 c 0
 1615.84681808 -109.5 1615.84681808 -109.5 1475 -109.5 c 0
 1333.84963945 -109.5 1333.84963945 -109.5 1247.17481973 -22.8374053088 c 0
 1160.5 63.8251893824 1160.5 63.8251893824 1160.5 205 c 2
 1160.5 2667.5 l 1
EndSplineSet
EndChar

StartChar: U
Encoding: 85 85 56
Width: 2949
Flags: W
LayerCount: 2
Fore
SplineSet
1823 -109.5 m 2
 1126 -109.5 l 2
 757.215467822 -109.5 757.215467822 -109.5 536.160089343 136.247734586 c 0
 425.182520105 262.573265527 425.182520105 262.573265527 387.981057471 396.742475026 c 0
 353.5 521.100387217 353.5 521.100387217 353.5 696 c 2
 353.5 2982 l 2
 353.5 3075.12695162 353.5 3075.12695162 392.662935813 3146.63530205 c 0
 431.825871626 3218.14365249 431.825871626 3218.14365249 503.338486172 3257.32182625 c 0
 574.851100718 3296.5 574.851100718 3296.5 668 3296.5 c 0
 808.824903975 3296.5 808.824903975 3296.5 895.162451988 3209.74713601 c 0
 981.5 3122.99427203 981.5 3122.99427203 981.5 2982 c 2
 981.5 696 l 2
 981.5 666.918723439 981.5 666.918723439 983.956174948 641.070812522 c 0
 986.412349895 615.222901604 986.412349895 615.222901604 989.806804249 598.832470406 c 0
 993.201258603 582.442039207 993.201258603 582.442039207 997.178277129 569.716573669 c 0
 1001.15529565 556.991108131 1001.15529565 556.991108131 1003.7798457 551.477695041 c 0
 1006.40439575 545.964281952 1006.40439575 545.964281952 1007.7378992 544.547434541 c 0
 1011.47001676 540.582059637 1011.47001676 540.582059637 1021.51964301 535.649557543 c 0
 1031.56926925 530.717055449 1031.56926925 530.717055449 1060.06394185 525.108527725 c 0
 1088.55861444 519.5 1088.55861444 519.5 1126 519.5 c 2
 1823 519.5 l 2
 1860.8187573 519.5 1860.8187573 519.5 1889.66105988 525.14593845 c 0
 1918.50336246 530.791876899 1918.50336246 530.791876899 1928.43304847 535.612788128 c 0
 1938.36273448 540.433699356 1938.36273448 540.433699356 1941.74226027 544.026348391 c 0
 1944.44629009 546.900902611 1944.44629009 546.900902611 1949.6790939 560.526390741 c 0
 1954.91189771 574.151878871 1954.91189771 574.151878871 1961.20594886 611.723225837 c 0
 1967.5 649.294572802 1967.5 649.294572802 1967.5 696 c 2
 1967.5 2982 l 2
 1967.5 3122.97366178 1967.5 3122.97366178 2053.82659096 3209.73683089 c 0
 2140.15318192 3296.5 2140.15318192 3296.5 2281 3296.5 c 0
 2374.12695162 3296.5 2374.12695162 3296.5 2445.63530205 3257.33706419 c 0
 2517.14365249 3218.17412837 2517.14365249 3218.17412837 2556.32182625 3146.66151383 c 0
 2595.5 3075.14889928 2595.5 3075.14889928 2595.5 2982 c 2
 2595.5 696 l 2
 2595.5 609.279266945 2595.5 609.279266945 2586.96019027 534.454536021 c 0
 2578.42038054 459.629805096 2578.42038054 459.629805096 2560.49843053 395.16859779 c 0
 2522.6547995 259.053602304 2522.6547995 259.053602304 2412.43716108 135.799469018 c 0
 2291.98435255 2.4827683172 2291.98435255 2.4827683172 2147.012871 -54.4275240265 c 0
 2006.72298484 -109.5 2006.72298484 -109.5 1823 -109.5 c 2
EndSplineSet
EndChar

StartChar: V
Encoding: 86 86 57
Width: 2949
Flags: W
LayerCount: 2
Fore
SplineSet
1474.91519608 1066.7772876 m 1
 1967.5 2347.33412835 l 1
 1967.5 2982 l 2
 1967.5 3122.97366178 1967.5 3122.97366178 2053.82659096 3209.73683089 c 0
 2140.15318192 3296.5 2140.15318192 3296.5 2281 3296.5 c 0
 2374.12695162 3296.5 2374.12695162 3296.5 2445.63530205 3257.33706419 c 0
 2517.14365249 3218.17412837 2517.14365249 3218.17412837 2556.32182625 3146.66151383 c 0
 2595.5 3075.14889928 2595.5 3075.14889928 2595.5 2982 c 2
 2595.5 2335 l 2
 2595.5 2213.40324847 2595.5 2213.40324847 2563.69709369 2134.40001648 c 2
 1780.95073097 140.046257075 l 2
 1737.2314005 28.3190791955 1737.2314005 28.3190791955 1681.15812964 -31.1320995466 c 0
 1642.24418863 -72.3902538725 1642.24418863 -72.3902538725 1588.86775521 -90.9451269362 c 0
 1535.4913218 -109.5 1535.4913218 -109.5 1475 -109.5 c 0
 1343.09046001 -109.5 1343.09046001 -109.5 1270.22907831 -33.0405253766 c 0
 1249.44600064 -11.2311228826 1249.44600064 -11.2311228826 1231.22914147 16.0303509376 c 0
 1213.01228231 43.2918247577 1213.01228231 43.2918247577 1198.46309871 72.3281661281 c 0
 1183.91391511 101.364507498 1183.91391511 101.364507498 1168.38052279 139.202258032 c 2
 385.302906315 2134.40001648 l 2
 353.5 2213.40324847 353.5 2213.40324847 353.5 2335 c 2
 353.5 2982 l 2
 353.5 3075.12695162 353.5 3075.12695162 392.662935813 3146.63530205 c 0
 431.825871626 3218.14365249 431.825871626 3218.14365249 503.338486172 3257.32182625 c 0
 574.851100718 3296.5 574.851100718 3296.5 668 3296.5 c 0
 808.824903975 3296.5 808.824903975 3296.5 895.162451988 3209.74713601 c 0
 981.5 3122.99427203 981.5 3122.99427203 981.5 2982 c 2
 981.5 2347.36564891 l 1
 1474.91519608 1066.7772876 l 1
EndSplineSet
EndChar

StartChar: W
Encoding: 87 87 58
Width: 2949
Flags: W
LayerCount: 2
Fore
SplineSet
2036 -109.5 m 2
 1729 -109.5 l 2
 1583.41242742 -109.5 1583.41242742 -109.5 1498.67813818 -56.1758352207 c 0
 1486.53634072 -48.5348764729 1486.53634072 -48.5348764729 1475.06025108 -39.1690595152 c 1
 1462.8250466 -49.1611431758 1462.8250466 -49.1611431758 1450.6074098 -56.810446212 c 0
 1366.45048361 -109.5 1366.45048361 -109.5 1221 -109.5 c 2
 913 -109.5 l 2
 845.7199301 -109.5 845.7199301 -109.5 797.086652644 -101.040249951 c 0
 748.453375188 -92.580499903 748.453375188 -92.580499903 706.473934097 -67.5815068939 c 0
 665.062091053 -42.9205217102 665.062091053 -42.9205217102 634.046337307 -4.80657695503 c 0
 603.030583562 33.3073678001 603.030583562 33.3073678001 569.083334677 92.4007269695 c 2
 424.979892907 342.580313375 l 2
 377.462243965 426.025940786 377.462243965 426.025940786 365.858615022 465.913415279 c 0
 353.5 508.396154417 353.5 508.396154417 353.5 606 c 2
 353.5 2982 l 2
 353.5 3075.12695162 353.5 3075.12695162 392.662935813 3146.63530205 c 0
 431.825871626 3218.14365249 431.825871626 3218.14365249 503.338486172 3257.32182625 c 0
 574.851100718 3296.5 574.851100718 3296.5 668 3296.5 c 0
 808.824903975 3296.5 808.824903975 3296.5 895.162451988 3209.74713601 c 0
 981.5 3122.99427203 981.5 3122.99427203 981.5 2982 c 2
 981.5 634.853497987 l 1
 1046.82774631 519.5 l 1
 1095.17225369 519.5 l 1
 1160.5 634.853497987 l 1
 1160.5 1896 l 2
 1160.5 2037.28642547 1160.5 2037.28642547 1233.16974567 2134.89186819 c 0
 1274.85670291 2190.88317349 1274.85670291 2190.88317349 1338.49594468 2219.19158675 c 0
 1402.13518646 2247.5 1402.13518646 2247.5 1475 2247.5 c 0
 1492.66814904 2247.5 1492.66814904 2247.5 1509.97424434 2245.82347794 c 0
 1527.28033963 2244.14695589 1527.28033963 2244.14695589 1544.33375201 2240.791903 c 0
 1561.3871644 2237.43685011 1561.3871644 2237.43685011 1577.81321413 2232.22921627 c 0
 1594.23926386 2227.02158242 1594.23926386 2227.02158242 1609.89672542 2220.13837168 c 0
 1625.55418699 2213.25516095 1625.55418699 2213.25516095 1640.33568342 2204.33137616 c 0
 1655.11717986 2195.40759137 1655.11717986 2195.40759137 1668.61418286 2184.81118363 c 0
 1682.11118587 2174.21477589 1682.11118587 2174.21477589 1694.48362127 2161.389801 c 0
 1706.85605667 2148.56482612 1706.85605667 2148.56482612 1717.4447998 2134.05824803 c 0
 1788.5 2036.71262375 1788.5 2036.71262375 1788.5 1896 c 2
 1788.5 634.853497987 l 1
 1853.82774631 519.5 l 1
 1902.17225369 519.5 l 1
 1967.5 634.853497987 l 1
 1967.5 2982 l 2
 1967.5 3122.97366178 1967.5 3122.97366178 2053.82659096 3209.73683089 c 0
 2140.15318192 3296.5 2140.15318192 3296.5 2281 3296.5 c 0
 2374.12695162 3296.5 2374.12695162 3296.5 2445.63530205 3257.33706419 c 0
 2517.14365249 3218.17412837 2517.14365249 3218.17412837 2556.32182625 3146.66151383 c 0
 2595.5 3075.14889928 2595.5 3075.14889928 2595.5 2982 c 2
 2595.5 606 l 2
 2595.5 588.843742865 2595.5 588.843742865 2595.38761877 577.71105718 c 0
 2595.27523755 566.578371495 2595.27523755 566.578371495 2594.88152552 552.683739787 c 0
 2594.48781349 538.789108078 2594.48781349 538.789108078 2593.65167846 528.542802904 c 0
 2592.81554342 518.296497731 2592.81554342 518.296497731 2591.4472952 506.843327184 c 0
 2590.07904698 495.390156637 2590.07904698 495.390156637 2587.93305001 484.948046006 c 0
 2585.78705303 474.505935375 2585.78705303 474.505935375 2582.85287653 464.150018316 c 0
 2575.06410233 436.660227013 2575.06410233 436.660227013 2561.48433944 409.650929244 c 0
 2547.90457654 382.641631475 2547.90457654 382.641631475 2523.54913378 341.757573005 c 2
 2381.0924252 92.7073831726 l 2
 2347.861094 34.3958020101 2347.861094 34.3958020101 2316.7279222 -3.87259712141 c 0
 2285.59475041 -42.1409962529 2285.59475041 -42.1409962529 2244.33728522 -66.8954753655 c 0
 2202.06766719 -92.2572461804 2202.06766719 -92.2572461804 2152.93291389 -100.87862309 c 0
 2103.79816058 -109.5 2103.79816058 -109.5 2036 -109.5 c 2
EndSplineSet
EndChar

StartChar: X
Encoding: 88 88 59
Width: 2949
Flags: W
LayerCount: 2
Fore
SplineSet
418.540729807 397.106835316 m 1
 1114.32853878 1593.02195828 l 1
 418.529841431 2789.91025249 l 2
 387.240605077 2839.01438859 387.240605077 2839.01438859 370.370302539 2890.22662858 c 0
 353.5 2941.43886857 353.5 2941.43886857 353.5 2994 c 0
 353.5 3054.91808268 353.5 3054.91808268 378.341928194 3110.56689882 c 0
 403.183856388 3166.21571496 403.183856388 3166.21571496 448.064696299 3208.87105868 c 0
 540.265582386 3296.5 540.265582386 3296.5 664 3296.5 c 0
 801.200402325 3296.5 801.200402325 3296.5 877.253653789 3213.4533461 c 0
 905.097636282 3183.0489974 905.097636282 3183.0489974 933.694422979 3140.99842938 c 0
 962.291209675 3098.94786136 962.291209675 3098.94786136 995.695861463 3040.98326389 c 2
 1474.91762674 2223.63464332 l 1
 1953.65347126 3041.57948064 l 2
 2027.00699196 3165.29512004 2027.00699196 3165.29512004 2076.84187036 3218.13209955 c 0
 2116.19487951 3259.8557719 2116.19487951 3259.8557719 2170.17037667 3278.17788595 c 0
 2224.14587383 3296.5 2224.14587383 3296.5 2286 3296.5 c 0
 2408.17949056 3296.5 2408.17949056 3296.5 2500.23741025 3210.52855434 c 0
 2545.68633464 3168.08451751 2545.68633464 3168.08451751 2570.59316732 3111.89940422 c 0
 2595.5 3055.71429094 2595.5 3055.71429094 2595.5 2994 c 0
 2595.5 2891.96560942 2595.5 2891.96560942 2530.47015857 2789.91025249 c 1
 1834.67146122 1593.02195828 l 1
 2530.45927019 397.106835316 l 1
 2595.5 295.034390579 2595.5 295.034390579 2595.5 193 c 0
 2595.5 64.9028425952 2595.5 64.9028425952 2498.5808621 -24.1366906007 c 0
 2454.22292333 -64.8882928863 2454.22292333 -64.8882928863 2399.54573773 -87.1941464432 c 0
 2344.86855213 -109.5 2344.86855213 -109.5 2286 -109.5 c 0
 2190.51459453 -109.5 2190.51459453 -109.5 2121.78491154 -64.7843026345 c 0
 2102.631328 -52.3229350292 2102.631328 -52.3229350292 2085.74264653 -38.2967841833 c 0
 2068.85396507 -24.2706333375 2068.85396507 -24.2706333375 2053.49645189 -7.67374788139 c 0
 2038.13893872 8.92313757467 2038.13893872 8.92313757467 2025.69219072 27.0746450671 c 0
 1999.34658646 65.4953179522 1999.34658646 65.4953179522 1953.20767522 146.182184835 c 2
 1474.91762674 963.365356678 l 1
 995.824145518 146.23553418 l 2
 972.767039061 105.760034474 972.767039061 105.760034474 953.689046336 75.4612943014 c 0
 934.611053612 45.1625541285 934.611053612 45.1625541285 914.702300195 18.397104056 c 0
 894.793546778 -8.36834601652 894.793546778 -8.36834601652 875.059958925 -29.2360481141 c 0
 848.064253425 -57.783230942 848.064253425 -57.783230942 812.302933745 -76.204141573 c 0
 776.541614065 -94.625052204 776.541614065 -94.625052204 740.383680429 -102.062526102 c 0
 704.225746793 -109.5 704.225746793 -109.5 664 -109.5 c 0
 542.784196532 -109.5 542.784196532 -109.5 449.716671339 -22.485647177 c 0
 404.150052674 20.1172889733 404.150052674 20.1172889733 378.825026337 75.9062160426 c 0
 353.5 131.695143112 353.5 131.695143112 353.5 193 c 0
 353.5 295.034390579 353.5 295.034390579 418.540729807 397.106835316 c 1
EndSplineSet
EndChar

StartChar: Y
Encoding: 89 89 60
Width: 2949
Flags: W
LayerCount: 2
Fore
SplineSet
1788.5 1478.72567155 m 1
 1788.5 205 l 2
 1788.5 64.0263382247 1788.5 64.0263382247 1702.17340904 -22.7368308876 c 0
 1615.84681808 -109.5 1615.84681808 -109.5 1475 -109.5 c 0
 1333.84963945 -109.5 1333.84963945 -109.5 1247.17481973 -22.8374053088 c 0
 1160.5 63.8251893824 1160.5 63.8251893824 1160.5 205 c 2
 1160.5 1478.72567155 l 1
 376.241536868 2497.192672 l 1
 353.5 2526.72567155 l 1
 353.5 2564 l 1
 353.5 2982 l 2
 353.5 3075.12695162 353.5 3075.12695162 392.662935813 3146.63530205 c 0
 431.825871626 3218.14365249 431.825871626 3218.14365249 503.338486172 3257.32182625 c 0
 574.851100718 3296.5 574.851100718 3296.5 668 3296.5 c 0
 808.824903975 3296.5 808.824903975 3296.5 895.162451988 3209.74713601 c 0
 981.5 3122.99427203 981.5 3122.99427203 981.5 2982 c 2
 981.5 2740.31502644 l 1
 1474.92801596 2100.413354 l 1
 1967.5 2740.26599773 l 1
 1967.5 2982 l 2
 1967.5 3122.97366178 1967.5 3122.97366178 2053.82659096 3209.73683089 c 0
 2140.15318192 3296.5 2140.15318192 3296.5 2281 3296.5 c 0
 2374.12695162 3296.5 2374.12695162 3296.5 2445.63530205 3257.33706419 c 0
 2517.14365249 3218.17412837 2517.14365249 3218.17412837 2556.32182625 3146.66151383 c 0
 2595.5 3075.14889928 2595.5 3075.14889928 2595.5 2982 c 2
 2595.5 2564 l 1
 2595.5 2526.72567155 l 1
 2572.75846313 2497.192672 l 1
 1788.5 1478.72567155 l 1
EndSplineSet
EndChar

StartChar: Z
Encoding: 90 90 61
Width: 2949
Flags: W
LayerCount: 2
Fore
SplineSet
2595.5 3187 m 1
 2595.5 2920 l 1
 2595.5 2890.29497312 l 1
 2580.48807324 2864.66236348 l 1
 1207.02645001 519.5 l 1
 2281 519.5 l 2
 2410.99021078 519.5 2410.99021078 519.5 2499.90443168 442.083307668 c 0
 2595.5 358.849235248 2595.5 358.849235248 2595.5 205 c 0
 2595.5 170.762107523 2595.5 170.762107523 2590.17089926 138.743844788 c 0
 2584.84179852 106.725582053 2584.84179852 106.725582053 2573.72332897 76.0216143213 c 0
 2562.60485942 45.3176465898 2562.60485942 45.3176465898 2543.88284782 17.6124145439 c 0
 2525.16083622 -10.092817502 2525.16083622 -10.092817502 2499.90443168 -32.0833076677 c 0
 2455.46342272 -70.7776344295 2455.46342272 -70.7776344295 2399.1133837 -90.1388172147 c 0
 2342.76334467 -109.5 2342.76334467 -109.5 2281 -109.5 c 2
 463 -109.5 l 1
 353.5 -109.5 l 1
 353.5 0 l 1
 353.5 258 l 1
 353.5 287.543747513 l 1
 368.36039004 313.078073919 l 1
 1738.57974043 2667.5 l 1
 668 2667.5 l 2
 606.093723701 2667.5 606.093723701 2667.5 549.609922993 2687.09921637 c 0
 493.126122286 2706.69843274 493.126122286 2706.69843274 448.693211756 2745.76875062 c 0
 399.723098179 2788.82867808 399.723098179 2788.82867808 376.611549089 2850.20540226 c 0
 353.5 2911.58212644 353.5 2911.58212644 353.5 2982 c 0
 353.5 3134.52687352 353.5 3134.52687352 448.693211756 3218.23124938 c 0
 537.704732074 3296.5 537.704732074 3296.5 668 3296.5 c 2
 2486 3296.5 l 1
 2595.5 3296.5 l 1
 2595.5 3187 l 1
EndSplineSet
EndChar

StartChar: bracketleft
Encoding: 91 91 62
Width: 2949
Flags: W
LayerCount: 2
Fore
SplineSet
1604.5 519.5 m 1
 2232 519.5 l 2
 2376.00958349 519.5 2376.00958349 519.5 2476.03490611 450.7325907 c 0
 2535.34914956 409.954048326 2535.34914956 409.954048326 2565.42457478 345.000089579 c 0
 2595.5 280.046130833 2595.5 280.046130833 2595.5 205 c 0
 2595.5 131.681330156 2595.5 131.681330156 2567.17923938 67.8048105944 c 0
 2538.85847876 3.92829103279 2538.85847876 3.92829103279 2482.47723779 -37.6374413584 c 0
 2432.60291637 -74.4061016789 2432.60291637 -74.4061016789 2371.27358479 -91.9530508394 c 0
 2309.94425321 -109.5 2309.94425321 -109.5 2241 -109.5 c 2
 754 -109.5 l 2
 619.230596212 -109.5 619.230596212 -109.5 540.873059621 -83.3808211365 c 0
 490.123324182 -66.4642426567 490.123324182 -66.4642426567 450.074098624 -30.5567985731 c 0
 410.024873066 5.35064551044 410.024873066 5.35064551044 388.401774436 54.1086130105 c 0
 353.5 132.80869262 353.5 132.80869262 353.5 274 c 2
 353.5 2896 l 2
 353.5 3028.76940379 353.5 3028.76940379 379.619178863 3107.12694038 c 0
 396.5606954 3157.95148999 396.5606954 3157.95148999 432.563750724 3198.05573607 c 0
 468.566806049 3238.15998215 468.566806049 3238.15998215 517.317075334 3260.24343747 c 0
 562.017121404 3280.49217629 562.017121404 3280.49217629 615.028012901 3288.49608814 c 0
 668.038904398 3296.5 668.038904398 3296.5 737 3296.5 c 2
 2232 3296.5 l 2
 2277.66349446 3296.5 2277.66349446 3296.5 2319.47348756 3289.46099771 c 0
 2361.28348065 3282.42199541 2361.28348065 3282.42199541 2401.46816219 3266.896127 c 0
 2441.65284372 3251.37025859 2441.65284372 3251.37025859 2476.03490611 3227.7325907 c 0
 2535.34914956 3186.95404833 2535.34914956 3186.95404833 2565.42457478 3122.00008958 c 0
 2595.5 3057.04613083 2595.5 3057.04613083 2595.5 2982 c 0
 2595.5 2908.68133016 2595.5 2908.68133016 2567.17923938 2844.80481059 c 0
 2538.85847876 2780.92829103 2538.85847876 2780.92829103 2482.47723779 2739.36255864 c 0
 2448.91164733 2714.61712334 2448.91164733 2714.61712334 2409.08887301 2698.36532786 c 0
 2369.26609869 2682.11353237 2369.26609869 2682.11353237 2327.81905536 2674.80676619 c 0
 2286.37201203 2667.5 2286.37201203 2667.5 2241 2667.5 c 2
 1604.5 2667.5 l 1
 1604.5 519.5 l 1
EndSplineSet
EndChar

StartChar: backslash
Encoding: 92 92 63
Width: 2949
Flags: W
LayerCount: 2
Fore
SplineSet
1990.39458077 87.8630373829 m 2
 416.888123357 2779.72945626 l 2
 385.578520716 2835.95894671 385.578520716 2835.95894671 369.539260358 2884.20815721 c 0
 353.5 2932.45736771 353.5 2932.45736771 353.5 2982 c 0
 353.5 3104.84815216 353.5 3104.84815216 447.459755762 3200.31126401 c 0
 542.133708505 3296.5 542.133708505 3296.5 668 3296.5 c 0
 720.73851501 3296.5 720.73851501 3296.5 769.42791601 3279.26213772 c 0
 818.117317009 3262.02427545 818.117317009 3262.02427545 855.580881701 3227.17444783 c 0
 870.41428535 3213.37593281 870.41428535 3213.37593281 884.57723648 3197.41331218 c 0
 898.74018761 3181.45069155 898.74018761 3181.45069155 912.032712555 3163.61491564 c 0
 925.3252375 3145.77913973 925.3252375 3145.77913973 937.718994536 3126.74753782 c 0
 950.112751572 3107.7159359 950.112751572 3107.7159359 962.668391323 3086.02892179 c 2
 2493.77496246 462.55976433 l 2
 2545.20922235 379.640693989 2545.20922235 379.640693989 2570.35461117 317.439269921 c 0
 2595.5 255.237845853 2595.5 255.237845853 2595.5 193 c 0
 2595.5 64.9028425952 2595.5 64.9028425952 2498.5808621 -24.1366906007 c 0
 2454.22292333 -64.8882928863 2454.22292333 -64.8882928863 2399.54573773 -87.1941464432 c 0
 2344.86855213 -109.5 2344.86855213 -109.5 2286 -109.5 c 0
 2234.85538086 -109.5 2234.85538086 -109.5 2188.08375428 -95.4079033915 c 0
 2141.3121277 -81.315806783 2141.3121277 -81.315806783 2103.45727915 -51.2929958603 c 0
 2043.72955463 -3.92273158777 2043.72955463 -3.92273158777 1990.39458077 87.8630373829 c 2
EndSplineSet
EndChar

StartChar: bracketright
Encoding: 93 93 64
Width: 2949
Flags: W
LayerCount: 2
Fore
SplineSet
717 519.5 m 2
 1344.5 519.5 l 1
 1344.5 2667.5 l 1
 709 2667.5 l 2
 663.642237268 2667.5 663.642237268 2667.5 622.158652572 2674.8034424 c 0
 580.675067877 2682.1068848 580.675067877 2682.1068848 540.835626454 2698.30200999 c 0
 500.996185031 2714.49713517 500.996185031 2714.49713517 467.328984563 2739.13762247 c 0
 410.638407614 2780.62855198 410.638407614 2780.62855198 382.069203807 2844.59687781 c 0
 353.5 2908.56520365 353.5 2908.56520365 353.5 2982 c 0
 353.5 2998.07196788 353.5 2998.07196788 354.892588093 3013.84877651 c 0
 356.285176185 3029.62558514 356.285176185 3029.62558514 359.149066886 3045.23384117 c 0
 362.012957588 3060.8420972 362.012957588 3060.8420972 366.266450197 3075.85131541 c 0
 370.519942807 3090.86053363 370.519942807 3090.86053363 376.366984212 3105.43759762 c 0
 382.214025617 3120.01466161 382.214025617 3120.01466161 389.439333921 3133.68612408 c 0
 396.664642226 3147.35758656 396.664642226 3147.35758656 405.605745512 3160.33329319 c 0
 414.546848798 3173.30899982 414.546848798 3173.30899982 424.854883975 3185.07254123 c 0
 435.162919152 3196.83608265 435.162919152 3196.83608265 447.308995497 3207.64026659 c 0
 459.455071842 3218.44445054 459.455071842 3218.44445054 472.965093894 3227.7325907 c 0
 572.990416512 3296.5 572.990416512 3296.5 717 3296.5 c 2
 2212 3296.5 l 2
 2351.64485267 3296.5 2351.64485267 3296.5 2431.68292467 3260.24343747 c 0
 2480.4330819 3238.16003291 2480.4330819 3238.16003291 2516.43618324 3198.05579147 c 0
 2552.43928459 3157.95155003 2552.43928459 3157.95155003 2569.38082114 3107.12694038 c 0
 2595.5 3028.76940379 2595.5 3028.76940379 2595.5 2896 c 2
 2595.5 274 l 2
 2595.5 132.80869262 2595.5 132.80869262 2560.59822556 54.1086130105 c 0
 2538.97524277 5.35090669946 2538.97524277 5.35090669946 2498.92596322 -30.5566666697 c 0
 2458.87668367 -66.4642400388 2458.87668367 -66.4642400388 2408.12694038 -83.3808211365 c 0
 2378.84662818 -93.1409252028 2378.84662818 -93.1409252028 2344.52798183 -99.0297147238 c 0
 2310.20933549 -104.918504245 2310.20933549 -104.918504245 2274.71705835 -107.209252122 c 0
 2239.22478122 -109.5 2239.22478122 -109.5 2195 -109.5 c 2
 709 -109.5 l 2
 565.210092495 -109.5 565.210092495 -109.5 467.328984563 -37.8623775277 c 0
 410.638407614 3.62855197818 410.638407614 3.62855197818 382.069203807 67.5968778128 c 0
 353.5 131.565203647 353.5 131.565203647 353.5 205 c 0
 353.5 254.067356358 353.5 254.067356358 366.037734185 298.778933704 c 0
 378.575468369 343.49051105 378.575468369 343.49051105 405.834461525 383.405674895 c 0
 433.09345468 423.32083874 433.09345468 423.32083874 472.965093894 450.7325907 c 0
 572.990416512 519.5 572.990416512 519.5 717 519.5 c 2
EndSplineSet
EndChar

StartChar: asciicircum
Encoding: 94 94 65
Width: 2949
Flags: W
LayerCount: 2
Fore
SplineSet
1475.2340118 1452.92408943 m 1
 987.895530762 737.936144931 l 2
 959.631613349 695.365417639 959.631613349 695.365417639 933.664602862 664.64753537 c 0
 907.697592376 633.929653101 907.697592376 633.929653101 878.404107707 610.494865366 c 0
 852.828132568 590.034085255 852.828132568 590.034085255 821.518251341 577.194491231 c 0
 790.208370113 564.354897208 790.208370113 564.354897208 760.086319527 559.427448604 c 0
 729.96426894 554.5 729.96426894 554.5 696 554.5 c 0
 639.380273466 554.5 639.380273466 554.5 587.080554898 576.431389295 c 0
 534.78083633 598.36277859 534.78083633 598.36277859 494.57180746 638.57180746 c 0
 454.362820789 678.780794131 454.362820789 678.780794131 432.431410394 731.080422863 c 0
 410.5 783.380051594 410.5 783.380051594 410.5 840 c 0
 410.5 894.538289476 410.5 894.538289476 431.059273184 950.463656427 c 0
 451.618546368 1006.38902338 451.618546368 1006.38902338 493.402860199 1083.57321551 c 2
 1159.75402935 2352.33781045 l 2
 1173.9297796 2380.06034708 1173.9297796 2380.06034708 1186.68899632 2402.73348146 c 0
 1199.44821304 2425.40661584 1199.44821304 2425.40661584 1212.90973508 2446.4839629 c 0
 1226.37125713 2467.56130997 1226.37125713 2467.56130997 1240.27975614 2485.72979724 c 0
 1254.18825516 2503.89828452 1254.18825516 2503.89828452 1268.94944813 2519.71384841 c 0
 1307.75900007 2561.29551122 1307.75900007 2561.29551122 1361.2640456 2580.39775561 c 0
 1414.76909113 2599.5 1414.76909113 2599.5 1475 2599.5 c 0
 1484.77475947 2599.5 1484.77475947 2599.5 1494.11608794 2599.12004061 c 0
 1503.45741641 2598.74008121 1503.45741641 2598.74008121 1513.17318837 2597.9271489 c 0
 1522.88896034 2597.11421658 1522.88896034 2597.11421658 1532.22702911 2595.77911193 c 0
 1541.56509788 2594.44400729 1541.56509788 2594.44400729 1551.05347858 2592.59857125 c 0
 1560.54185927 2590.75313521 1560.54185927 2590.75313521 1569.72692186 2588.23899027 c 0
 1578.91198446 2585.72484534 1578.91198446 2585.72484534 1588.0232274 2582.62301053 c 0
 1597.13447034 2579.52117573 1597.13447034 2579.52117573 1606.01678028 2575.60409546 c 0
 1614.89909021 2571.6870152 1614.89909021 2571.6870152 1623.48344892 2567.10488658 c 0
 1632.06780763 2562.52275797 1632.06780763 2562.52275797 1640.49761843 2556.97884734 c 0
 1648.92742922 2551.4349367 1648.92742922 2551.4349367 1656.85381452 2545.14429562 c 0
 1669.46653817 2535.13442167 1669.46653817 2535.13442167 1680.31061748 2523.43423084 c 0
 1707.37771205 2494.23026038 1707.37771205 2494.23026038 1733.18645007 2454.61034919 c 0
 1758.99518808 2414.990438 1758.99518808 2414.990438 1792.50874253 2353.74152815 c 2
 2459.62731189 1083.51576639 l 2
 2499.11473317 1010.32056259 2499.11473317 1010.32056259 2518.80736659 953.145614073 c 0
 2538.5 895.970665562 2538.5 895.970665562 2538.5 840 c 0
 2538.5 782.607305491 2538.5 782.607305491 2516.50905471 729.745420946 c 0
 2494.51810942 676.8835364 2494.51810942 676.8835364 2453.67284902 636.823761779 c 0
 2426.96370436 610.628254511 2426.96370436 610.628254511 2394.68901273 592.183937339 c 0
 2362.41432111 573.739620167 2362.41432111 573.739620167 2326.39824014 564.119810083 c 0
 2290.38215918 554.5 2290.38215918 554.5 2253 554.5 c 0
 2145.8824872 554.5 2145.8824872 554.5 2077.5044803 608.669589885 c 0
 2026.14696812 649.355411221 2026.14696812 649.355411221 1965.75314663 736.985662014 c 2
 1475.2340118 1452.92408943 l 1
EndSplineSet
EndChar

StartChar: a
Encoding: 97 97 66
Width: 2949
Flags: W
LayerCount: 2
Fore
SplineSet
1659 1705.5 m 2
 1171 1705.5 l 2
 1119.32790258 1705.5 1119.32790258 1705.5 1071.842975 1713.71697815 c 0
 1024.35804743 1721.9339563 1024.35804743 1721.9339563 981.799863956 1738.1187686 c 0
 939.241680481 1754.30358091 939.241680481 1754.30358091 904.524887482 1779.93511495 c 0
 869.808094483 1805.566649 869.808094483 1805.566649 844.511230798 1838.73700951 c 0
 819.214367112 1871.90737002 819.214367112 1871.90737002 805.357183556 1915.86477929 c 0
 791.5 1959.82218855 791.5 1959.82218855 791.5 2011 c 0
 791.5 2072.26684342 791.5 2072.26684342 811.335923684 2123.09364084 c 0
 831.171847368 2173.92043827 831.171847368 2173.92043827 866.044120785 2209.52806289 c 0
 900.916394203 2245.13568751 900.916394203 2245.13568751 948.945962594 2269.72873452 c 0
 996.975530985 2294.32178153 996.975530985 2294.32178153 1052.8241319 2305.91089077 c 0
 1108.67273282 2317.5 1108.67273282 2317.5 1171 2317.5 c 2
 1712 2317.5 l 2
 1903.02536537 2317.5 1903.02536537 2317.5 2030.37864932 2279.4077231 c 0
 2101.39598326 2258.16593125 2101.39598326 2258.16593125 2167.98146175 2215.22768805 c 0
 2234.56694023 2172.28944485 2234.56694023 2172.28944485 2297.42819254 2109.42819254 c 0
 2421.52111087 1985.33527421 2421.52111087 1985.33527421 2463.2225958 1862.09805009 c 0
 2483.43082037 1802.37822225 2483.43082037 1802.37822225 2493.60444528 1729.21512521 c 0
 2503.77807018 1656.05202816 2503.77807018 1656.05202816 2505.46905299 1567.68822646 c 2
 2546.5 230.679806682 l 1
 2546.5 100.02845555 2546.5 100.02845555 2481.27188493 5.02228795518 c 0
 2462.00137538 -23.0456281331 2462.00137538 -23.0456281331 2436.20795643 -44.9177993988 c 0
 2410.41453748 -66.7899706645 2410.41453748 -66.7899706645 2380.94870174 -80.8784277336 c 0
 2351.48286601 -94.9668848027 2351.48286601 -94.9668848027 2319.11132799 -102.233442401 c 0
 2286.73978997 -109.5 2286.73978997 -109.5 2253 -109.5 c 0
 2130.25202752 -109.5 2130.25202752 -109.5 2037.54775167 -21.3549508323 c 0
 2023.41235811 -7.91474056536 2023.41235811 -7.91474056536 2010.04686475 8.34000786222 c 0
 1996.68137139 24.5947562898 1996.68137139 24.5947562898 1987.02022776 39.9618779001 c 1
 1831.91819276 -40.4613995054 l 2
 1734.51160573 -89.7376729483 1734.51160573 -89.7376729483 1690.99431897 -99.7252469569 c 0
 1648.40432357 -109.5 1648.40432357 -109.5 1540 -109.5 c 2
 1163 -109.5 l 2
 1083.27347271 -109.5 1083.27347271 -109.5 1015.17311636 -101.860905983 c 0
 947.072760018 -94.2218119662 947.072760018 -94.2218119662 888.692996915 -78.0052111045 c 0
 767.316871377 -44.289620677 767.316871377 -44.289620677 647.251157177 54.5880263105 c 0
 508.534633149 169.592324009 508.534633149 169.592324009 454.205802447 306.649146916 c 0
 402.5 437.088784908 402.5 437.088784908 402.5 623 c 2
 402.5 795 l 2
 402.5 963.615426833 402.5 963.615426833 453.959512049 1082.88041358 c 0
 506.206013764 1203.96936462 506.206013764 1203.96936462 632.664277674 1315.20580046 c 0
 699.902527756 1374.3915655 699.902527756 1374.3915655 783.651188515 1413.5303769 c 0
 867.399849275 1452.66918829 867.399849275 1452.66918829 961.569674386 1471.08459414 c 0
 1055.7394995 1489.5 1055.7394995 1489.5 1163 1489.5 c 2
 1897.37013236 1489.5 l 1
 1896.51565107 1548.60551239 1896.51565107 1548.60551239 1890.63130443 1590.74760066 c 0
 1884.74695779 1632.88968893 1884.74695779 1632.88968893 1877.039439 1652.5713887 c 0
 1871.1240531 1667.67674913 1871.1240531 1667.67674913 1864.32221992 1674.2400554 c 0
 1857.52038674 1680.80336168 1857.52038674 1680.80336168 1842.16800921 1686.20316343 c 0
 1787.30445426 1705.5 1787.30445426 1705.5 1659 1705.5 c 2
1749 877.5 m 2
 1167 877.5 l 2
 1122.99317783 877.5 1122.99317783 877.5 1092.54368952 873.590417594 c 0
 1062.0942012 869.680835188 1062.0942012 869.680835188 1047.0162254 864.780698584 c 0
 1031.93824959 859.88056198 1031.93824959 859.88056198 1024.19100556 850.407307122 c 0
 1016.44376154 840.934052264 1016.44376154 840.934052264 1015.42286304 835.022650284 c 0
 1014.40196455 829.111248305 1014.40196455 829.111248305 1014.48519575 817.963192224 c 0
 1014.5 815.980299335 1014.5 815.980299335 1014.5 815 c 2
 1014.5 553 l 2
 1014.5 538.457079322 1014.5 538.457079322 1015.52390197 536.866328595 c 0
 1016.54780393 535.275577868 1016.54780393 535.275577868 1030.18833321 529.012944931 c 0
 1087.93570641 502.5 1087.93570641 502.5 1159 502.5 c 2
 1566.35751533 502.5 l 1
 1918.5 684.642664486 l 1
 1918.5 705 l 2
 1918.5 733.34047575 1918.5 733.34047575 1916.03010056 758.297959302 c 0
 1913.56020112 783.255442854 1913.56020112 783.255442854 1910.14588402 798.950916327 c 0
 1906.73156692 814.646389801 1906.73156692 814.646389801 1902.67932639 826.793734799 c 0
 1898.62708585 838.941079798 1898.62708585 838.941079798 1895.93438297 844.165803837 c 0
 1893.2416801 849.390527876 1893.2416801 849.390527876 1891.74302979 850.901987163 c 0
 1890.25672325 852.400997175 1890.25672325 852.400997175 1885.21142923 855.067678806 c 0
 1880.1661352 857.734360438 1880.1661352 857.734360438 1868.32913321 861.769574365 c 0
 1856.49213122 865.804788291 1856.49213122 865.804788291 1841.17017353 869.195281909 c 0
 1825.84821584 872.585775526 1825.84821584 872.585775526 1801.36911853 875.042887763 c 0
 1776.89002122 877.5 1776.89002122 877.5 1749 877.5 c 2
EndSplineSet
EndChar

StartChar: b
Encoding: 98 98 67
Width: 2949
Flags: W
LayerCount: 2
Fore
SplineSet
1014.5 2748 m 2
 1014.5 2178.56018688 l 1
 1069.33914928 2226.19506613 1069.33914928 2226.19506613 1111.59346525 2253.48431187 c 0
 1163.50605314 2287.01119155 1163.50605314 2287.01119155 1226.81965961 2302.25559577 c 0
 1290.13326607 2317.5 1290.13326607 2317.5 1364 2317.5 c 2
 1798 2317.5 l 2
 1961.82648745 2317.5 1961.82648745 2317.5 2159.49738111 2151.78787358 c 2
 2294.92622834 2037.42573592 l 2
 2361.95822261 1980.05089336 2361.95822261 1980.05089336 2410.16718703 1921.81454499 c 0
 2458.37615144 1863.57819661 2458.37615144 1863.57819661 2488.22455409 1801.36784161 c 0
 2518.46036964 1738.35003659 2518.46036964 1738.35003659 2532.48018482 1663.03699822 c 0
 2546.5 1587.72395986 2546.5 1587.72395986 2546.5 1499 c 2
 2546.5 709 l 2
 2546.5 529.100105871 2546.5 529.100105871 2488.73249068 408.648703451 c 0
 2432.00138948 290.358322228 2432.00138948 290.358322228 2295.53500268 171.093580823 c 2
 2159.40885794 55.1342723404 l 2
 2095.66052269 2.39011401216 2095.66052269 2.39011401216 2035.51881281 -33.2313273313 c 0
 1975.37710294 -68.8527686747 1975.37710294 -68.8527686747 1910.51369433 -89.1763843373 c 0
 1845.65028572 -109.5 1845.65028572 -109.5 1782 -109.5 c 2
 1376 -109.5 l 2
 1239.56265496 -109.5 1239.56265496 -109.5 1132.99146676 -45.292513938 c 0
 1119.1169654 -36.9333423145 1119.1169654 -36.9333423145 1104.43086026 -27.1743187475 c 0
 1089.74475512 -17.4152951805 1089.74475512 -17.4152951805 1074.86592096 -6.71815335977 c 0
 1059.98708681 3.97898846096 1059.98708681 3.97898846096 1044.41198847 15.9297251236 c 0
 1028.83689014 27.8804617863 1028.83689014 27.8804617863 1013.2229687 40.5413342481 c 0
 997.609047266 53.20220671 997.609047266 53.20220671 981.414201265 66.9704169123 c 1
 946.434604536 -17.0764002332 946.434604536 -17.0764002332 873.440265498 -63.2882001166 c 0
 800.445926459 -109.5 800.445926459 -109.5 709 -109.5 c 0
 632.424308849 -109.5 632.424308849 -109.5 572.663616263 -78.8752660894 c 0
 512.902923678 -48.2505321788 512.902923678 -48.2505321788 476.376614355 5.16435889267 c 0
 439.850305032 58.5792499641 439.850305032 58.5792499641 421.175152516 126.754011803 c 0
 402.5 194.928773643 402.5 194.928773643 402.5 274 c 2
 402.5 2748 l 2
 402.5 2826.55783973 402.5 2826.55783973 421.295817477 2894.30193564 c 0
 440.091634954 2962.04603155 440.091634954 2962.04603155 476.724931566 3014.94674175 c 0
 513.358228179 3067.84745195 513.358228179 3067.84745195 573.040089683 3098.17372597 c 0
 632.721951187 3128.5 632.721951187 3128.5 709 3128.5 c 0
 785.166857539 3128.5 785.166857539 3128.5 844.697225644 3098.12237511 c 0
 904.227593749 3067.74475021 904.227593749 3067.74475021 940.686588216 3014.77986841 c 0
 977.145582682 2961.81498661 977.145582682 2961.81498661 995.822791341 2894.13155339 c 0
 1014.5 2826.44812017 1014.5 2826.44812017 1014.5 2748 c 2
1014.5 1290 m 2
 1014.5 946 l 2
 1014.5 919.371998456 1014.5 919.371998456 1016.85726222 895.932181239 c 0
 1019.21452444 872.492364022 1019.21452444 872.492364022 1021.95265984 859.95790398 c 0
 1024.69079524 847.423443939 1024.69079524 847.423443939 1027.38754116 841.233186249 c 0
 1029.58770063 836.182820193 1029.58770063 836.182820193 1036.26883456 827.002612372 c 0
 1042.94996848 817.822404551 1042.94996848 817.822404551 1058.72621764 801.202911621 c 0
 1074.5024668 784.583418691 1074.5024668 784.583418691 1094.75511368 767.571195309 c 2
 1319.7516061 575.574188444 l 2
 1384.95913477 520.951713407 1384.95913477 520.951713407 1417.12691057 502.5 c 1
 1700 502.5 l 2
 1738.57274587 502.5 1738.57274587 502.5 1753.31277644 514.463663275 c 2
 1919.85105276 652.922811615 l 1
 1925.11107658 665.589807755 1925.11107658 665.589807755 1929.80553829 700.085586306 c 0
 1934.5 734.581364856 1934.5 734.581364856 1934.5 782 c 2
 1934.5 1479 l 2
 1934.5 1500.55721763 1934.5 1500.55721763 1931.98214894 1518.91210932 c 0
 1929.46429789 1537.26700101 1929.46429789 1537.26700101 1927.1185855 1545.14235162 c 0
 1924.7728731 1553.01770224 1924.7728731 1553.01770224 1922.96366237 1556.19182987 c 2
 1741.64396686 1696.43910816 l 2
 1734.09909494 1702.66362749 1734.09909494 1702.66362749 1730.13276552 1704.08181375 c 0
 1726.1664361 1705.5 1726.1664361 1705.5 1716 1705.5 c 2
 1442 1705.5 l 2
 1419.61399782 1705.5 1419.61399782 1705.5 1398.54743682 1696.47610137 c 0
 1377.48087581 1687.45220275 1377.48087581 1687.45220275 1350.77532608 1663.17443027 c 2
 1094.54810913 1440.23657615 l 2
 1049.82223675 1403.77935245 1049.82223675 1403.77935245 1032.16111838 1369.14616471 c 0
 1014.5 1334.51297696 1014.5 1334.51297696 1014.5 1290 c 2
EndSplineSet
EndChar

StartChar: c
Encoding: 99 99 68
Width: 2949
Flags: W
LayerCount: 2
Fore
SplineSet
402.5 913 m 2
 402.5 1294 l 2
 402.5 1503.04244463 402.5 1503.04244463 459.786565364 1633.13068681 c 0
 518.180148364 1765.73278154 518.180148364 1765.73278154 675.360138511 1894.50312108 c 2
 966.198587007 2136.3687724 l 2
 1039.94247535 2197.06566512 1039.94247535 2197.06566512 1104.28859136 2234.97640999 c 0
 1168.63470736 2272.88715487 1168.63470736 2272.88715487 1231.74452589 2289.42395223 c 0
 1338.89189185 2317.5 1338.89189185 2317.5 1544 2317.5 c 2
 2167 2317.5 l 2
 2245.3879678 2317.5 2245.3879678 2317.5 2312.98841312 2298.66376273 c 0
 2380.58885844 2279.82752546 2380.58885844 2279.82752546 2433.31805831 2243.15829963 c 0
 2486.04725818 2206.48907381 2486.04725818 2206.48907381 2516.27362909 2146.83375129 c 0
 2546.5 2087.17842877 2546.5 2087.17842877 2546.5 2011 c 0
 2546.5 1934.93281802 2546.5 1934.93281802 2516.22219445 1875.42891253 c 0
 2485.94438889 1815.92500703 2485.94438889 1815.92500703 2433.1511515 1779.43013468 c 0
 2380.3579141 1742.93526232 2380.3579141 1742.93526232 2312.81788314 1724.21763116 c 0
 2245.27785219 1705.5 2245.27785219 1705.5 2167 1705.5 c 2
 1475 1705.5 l 2
 1407.90055483 1705.5 1407.90055483 1705.5 1319.3439841 1632.08275408 c 2
 1081.6191011 1431.47103846 l 2
 1053.29974267 1408.70968496 1053.29974267 1408.70968496 1036.74633414 1388.31952243 c 0
 1020.19292562 1367.92935991 1020.19292562 1367.92935991 1017.34646281 1360.21480256 c 0
 1014.5 1352.50024521 1014.5 1352.50024521 1014.5 1348 c 2
 1014.5 860 l 2
 1014.5 854.363317201 1014.5 854.363317201 1014.89533707 849.819448411 c 0
 1015.29067413 845.275579621 1015.29067413 845.275579621 1015.85489306 842.816842668 c 0
 1016.41911198 840.358105715 1016.41911198 840.358105715 1016.9833309 838.704609161 c 0
 1017.54754982 837.051112608 1017.54754982 837.051112608 1017.94288689 836.533445817 c 2
 1018.33822396 836.015779027 l 2
 1033.9519599 814.347737306 1033.9519599 814.347737306 1081.34729822 776.758331052 c 2
 1319.3439841 575.917245923 l 2
 1367.16758357 536.269403488 1367.16758357 536.269403488 1405.85194871 519.384701744 c 0
 1444.53631385 502.5 1444.53631385 502.5 1475 502.5 c 2
 2167 502.5 l 2
 2218.67209742 502.5 2218.67209742 502.5 2266.157025 494.283021852 c 0
 2313.64195257 486.066043704 2313.64195257 486.066043704 2356.20013604 469.881231398 c 0
 2398.75831952 453.696419091 2398.75831952 453.696419091 2433.47511252 428.064885045 c 0
 2468.19190552 402.433350999 2468.19190552 402.433350999 2493.4887692 369.262990487 c 0
 2518.78563289 336.092629975 2518.78563289 336.092629975 2532.64281644 292.135220714 c 0
 2546.5 248.177811454 2546.5 248.177811454 2546.5 197 c 0
 2546.5 120.820779447 2546.5 120.820779447 2516.27367554 61.1653048094 c 0
 2486.04735107 1.50983017226 2486.04735107 1.50983017226 2433.31806163 -35.1591561145 c 0
 2380.58877218 -71.8281424012 2380.58877218 -71.8281424012 2312.98848672 -90.6640712006 c 0
 2245.38820125 -109.5 2245.38820125 -109.5 2167 -109.5 c 2
 1544 -109.5 l 2
 1510.32735888 -109.5 1510.32735888 -109.5 1480.40581594 -108.8573106 c 0
 1450.484273 -108.2146212 1450.484273 -108.2146212 1421.98289051 -106.834592662 c 0
 1393.48150802 -105.454564123 1393.48150802 -105.454564123 1367.9279202 -103.237702945 c 0
 1342.37433237 -101.020841767 1342.37433237 -101.020841767 1318.59703036 -97.9264657607 c 0
 1294.81972834 -94.8320897549 1294.81972834 -94.8320897549 1273.10962222 -90.703140032 c 0
 1251.39951609 -86.5741903092 1251.39951609 -86.5741903092 1231.74452589 -81.4239522331 c 0
 1114.98103374 -50.8281708693 1114.98103374 -50.8281708693 966.284608637 71.5604251788 c 2
 674.852204977 312.918532677 l 2
 569.80330167 401.204313116 569.80330167 401.204313116 511.682683158 483.154385218 c 0
 449.042480653 571.477070749 449.042480653 571.477070749 424.710767987 678.786162509 c 0
 413.290663904 729.151749744 413.290663904 729.151749744 407.895331952 787.289759699 c 0
 402.5 845.427769653 402.5 845.427769653 402.5 913 c 2
EndSplineSet
EndChar

StartChar: d
Encoding: 100 100 69
Width: 2949
Flags: W
LayerCount: 2
Fore
SplineSet
1241 2317.5 m 2
 1589 2317.5 l 2
 1753.45974501 2317.5 1753.45974501 2317.5 1934.5 2176.33032614 c 1
 1934.5 2748 l 2
 1934.5 2826.55783973 1934.5 2826.55783973 1953.29581748 2894.30193564 c 0
 1972.09163495 2962.04603155 1972.09163495 2962.04603155 2008.72493157 3014.94674175 c 0
 2045.35822818 3067.84745195 2045.35822818 3067.84745195 2105.04008968 3098.17372597 c 0
 2164.72195119 3128.5 2164.72195119 3128.5 2241 3128.5 c 0
 2317.16685754 3128.5 2317.16685754 3128.5 2376.69722564 3098.12237511 c 0
 2436.22759375 3067.74475021 2436.22759375 3067.74475021 2472.68658822 3014.77986841 c 0
 2509.14558268 2961.81498661 2509.14558268 2961.81498661 2527.82279134 2894.13155339 c 0
 2546.5 2826.44812017 2546.5 2826.44812017 2546.5 2748 c 2
 2546.5 274 l 2
 2546.5 195.037658953 2546.5 195.037658953 2527.94301129 126.924075062 c 0
 2509.38602257 58.8104911705 2509.38602257 58.8104911705 2473.03351372 5.33115220126 c 0
 2436.68100487 -48.148186768 2436.68100487 -48.148186768 2377.0722522 -78.824093384 c 0
 2317.46349953 -109.5 2317.46349953 -109.5 2241 -109.5 c 0
 2150.0624353 -109.5 2150.0624353 -109.5 2076.82342183 -63.473331822 c 0
 2003.58440836 -17.4466636441 2003.58440836 -17.4466636441 1968.78599111 64.4113136925 c 1
 1946.86285828 46.1918982885 1946.86285828 46.1918982885 1925.70190739 30.0645618367 c 0
 1904.5409565 13.9372253848 1904.5409565 13.9372253848 1882.84588955 -0.957589205795 c 0
 1861.15082261 -15.8524037964 1861.15082261 -15.8524037964 1840.0584092 -28.5618304917 c 0
 1818.96599579 -41.271257187 1818.96599579 -41.271257187 1797.33824394 -52.4190901176 c 0
 1775.71049209 -63.5669230483 1775.71049209 -63.5669230483 1754.51531166 -72.4517766712 c 0
 1733.32013122 -81.3366302941 1733.32013122 -81.3366302941 1711.58838995 -88.330818249 c 0
 1689.85664868 -95.3250062039 1689.85664868 -95.3250062039 1668.3873967 -99.9786234386 c 0
 1646.91814472 -104.632240673 1646.91814472 -104.632240673 1624.91110951 -107.066120337 c 0
 1602.9040743 -109.5 1602.9040743 -109.5 1581 -109.5 c 2
 1200 -109.5 l 2
 989.024448907 -109.5 989.024448907 -109.5 793.221682341 55.4489972884 c 2
 657.920890558 170.705227326 l 2
 516.349090567 291.726282157 516.349090567 291.726282157 459.855120331 408.966456947 c 0
 402.5 527.993749678 402.5 527.993749678 402.5 709 c 2
 402.5 1499 l 2
 402.5 1681.25429579 402.5 1681.25429579 461.060609362 1801.45765185 c 0
 518.689805374 1919.74915945 518.689805374 1919.74915945 658.352700448 2037.66127579 c 2
 792.724918617 2151.13114891 l 2
 900.694678146 2244.94492294 900.694678146 2244.94492294 999.115508478 2281.23760413 c 0
 1097.45420915 2317.5 1097.45420915 2317.5 1241 2317.5 c 2
1014.5 1343 m 2
 1014.5 864 l 2
 1014.5 781.679659754 1014.5 781.679659754 1022.96921117 722.558791241 c 0
 1031.43842235 663.437922728 1031.43842235 663.437922728 1039.75010893 647.043365913 c 1
 1153.85970863 556.142498358 l 2
 1209.19609571 510.708412124 1209.19609571 510.708412124 1236.18547224 502.5 c 1
 1511 502.5 l 2
 1518.38748425 502.5 1518.38748425 502.5 1531.80195863 507.196683032 c 0
 1545.216433 511.893366065 1545.216433 511.893366065 1573.12295326 529.389761794 c 0
 1601.02947352 546.886157523 1601.02947352 546.886157523 1632.00968242 574.517154652 c 2
 1857.61561846 767.03422007 l 2
 1909.85688374 812.385824103 1909.85688374 812.385824103 1930.87393026 838.752664282 c 0
 1934.5 843.301733587 1934.5 843.301733587 1934.5 856 c 2
 1934.5 1351.3286396 l 2
 1933.68086188 1355.17480472 1933.68086188 1355.17480472 1927.90874845 1365.05813122 c 0
 1922.13663503 1374.94145773 1922.13663503 1374.94145773 1903.38898158 1396.55313659 c 0
 1884.64132813 1418.16481545 1884.64132813 1418.16481545 1858.16009801 1440.50115738 c 2
 1632.00968242 1633.48284535 l 2
 1601.01549667 1661.12630831 1601.01549667 1661.12630831 1573.11434687 1678.62146895 c 0
 1545.21319707 1696.11662958 1545.21319707 1696.11662958 1531.80641664 1700.80831479 c 0
 1518.39963621 1705.5 1518.39963621 1705.5 1511 1705.5 c 2
 1236.18547224 1705.5 l 1
 1209.19609571 1697.29158788 1209.19609571 1697.29158788 1154.0781939 1652.03688955 c 2
 1039.7813396 1560.01823567 l 1
 1031.24131871 1543.17329617 1031.24131871 1543.17329617 1022.87065936 1484.27315849 c 0
 1014.5 1425.37302081 1014.5 1425.37302081 1014.5 1343 c 2
EndSplineSet
EndChar

